<ttFont>
    <TTGlyph name="A" xMin="4" yMin="0" xMax="1634" yMax="1623">
      <contour>
        <pt x="1185" y="1623" on="1"/>
        <pt x="191" y="1623" on="1"/>
        <pt x="191" y="1270" on="1"/>
        <pt x="403" y="1270" on="1"/>
        <pt x="231" y="591" on="1"/>
        <pt x="204" y="486" on="0"/>
        <pt x="193" y="462" on="1"/>
        <pt x="160" y="386" on="0"/>
        <pt x="82" y="367" on="1"/>
        <pt x="48" y="359" on="0"/>
        <pt x="4" y="359" on="1"/>
        <pt x="4" y="0" on="1"/>
        <pt x="682" y="0" on="1"/>
        <pt x="682" y="359" on="1"/>
        <pt x="598" y="359" on="1"/>
        <pt x="577" y="359" on="0"/>
        <pt x="555" y="431" on="0"/>
        <pt x="555" y="459" on="1"/>
        <pt x="556" y="480" on="0"/>
        <pt x="558" y="502" on="0"/>
        <pt x="572" y="523" on="0"/>
        <pt x="585" y="523" on="1"/>
        <pt x="860" y="523" on="1"/>
        <pt x="927" y="523" on="0"/>
        <pt x="927" y="359" on="1"/>
        <pt x="807" y="359" on="1"/>
        <pt x="808" y="0" on="1"/>
        <pt x="1634" y="0" on="1"/>
        <pt x="1634" y="359" on="1"/>
        <pt x="1548" y="359" on="1"/>
        <pt x="1533" y="359" on="0"/>
        <pt x="1511" y="384" on="0"/>
        <pt x="1500" y="416" on="0"/>
        <pt x="1492" y="447" on="1"/>
      </contour>
      <contour>
        <pt x="612" y="773" on="1"/>
        <pt x="724" y="1281" on="1"/>
        <pt x="841" y="773" on="1"/>
      </contour>
    </TTGlyph>
    <TTGlyph name="AE" xMin="-10" yMin="-1" xMax="2026" yMax="1623">
      <contour>
        <pt x="2015" y="970" on="1"/>
        <pt x="2015" y="1623" on="1"/>
        <pt x="445" y="1623" on="1"/>
        <pt x="374" y="1274" on="1"/>
        <pt x="586" y="1274" on="1"/>
        <pt x="264" y="608" on="1"/>
        <pt x="259" y="597" on="0"/>
        <pt x="232" y="534" on="0"/>
        <pt x="221" y="511" on="0"/>
        <pt x="194" y="459" on="0"/>
        <pt x="176" y="437" on="0"/>
        <pt x="144" y="399" on="0"/>
        <pt x="112" y="382" on="0"/>
        <pt x="70" y="362" on="0"/>
        <pt x="20" y="354" on="0"/>
        <pt x="-10" y="354" on="1"/>
        <pt x="-10" y="-1" on="1"/>
        <pt x="671" y="0" on="1"/>
        <pt x="671" y="376" on="1"/>
        <pt x="587" y="376" on="1"/>
        <pt x="566" y="376" on="0"/>
        <pt x="557" y="459" on="0"/>
        <pt x="563" y="476" on="1"/>
        <pt x="568" y="497" on="0"/>
        <pt x="574" y="519" on="0"/>
        <pt x="592" y="540" on="0"/>
        <pt x="605" y="540" on="1"/>
        <pt x="880" y="540" on="1"/>
        <pt x="948" y="540" on="0"/>
        <pt x="916" y="376" on="1"/>
        <pt x="796" y="376" on="1"/>
        <pt x="797" y="0" on="1"/>
        <pt x="2026" y="0" on="1"/>
        <pt x="2026" y="687" on="1"/>
        <pt x="1753" y="687" on="1"/>
        <pt x="1690" y="420" on="1"/>
        <pt x="1677" y="350" on="1"/>
        <pt x="1458" y="350" on="1"/>
        <pt x="1458" y="636" on="1"/>
        <pt x="1663" y="636" on="1"/>
        <pt x="1663" y="988" on="1"/>
        <pt x="1458" y="988" on="1"/>
        <pt x="1458" y="1271" on="1"/>
        <pt x="1671" y="1271" on="1"/>
        <pt x="1747" y="969" on="1"/>
      </contour>
      <contour>
        <pt x="669" y="771" on="1"/>
        <pt x="909" y="1292" on="1"/>
        <pt x="908" y="771" on="1"/>
      </contour>
    </TTGlyph>
    <TTGlyph name="AEacute" xMin="-10" yMin="-1" xMax="2026" yMax="2259">
      <component glyphName="AE" x="0" y="0" flags="0x1204"/>
      <component glyphName="acute" x="547" y="551" flags="0x1004"/>
    </TTGlyph>
    <TTGlyph name="Aacute" xMin="4" yMin="0" xMax="1634" yMax="2270">
      <contour>
        <pt x="1185" y="1623" on="1"/>
        <pt x="191" y="1623" on="1"/>
        <pt x="191" y="1270" on="1"/>
        <pt x="403" y="1270" on="1"/>
        <pt x="231" y="591" on="1"/>
        <pt x="204" y="486" on="0"/>
        <pt x="193" y="462" on="1"/>
        <pt x="160" y="386" on="0"/>
        <pt x="82" y="367" on="1"/>
        <pt x="48" y="359" on="0"/>
        <pt x="4" y="359" on="1"/>
        <pt x="4" y="0" on="1"/>
        <pt x="682" y="0" on="1"/>
        <pt x="682" y="359" on="1"/>
        <pt x="598" y="359" on="1"/>
        <pt x="577" y="359" on="0"/>
        <pt x="555" y="431" on="0"/>
        <pt x="555" y="459" on="1"/>
        <pt x="556" y="480" on="0"/>
        <pt x="558" y="502" on="0"/>
        <pt x="572" y="523" on="0"/>
        <pt x="585" y="523" on="1"/>
        <pt x="860" y="523" on="1"/>
        <pt x="927" y="523" on="0"/>
        <pt x="927" y="359" on="1"/>
        <pt x="807" y="359" on="1"/>
        <pt x="808" y="0" on="1"/>
        <pt x="1634" y="0" on="1"/>
        <pt x="1634" y="359" on="1"/>
        <pt x="1548" y="359" on="1"/>
        <pt x="1533" y="359" on="0"/>
        <pt x="1511" y="384" on="0"/>
        <pt x="1500" y="416" on="0"/>
        <pt x="1492" y="447" on="1"/>
      </contour>
      <contour>
        <pt x="612" y="773" on="1"/>
        <pt x="724" y="1281" on="1"/>
        <pt x="841" y="773" on="1"/>
      </contour>
      <contour>
        <pt x="938" y="2270" on="1"/>
        <pt x="464" y="1833" on="1"/>
        <pt x="568" y="1692" on="1"/>
        <pt x="1122" y="2005" on="1"/>
      </contour>
    </TTGlyph>
    <TTGlyph name="Abreve" xMin="4" yMin="0" xMax="1634" yMax="2173">
      <component glyphName="A" x="0" y="0" flags="0x1204"/>
      <component glyphName="breve" x="51" y="551" flags="0x1004"/>
    </TTGlyph>
    <TTGlyph name="Acircumflex" xMin="4" yMin="0" xMax="1634" yMax="2163">
      <contour>
        <pt x="1185" y="1623" on="1"/>
        <pt x="191" y="1623" on="1"/>
        <pt x="191" y="1270" on="1"/>
        <pt x="403" y="1270" on="1"/>
        <pt x="231" y="591" on="1"/>
        <pt x="204" y="486" on="0"/>
        <pt x="193" y="462" on="1"/>
        <pt x="160" y="386" on="0"/>
        <pt x="82" y="367" on="1"/>
        <pt x="48" y="359" on="0"/>
        <pt x="4" y="359" on="1"/>
        <pt x="4" y="0" on="1"/>
        <pt x="682" y="0" on="1"/>
        <pt x="682" y="359" on="1"/>
        <pt x="598" y="359" on="1"/>
        <pt x="577" y="359" on="0"/>
        <pt x="555" y="431" on="0"/>
        <pt x="555" y="459" on="1"/>
        <pt x="556" y="480" on="0"/>
        <pt x="558" y="502" on="0"/>
        <pt x="572" y="523" on="0"/>
        <pt x="585" y="523" on="1"/>
        <pt x="860" y="523" on="1"/>
        <pt x="927" y="523" on="0"/>
        <pt x="927" y="359" on="1"/>
        <pt x="807" y="359" on="1"/>
        <pt x="808" y="0" on="1"/>
        <pt x="1634" y="0" on="1"/>
        <pt x="1634" y="359" on="1"/>
        <pt x="1548" y="359" on="1"/>
        <pt x="1533" y="359" on="0"/>
        <pt x="1511" y="384" on="0"/>
        <pt x="1500" y="416" on="0"/>
        <pt x="1492" y="447" on="1"/>
      </contour>
      <contour>
        <pt x="612" y="773" on="1"/>
        <pt x="724" y="1281" on="1"/>
        <pt x="841" y="773" on="1"/>
      </contour>
      <contour>
        <pt x="557" y="2163" on="1"/>
        <pt x="284" y="1786" on="1"/>
        <pt x="438" y="1685" on="1"/>
        <pt x="693" y="1930" on="1"/>
        <pt x="948" y="1685" on="1"/>
        <pt x="1102" y="1786" on="1"/>
        <pt x="828" y="2162" on="1"/>
      </contour>
    </TTGlyph>
    <TTGlyph name="Adieresis" xMin="4" yMin="0" xMax="1634" yMax="2134">
      <contour>
        <pt x="1185" y="1623" on="1"/>
        <pt x="191" y="1623" on="1"/>
        <pt x="191" y="1270" on="1"/>
        <pt x="403" y="1270" on="1"/>
        <pt x="231" y="591" on="1"/>
        <pt x="204" y="486" on="0"/>
        <pt x="193" y="462" on="1"/>
        <pt x="160" y="386" on="0"/>
        <pt x="82" y="367" on="1"/>
        <pt x="48" y="359" on="0"/>
        <pt x="4" y="359" on="1"/>
        <pt x="4" y="0" on="1"/>
        <pt x="682" y="0" on="1"/>
        <pt x="682" y="359" on="1"/>
        <pt x="598" y="359" on="1"/>
        <pt x="577" y="359" on="0"/>
        <pt x="555" y="431" on="0"/>
        <pt x="555" y="459" on="1"/>
        <pt x="556" y="480" on="0"/>
        <pt x="558" y="502" on="0"/>
        <pt x="572" y="523" on="0"/>
        <pt x="585" y="523" on="1"/>
        <pt x="860" y="523" on="1"/>
        <pt x="927" y="523" on="0"/>
        <pt x="927" y="359" on="1"/>
        <pt x="807" y="359" on="1"/>
        <pt x="808" y="0" on="1"/>
        <pt x="1634" y="0" on="1"/>
        <pt x="1634" y="359" on="1"/>
        <pt x="1548" y="359" on="1"/>
        <pt x="1533" y="359" on="0"/>
        <pt x="1511" y="384" on="0"/>
        <pt x="1500" y="416" on="0"/>
        <pt x="1492" y="447" on="1"/>
      </contour>
      <contour>
        <pt x="612" y="773" on="1"/>
        <pt x="724" y="1281" on="1"/>
        <pt x="841" y="773" on="1"/>
      </contour>
      <contour>
        <pt x="711" y="1904" on="1"/>
        <pt x="711" y="1796" on="0"/>
        <pt x="578" y="1674" on="0"/>
        <pt x="487" y="1674" on="1"/>
        <pt x="394" y="1674" on="0"/>
        <pt x="259" y="1797" on="0"/>
        <pt x="259" y="1907" on="1"/>
        <pt x="259" y="2014" on="0"/>
        <pt x="393" y="2134" on="0"/>
        <pt x="577" y="2134" on="0"/>
        <pt x="711" y="2013" on="0"/>
      </contour>
      <contour>
        <pt x="1328" y="1904" on="1"/>
        <pt x="1328" y="1796" on="0"/>
        <pt x="1195" y="1674" on="0"/>
        <pt x="1104" y="1674" on="1"/>
        <pt x="1011" y="1674" on="0"/>
        <pt x="876" y="1797" on="0"/>
        <pt x="876" y="1907" on="1"/>
        <pt x="876" y="2014" on="0"/>
        <pt x="1010" y="2134" on="0"/>
        <pt x="1194" y="2134" on="0"/>
        <pt x="1328" y="2013" on="0"/>
      </contour>
    </TTGlyph>
    <TTGlyph name="Agrave" xMin="4" yMin="0" xMax="1634" yMax="2270">
      <contour>
        <pt x="1185" y="1623" on="1"/>
        <pt x="191" y="1623" on="1"/>
        <pt x="191" y="1270" on="1"/>
        <pt x="403" y="1270" on="1"/>
        <pt x="231" y="591" on="1"/>
        <pt x="204" y="486" on="0"/>
        <pt x="193" y="462" on="1"/>
        <pt x="160" y="386" on="0"/>
        <pt x="82" y="367" on="1"/>
        <pt x="48" y="359" on="0"/>
        <pt x="4" y="359" on="1"/>
        <pt x="4" y="0" on="1"/>
        <pt x="682" y="0" on="1"/>
        <pt x="682" y="359" on="1"/>
        <pt x="598" y="359" on="1"/>
        <pt x="577" y="359" on="0"/>
        <pt x="555" y="431" on="0"/>
        <pt x="555" y="459" on="1"/>
        <pt x="556" y="480" on="0"/>
        <pt x="558" y="502" on="0"/>
        <pt x="572" y="523" on="0"/>
        <pt x="585" y="523" on="1"/>
        <pt x="860" y="523" on="1"/>
        <pt x="927" y="523" on="0"/>
        <pt x="927" y="359" on="1"/>
        <pt x="807" y="359" on="1"/>
        <pt x="808" y="0" on="1"/>
        <pt x="1634" y="0" on="1"/>
        <pt x="1634" y="359" on="1"/>
        <pt x="1548" y="359" on="1"/>
        <pt x="1533" y="359" on="0"/>
        <pt x="1511" y="384" on="0"/>
        <pt x="1500" y="416" on="0"/>
        <pt x="1492" y="447" on="1"/>
      </contour>
      <contour>
        <pt x="612" y="773" on="1"/>
        <pt x="724" y="1281" on="1"/>
        <pt x="841" y="773" on="1"/>
      </contour>
      <contour>
        <pt x="648" y="2270" on="1"/>
        <pt x="1122" y="1833" on="1"/>
        <pt x="1018" y="1692" on="1"/>
        <pt x="464" y="2005" on="1"/>
      </contour>
    </TTGlyph>
    <TTGlyph name="Amacron" xMin="4" yMin="0" xMax="1634" yMax="2069">
      <component glyphName="A" x="0" y="0" flags="0x1204"/>
      <component glyphName="macron#1" x="271" y="551" flags="0x1004"/>
    </TTGlyph>
    <TTGlyph name="Aogonek" xMin="4" yMin="-485" xMax="1634" yMax="1623">
      <component glyphName="A" x="0" y="0" flags="0x1204"/>
      <component glyphName="ogonek" x="716" y="0" flags="0x1004"/>
    </TTGlyph>
    <TTGlyph name="Aring" xMin="4" yMin="0" xMax="1634" yMax="2195">
      <contour>
        <pt x="1185" y="1623" on="1"/>
        <pt x="191" y="1623" on="1"/>
        <pt x="191" y="1270" on="1"/>
        <pt x="403" y="1270" on="1"/>
        <pt x="231" y="591" on="1"/>
        <pt x="204" y="486" on="0"/>
        <pt x="193" y="462" on="1"/>
        <pt x="160" y="386" on="0"/>
        <pt x="82" y="367" on="1"/>
        <pt x="48" y="359" on="0"/>
        <pt x="4" y="359" on="1"/>
        <pt x="4" y="0" on="1"/>
        <pt x="682" y="0" on="1"/>
        <pt x="682" y="359" on="1"/>
        <pt x="598" y="359" on="1"/>
        <pt x="577" y="359" on="0"/>
        <pt x="555" y="431" on="0"/>
        <pt x="555" y="459" on="1"/>
        <pt x="556" y="480" on="0"/>
        <pt x="558" y="502" on="0"/>
        <pt x="572" y="523" on="0"/>
        <pt x="585" y="523" on="1"/>
        <pt x="860" y="523" on="1"/>
        <pt x="927" y="523" on="0"/>
        <pt x="927" y="359" on="1"/>
        <pt x="807" y="359" on="1"/>
        <pt x="808" y="0" on="1"/>
        <pt x="1634" y="0" on="1"/>
        <pt x="1634" y="359" on="1"/>
        <pt x="1548" y="359" on="1"/>
        <pt x="1533" y="359" on="0"/>
        <pt x="1511" y="384" on="0"/>
        <pt x="1500" y="416" on="0"/>
        <pt x="1492" y="447" on="1"/>
      </contour>
      <contour>
        <pt x="612" y="773" on="1"/>
        <pt x="724" y="1281" on="1"/>
        <pt x="841" y="773" on="1"/>
      </contour>
      <contour>
        <pt x="789" y="1802" on="1"/>
        <pt x="714" y="1802" on="0"/>
        <pt x="628" y="1890" on="0"/>
        <pt x="628" y="1950" on="1"/>
        <pt x="628" y="2009" on="0"/>
        <pt x="713" y="2095" on="0"/>
        <pt x="789" y="2095" on="1"/>
        <pt x="867" y="2095" on="0"/>
        <pt x="954" y="2009" on="0"/>
        <pt x="954" y="1950" on="1"/>
        <pt x="954" y="1890" on="0"/>
        <pt x="866" y="1802" on="0"/>
      </contour>
      <contour>
        <pt x="789" y="1700" on="1"/>
        <pt x="920" y="1700" on="0"/>
        <pt x="1069" y="1850" on="0"/>
        <pt x="1069" y="1951" on="1"/>
        <pt x="1069" y="2051" on="0"/>
        <pt x="922" y="2195" on="0"/>
        <pt x="789" y="2195" on="1"/>
        <pt x="660" y="2195" on="0"/>
        <pt x="518" y="2050" on="0"/>
        <pt x="518" y="1951" on="1"/>
        <pt x="518" y="1850" on="0"/>
        <pt x="662" y="1700" on="0"/>
      </contour>
    </TTGlyph>
    <TTGlyph name="Atilde" xMin="4" yMin="0" xMax="1634" yMax="2085">
      <contour>
        <pt x="1185" y="1623" on="1"/>
        <pt x="191" y="1623" on="1"/>
        <pt x="191" y="1270" on="1"/>
        <pt x="403" y="1270" on="1"/>
        <pt x="231" y="591" on="1"/>
        <pt x="204" y="486" on="0"/>
        <pt x="193" y="462" on="1"/>
        <pt x="160" y="386" on="0"/>
        <pt x="82" y="367" on="1"/>
        <pt x="48" y="359" on="0"/>
        <pt x="4" y="359" on="1"/>
        <pt x="4" y="0" on="1"/>
        <pt x="682" y="0" on="1"/>
        <pt x="682" y="359" on="1"/>
        <pt x="598" y="359" on="1"/>
        <pt x="577" y="359" on="0"/>
        <pt x="555" y="431" on="0"/>
        <pt x="555" y="459" on="1"/>
        <pt x="556" y="480" on="0"/>
        <pt x="558" y="502" on="0"/>
        <pt x="572" y="523" on="0"/>
        <pt x="585" y="523" on="1"/>
        <pt x="860" y="523" on="1"/>
        <pt x="927" y="523" on="0"/>
        <pt x="927" y="359" on="1"/>
        <pt x="807" y="359" on="1"/>
        <pt x="808" y="0" on="1"/>
        <pt x="1634" y="0" on="1"/>
        <pt x="1634" y="359" on="1"/>
        <pt x="1548" y="359" on="1"/>
        <pt x="1533" y="359" on="0"/>
        <pt x="1511" y="384" on="0"/>
        <pt x="1500" y="416" on="0"/>
        <pt x="1492" y="447" on="1"/>
      </contour>
      <contour>
        <pt x="612" y="773" on="1"/>
        <pt x="724" y="1281" on="1"/>
        <pt x="841" y="773" on="1"/>
      </contour>
      <contour>
        <pt x="967" y="2085" on="1"/>
        <pt x="1011" y="2085" on="0"/>
        <pt x="1083" y="2047" on="0"/>
        <pt x="1135" y="1978" on="0"/>
        <pt x="1174" y="1910" on="0"/>
        <pt x="1221" y="1820" on="0"/>
        <pt x="1239" y="1794" on="1"/>
        <pt x="1126" y="1720" on="1"/>
        <pt x="1053" y="1790" on="0"/>
        <pt x="998" y="1828" on="0"/>
        <pt x="979" y="1828" on="1"/>
        <pt x="934" y="1828" on="0"/>
        <pt x="810" y="1768" on="0"/>
        <pt x="677" y="1707" on="0"/>
        <pt x="622" y="1707" on="1"/>
        <pt x="577" y="1707" on="0"/>
        <pt x="505" y="1744" on="0"/>
        <pt x="452" y="1813" on="0"/>
        <pt x="414" y="1880" on="0"/>
        <pt x="366" y="1971" on="0"/>
        <pt x="348" y="1997" on="1"/>
        <pt x="462" y="2072" on="1"/>
        <pt x="538" y="1999" on="0"/>
        <pt x="594" y="1960" on="0"/>
        <pt x="612" y="1960" on="1"/>
        <pt x="648" y="1960" on="0"/>
        <pt x="742" y="1999" on="0"/>
        <pt x="820" y="2046" on="0"/>
        <pt x="922" y="2085" on="0"/>
      </contour>
    </TTGlyph>
    <TTGlyph name="B" xMin="89" yMin="0" xMax="1616" yMax="1623">
      <contour>
        <pt x="89" y="0" on="1"/>
        <pt x="1031" y="0" on="1"/>
        <pt x="1160" y="0" on="0"/>
        <pt x="1367" y="46" on="0"/>
        <pt x="1528" y="143" on="0"/>
        <pt x="1616" y="308" on="0"/>
        <pt x="1616" y="420" on="1"/>
        <pt x="1616" y="589" on="0"/>
        <pt x="1452" y="805" on="0"/>
        <pt x="1302" y="848" on="1"/>
        <pt x="1302" y="850" on="1"/>
        <pt x="1411" y="891" on="0"/>
        <pt x="1547" y="1080" on="0"/>
        <pt x="1547" y="1204" on="1"/>
        <pt x="1547" y="1304" on="0"/>
        <pt x="1487" y="1452" on="0"/>
        <pt x="1382" y="1546" on="0"/>
        <pt x="1217" y="1602" on="0"/>
        <pt x="1032" y="1623" on="0"/>
        <pt x="910" y="1623" on="1"/>
        <pt x="96" y="1622" on="1"/>
        <pt x="96" y="1270" on="1"/>
        <pt x="262" y="1270" on="1"/>
        <pt x="261" y="359" on="1"/>
        <pt x="89" y="359" on="1"/>
      </contour>
      <contour>
        <pt x="863" y="700" on="1"/>
        <pt x="892" y="700" on="0"/>
        <pt x="938" y="695" on="0"/>
        <pt x="995" y="674" on="0"/>
        <pt x="1034" y="638" on="0"/>
        <pt x="1061" y="572" on="0"/>
        <pt x="1061" y="527" on="1"/>
        <pt x="1061" y="502" on="0"/>
        <pt x="1054" y="460" on="0"/>
        <pt x="1041" y="429" on="0"/>
        <pt x="1023" y="403" on="0"/>
        <pt x="1000" y="386" on="0"/>
        <pt x="972" y="373" on="0"/>
        <pt x="941" y="366" on="0"/>
        <pt x="907" y="361" on="0"/>
        <pt x="870" y="359" on="0"/>
        <pt x="831" y="358" on="0"/>
        <pt x="811" y="359" on="1"/>
        <pt x="796" y="359" on="0"/>
        <pt x="789" y="359" on="1"/>
        <pt x="789" y="699" on="1"/>
        <pt x="852" y="700" on="0"/>
      </contour>
      <contour>
        <pt x="789" y="1270" on="1"/>
        <pt x="915" y="1270" on="1"/>
        <pt x="971" y="1270" on="0"/>
        <pt x="1053" y="1198" on="0"/>
        <pt x="1053" y="1131" on="1"/>
        <pt x="1053" y="1076" on="0"/>
        <pt x="1020" y="1005" on="0"/>
        <pt x="952" y="972" on="0"/>
        <pt x="883" y="961" on="0"/>
        <pt x="830" y="961" on="1"/>
        <pt x="789" y="961" on="1"/>
      </contour>
    </TTGlyph>
    <TTGlyph name="C" xMin="57" yMin="-29" xMax="1456" yMax="1652">
      <contour>
        <pt x="1456" y="612" on="1"/>
        <pt x="1155" y="612" on="1"/>
        <pt x="1151" y="538" on="0"/>
        <pt x="1147" y="518" on="1"/>
        <pt x="1132" y="438" on="0"/>
        <pt x="1009" y="343" on="0"/>
        <pt x="928" y="343" on="1"/>
        <pt x="867" y="343" on="0"/>
        <pt x="775" y="387" on="0"/>
        <pt x="724" y="461" on="0"/>
        <pt x="689" y="557" on="0"/>
        <pt x="681" y="661" on="0"/>
        <pt x="675" y="766" on="0"/>
        <pt x="678" y="811" on="1"/>
        <pt x="678" y="841" on="0"/>
        <pt x="678" y="855" on="1"/>
        <pt x="678" y="902" on="0"/>
        <pt x="680" y="968" on="0"/>
        <pt x="690" y="1066" on="0"/>
        <pt x="708" y="1135" on="0"/>
        <pt x="744" y="1211" on="0"/>
        <pt x="793" y="1259" on="0"/>
        <pt x="868" y="1290" on="0"/>
        <pt x="915" y="1290" on="1"/>
        <pt x="978" y="1290" on="0"/>
        <pt x="1074" y="1235" on="0"/>
        <pt x="1126" y="1145" on="0"/>
        <pt x="1150" y="1044" on="0"/>
        <pt x="1149" y="991" on="1"/>
        <pt x="1447" y="991" on="1"/>
        <pt x="1446" y="1623" on="1"/>
        <pt x="1135" y="1623" on="1"/>
        <pt x="1101" y="1552" on="1"/>
        <pt x="1056" y="1595" on="0"/>
        <pt x="921" y="1642" on="0"/>
        <pt x="815" y="1652" on="0"/>
        <pt x="741" y="1652" on="1"/>
        <pt x="600" y="1652" on="0"/>
        <pt x="368" y="1554" on="0"/>
        <pt x="212" y="1390" on="0"/>
        <pt x="105" y="1169" on="0"/>
        <pt x="57" y="931" on="0"/>
        <pt x="57" y="804" on="1"/>
        <pt x="57" y="552" on="0"/>
        <pt x="228" y="181" on="0"/>
        <pt x="577" y="-29" on="0"/>
        <pt x="825" y="-29" on="1"/>
        <pt x="929" y="-29" on="0"/>
        <pt x="1136" y="19" on="0"/>
        <pt x="1282" y="86" on="0"/>
        <pt x="1398" y="154" on="0"/>
        <pt x="1427" y="178" on="1"/>
        <pt x="1456" y="202" on="1"/>
      </contour>
    </TTGlyph>
    <TTGlyph name="Cacute" xMin="57" yMin="-29" xMax="1456" yMax="2259">
      <component glyphName="C" x="0" y="0" flags="0x1204"/>
      <component glyphName="acute" x="247" y="551" flags="0x1004"/>
    </TTGlyph>
    <TTGlyph name="Ccaron" xMin="57" yMin="-29" xMax="1456" yMax="2178">
      <component glyphName="C" x="0" y="0" flags="0x1204"/>
      <component glyphName="caron" x="267" y="551" flags="0x1004"/>
    </TTGlyph>
    <TTGlyph name="Ccedilla" xMin="59" yMin="-485" xMax="1458" yMax="1652">
      <contour>
        <pt x="1458" y="612" on="1"/>
        <pt x="1157" y="612" on="1"/>
        <pt x="1153" y="538" on="0"/>
        <pt x="1149" y="518" on="1"/>
        <pt x="1134" y="438" on="0"/>
        <pt x="1011" y="343" on="0"/>
        <pt x="930" y="343" on="1"/>
        <pt x="869" y="343" on="0"/>
        <pt x="777" y="387" on="0"/>
        <pt x="726" y="461" on="0"/>
        <pt x="691" y="557" on="0"/>
        <pt x="683" y="661" on="0"/>
        <pt x="677" y="766" on="0"/>
        <pt x="680" y="811" on="1"/>
        <pt x="680" y="841" on="0"/>
        <pt x="680" y="855" on="1"/>
        <pt x="680" y="902" on="0"/>
        <pt x="682" y="968" on="0"/>
        <pt x="692" y="1066" on="0"/>
        <pt x="710" y="1135" on="0"/>
        <pt x="746" y="1211" on="0"/>
        <pt x="795" y="1259" on="0"/>
        <pt x="870" y="1290" on="0"/>
        <pt x="917" y="1290" on="1"/>
        <pt x="980" y="1290" on="0"/>
        <pt x="1076" y="1235" on="0"/>
        <pt x="1128" y="1145" on="0"/>
        <pt x="1152" y="1044" on="0"/>
        <pt x="1151" y="991" on="1"/>
        <pt x="1449" y="991" on="1"/>
        <pt x="1448" y="1623" on="1"/>
        <pt x="1137" y="1623" on="1"/>
        <pt x="1103" y="1552" on="1"/>
        <pt x="1058" y="1595" on="0"/>
        <pt x="923" y="1642" on="0"/>
        <pt x="817" y="1652" on="0"/>
        <pt x="743" y="1652" on="1"/>
        <pt x="602" y="1652" on="0"/>
        <pt x="370" y="1554" on="0"/>
        <pt x="214" y="1390" on="0"/>
        <pt x="107" y="1169" on="0"/>
        <pt x="59" y="931" on="0"/>
        <pt x="59" y="804" on="1"/>
        <pt x="59" y="552" on="0"/>
        <pt x="230" y="181" on="0"/>
        <pt x="579" y="-29" on="0"/>
        <pt x="827" y="-29" on="1"/>
        <pt x="931" y="-29" on="0"/>
        <pt x="1138" y="19" on="0"/>
        <pt x="1284" y="86" on="0"/>
        <pt x="1400" y="154" on="0"/>
        <pt x="1429" y="178" on="1"/>
        <pt x="1458" y="202" on="1"/>
      </contour>
      <contour>
        <pt x="709" y="-119" on="1"/>
        <pt x="755" y="-145" on="0"/>
        <pt x="819" y="-231" on="0"/>
        <pt x="819" y="-271" on="1"/>
        <pt x="819" y="-315" on="0"/>
        <pt x="729" y="-371" on="0"/>
        <pt x="632" y="-372" on="1"/>
        <pt x="632" y="-485" on="1"/>
        <pt x="653" y="-485" on="1"/>
        <pt x="805" y="-485" on="0"/>
        <pt x="1022" y="-367" on="0"/>
        <pt x="1022" y="-285" on="1"/>
        <pt x="1022" y="-196" on="0"/>
        <pt x="889" y="-119" on="1"/>
        <pt x="889" y="0" on="1"/>
        <pt x="709" y="0" on="1"/>
      </contour>
    </TTGlyph>
    <TTGlyph name="Ccircumflex" xMin="57" yMin="-29" xMax="1456" yMax="2152">
      <component glyphName="C" x="0" y="0" flags="0x1204"/>
      <component glyphName="circumflex" x="257" y="551" flags="0x1004"/>
    </TTGlyph>
    <TTGlyph name="Cdotaccent" xMin="57" yMin="-29" xMax="1456" yMax="2191">
      <component glyphName="C" x="0" y="0" flags="0x1204"/>
      <component glyphName="dotaccent" x="207" y="551" flags="0x1004"/>
    </TTGlyph>
    <TTGlyph name="D" xMin="92" yMin="0" xMax="1744" yMax="1623">
      <contour>
        <pt x="98" y="0" on="1"/>
        <pt x="900" y="0" on="1"/>
        <pt x="1102" y="0" on="0"/>
        <pt x="1428" y="134" on="0"/>
        <pt x="1634" y="361" on="0"/>
        <pt x="1744" y="653" on="0"/>
        <pt x="1744" y="816" on="1"/>
        <pt x="1744" y="1212" on="0"/>
        <pt x="1334" y="1623" on="0"/>
        <pt x="922" y="1623" on="1"/>
        <pt x="92" y="1623" on="1"/>
        <pt x="92" y="1271" on="1"/>
        <pt x="261" y="1271" on="1"/>
        <pt x="261" y="359" on="1"/>
        <pt x="98" y="359" on="1"/>
      </contour>
      <contour>
        <pt x="808" y="359" on="1"/>
        <pt x="808" y="1271" on="1"/>
        <pt x="855" y="1271" on="1"/>
        <pt x="929" y="1271" on="0"/>
        <pt x="1039" y="1214" on="0"/>
        <pt x="1101" y="1127" on="0"/>
        <pt x="1138" y="1001" on="0"/>
        <pt x="1150" y="886" on="0"/>
        <pt x="1150" y="817" on="1"/>
        <pt x="1150" y="750" on="0"/>
        <pt x="1135" y="630" on="0"/>
        <pt x="1093" y="505" on="0"/>
        <pt x="1027" y="416" on="0"/>
        <pt x="916" y="359" on="0"/>
        <pt x="843" y="359" on="1"/>
      </contour>
    </TTGlyph>
    <TTGlyph name="Dcaron" xMin="92" yMin="0" xMax="1744" yMax="2178">
      <component glyphName="D" x="0" y="0" flags="0x1204"/>
      <component glyphName="caron" x="398" y="551" flags="0x1004"/>
    </TTGlyph>
    <TTGlyph name="Dcroat" xMin="92" yMin="0" xMax="1744" yMax="1623">
      <component glyphName="D" x="0" y="0" flags="0x1204"/>
    </TTGlyph>
    <TTGlyph name="Delta" xMin="137" yMin="0" xMax="1220" yMax="1238">
      <contour>
        <pt x="137" y="55" on="1"/>
        <pt x="457" y="1238" on="1"/>
        <pt x="930" y="1238" on="1"/>
        <pt x="1220" y="55" on="1"/>
        <pt x="1220" y="0" on="1"/>
        <pt x="137" y="0" on="1"/>
      </contour>
      <contour>
        <pt x="536" y="205" on="1"/>
        <pt x="916" y="205" on="1"/>
        <pt x="745" y="1080" on="1"/>
      </contour>
    </TTGlyph>
    <TTGlyph name="E" xMin="99" yMin="0" xMax="1378" yMax="1623">
      <contour>
        <pt x="1099" y="968" on="1"/>
        <pt x="1023" y="1270" on="1"/>
        <pt x="810" y="1270" on="1"/>
        <pt x="810" y="988" on="1"/>
        <pt x="1015" y="988" on="1"/>
        <pt x="1015" y="636" on="1"/>
        <pt x="810" y="636" on="1"/>
        <pt x="810" y="359" on="1"/>
        <pt x="1029" y="359" on="1"/>
        <pt x="1042" y="420" on="1"/>
        <pt x="1105" y="687" on="1"/>
        <pt x="1378" y="687" on="1"/>
        <pt x="1378" y="0" on="1"/>
        <pt x="99" y="0" on="1"/>
        <pt x="99" y="359" on="1"/>
        <pt x="257" y="359" on="1"/>
        <pt x="257" y="1270" on="1"/>
        <pt x="99" y="1270" on="1"/>
        <pt x="99" y="1623" on="1"/>
        <pt x="1367" y="1623" on="1"/>
        <pt x="1367" y="969" on="1"/>
      </contour>
    </TTGlyph>
    <TTGlyph name="Eacute" xMin="99" yMin="0" xMax="1378" yMax="2270">
      <contour>
        <pt x="1099" y="968" on="1"/>
        <pt x="1023" y="1270" on="1"/>
        <pt x="810" y="1270" on="1"/>
        <pt x="810" y="988" on="1"/>
        <pt x="1015" y="988" on="1"/>
        <pt x="1015" y="636" on="1"/>
        <pt x="810" y="636" on="1"/>
        <pt x="810" y="359" on="1"/>
        <pt x="1029" y="359" on="1"/>
        <pt x="1042" y="420" on="1"/>
        <pt x="1105" y="687" on="1"/>
        <pt x="1378" y="687" on="1"/>
        <pt x="1378" y="0" on="1"/>
        <pt x="99" y="0" on="1"/>
        <pt x="99" y="359" on="1"/>
        <pt x="257" y="359" on="1"/>
        <pt x="257" y="1270" on="1"/>
        <pt x="99" y="1270" on="1"/>
        <pt x="99" y="1623" on="1"/>
        <pt x="1367" y="1623" on="1"/>
        <pt x="1367" y="969" on="1"/>
      </contour>
      <contour>
        <pt x="1065" y="2005" on="1"/>
        <pt x="511" y="1692" on="1"/>
        <pt x="407" y="1833" on="1"/>
        <pt x="881" y="2270" on="1"/>
      </contour>
    </TTGlyph>
    <TTGlyph name="Ebreve" xMin="99" yMin="0" xMax="1378" yMax="2173">
      <component glyphName="E" x="0" y="0" flags="0x1204"/>
      <component glyphName="breve" x="-24" y="551" flags="0x1004"/>
    </TTGlyph>
    <TTGlyph name="Ecaron" xMin="99" yMin="0" xMax="1378" yMax="2178">
      <component glyphName="E" x="0" y="0" flags="0x1204"/>
      <component glyphName="caron" x="243" y="551" flags="0x1004"/>
    </TTGlyph>
    <TTGlyph name="Ecircumflex" xMin="99" yMin="0" xMax="1378" yMax="2163">
      <contour>
        <pt x="1099" y="968" on="1"/>
        <pt x="1023" y="1270" on="1"/>
        <pt x="810" y="1270" on="1"/>
        <pt x="810" y="988" on="1"/>
        <pt x="1015" y="988" on="1"/>
        <pt x="1015" y="636" on="1"/>
        <pt x="810" y="636" on="1"/>
        <pt x="810" y="359" on="1"/>
        <pt x="1029" y="359" on="1"/>
        <pt x="1042" y="420" on="1"/>
        <pt x="1105" y="687" on="1"/>
        <pt x="1378" y="687" on="1"/>
        <pt x="1378" y="0" on="1"/>
        <pt x="99" y="0" on="1"/>
        <pt x="99" y="359" on="1"/>
        <pt x="257" y="359" on="1"/>
        <pt x="257" y="1270" on="1"/>
        <pt x="99" y="1270" on="1"/>
        <pt x="99" y="1623" on="1"/>
        <pt x="1367" y="1623" on="1"/>
        <pt x="1367" y="969" on="1"/>
      </contour>
      <contour>
        <pt x="871" y="2162" on="1"/>
        <pt x="1145" y="1786" on="1"/>
        <pt x="991" y="1685" on="1"/>
        <pt x="736" y="1930" on="1"/>
        <pt x="481" y="1685" on="1"/>
        <pt x="327" y="1786" on="1"/>
        <pt x="600" y="2163" on="1"/>
      </contour>
    </TTGlyph>
    <TTGlyph name="Edieresis" xMin="99" yMin="0" xMax="1378" yMax="2134">
      <contour>
        <pt x="1367" y="969" on="1"/>
        <pt x="1367" y="1623" on="1"/>
        <pt x="99" y="1623" on="1"/>
        <pt x="99" y="1270" on="1"/>
        <pt x="257" y="1270" on="1"/>
        <pt x="257" y="359" on="1"/>
        <pt x="99" y="359" on="1"/>
        <pt x="99" y="0" on="1"/>
        <pt x="1378" y="0" on="1"/>
        <pt x="1378" y="687" on="1"/>
        <pt x="1105" y="687" on="1"/>
        <pt x="1042" y="420" on="1"/>
        <pt x="1029" y="359" on="1"/>
        <pt x="810" y="359" on="1"/>
        <pt x="810" y="636" on="1"/>
        <pt x="1015" y="636" on="1"/>
        <pt x="1015" y="988" on="1"/>
        <pt x="810" y="988" on="1"/>
        <pt x="810" y="1270" on="1"/>
        <pt x="1023" y="1270" on="1"/>
        <pt x="1099" y="968" on="1"/>
      </contour>
      <contour>
        <pt x="654" y="1904" on="1"/>
        <pt x="654" y="1796" on="0"/>
        <pt x="521" y="1674" on="0"/>
        <pt x="430" y="1674" on="1"/>
        <pt x="337" y="1674" on="0"/>
        <pt x="202" y="1797" on="0"/>
        <pt x="202" y="1907" on="1"/>
        <pt x="202" y="2014" on="0"/>
        <pt x="336" y="2134" on="0"/>
        <pt x="520" y="2134" on="0"/>
        <pt x="654" y="2013" on="0"/>
      </contour>
      <contour>
        <pt x="1271" y="1904" on="1"/>
        <pt x="1271" y="1796" on="0"/>
        <pt x="1138" y="1674" on="0"/>
        <pt x="1047" y="1674" on="1"/>
        <pt x="954" y="1674" on="0"/>
        <pt x="819" y="1797" on="0"/>
        <pt x="819" y="1907" on="1"/>
        <pt x="819" y="2014" on="0"/>
        <pt x="953" y="2134" on="0"/>
        <pt x="1137" y="2134" on="0"/>
        <pt x="1271" y="2013" on="0"/>
      </contour>
    </TTGlyph>
    <TTGlyph name="Edotaccent" xMin="99" yMin="0" xMax="1378" yMax="2191">
      <component glyphName="E" x="0" y="0" flags="0x1204"/>
      <component glyphName="dotaccent" x="183" y="551" flags="0x1004"/>
    </TTGlyph>
    <TTGlyph name="Egrave" xMin="99" yMin="0" xMax="1378" yMax="2270">
      <contour>
        <pt x="1367" y="969" on="1"/>
        <pt x="1367" y="1623" on="1"/>
        <pt x="99" y="1623" on="1"/>
        <pt x="99" y="1270" on="1"/>
        <pt x="257" y="1270" on="1"/>
        <pt x="257" y="359" on="1"/>
        <pt x="99" y="359" on="1"/>
        <pt x="99" y="0" on="1"/>
        <pt x="1378" y="0" on="1"/>
        <pt x="1378" y="687" on="1"/>
        <pt x="1105" y="687" on="1"/>
        <pt x="1042" y="420" on="1"/>
        <pt x="1029" y="359" on="1"/>
        <pt x="810" y="359" on="1"/>
        <pt x="810" y="636" on="1"/>
        <pt x="1015" y="636" on="1"/>
        <pt x="1015" y="988" on="1"/>
        <pt x="810" y="988" on="1"/>
        <pt x="810" y="1270" on="1"/>
        <pt x="1023" y="1270" on="1"/>
        <pt x="1099" y="968" on="1"/>
      </contour>
      <contour>
        <pt x="591" y="2270" on="1"/>
        <pt x="1065" y="1833" on="1"/>
        <pt x="961" y="1692" on="1"/>
        <pt x="407" y="2005" on="1"/>
      </contour>
    </TTGlyph>
    <TTGlyph name="Emacron" xMin="99" yMin="0" xMax="1378" yMax="2069">
      <component glyphName="E" x="0" y="0" flags="0x1204"/>
      <component glyphName="macron#1" x="195" y="551" flags="0x1004"/>
    </TTGlyph>
    <TTGlyph name="Eng" xMin="98" yMin="-677" xMax="1814" yMax="1623">
      <contour>
        <pt x="565" y="-124" on="1"/>
        <pt x="869" y="-124" on="1"/>
        <pt x="872" y="-156" on="1"/>
        <pt x="874" y="-177" on="0"/>
        <pt x="886" y="-220" on="0"/>
        <pt x="912" y="-255" on="0"/>
        <pt x="957" y="-279" on="0"/>
        <pt x="992" y="-282" on="1"/>
        <pt x="1049" y="-282" on="0"/>
        <pt x="1103" y="-185" on="0"/>
        <pt x="1103" y="-75" on="1"/>
        <pt x="1050" y="50" on="1"/>
        <pt x="577" y="908" on="1"/>
        <pt x="577" y="507" on="1"/>
        <pt x="577" y="425" on="0"/>
        <pt x="650" y="359" on="0"/>
        <pt x="735" y="359" on="1"/>
        <pt x="735" y="0" on="1"/>
        <pt x="98" y="0" on="1"/>
        <pt x="98" y="359" on="1"/>
        <pt x="169" y="362" on="0"/>
        <pt x="237" y="400" on="0"/>
        <pt x="248" y="439" on="1"/>
        <pt x="257" y="468" on="0"/>
        <pt x="261" y="512" on="0"/>
        <pt x="261" y="550" on="1"/>
        <pt x="261" y="1272" on="1"/>
        <pt x="104" y="1272" on="1"/>
        <pt x="104" y="1623" on="1"/>
        <pt x="839" y="1623" on="1"/>
        <pt x="1335" y="647" on="1"/>
        <pt x="1335" y="1116" on="1"/>
        <pt x="1335" y="1128" on="0"/>
        <pt x="1335" y="1145" on="0"/>
        <pt x="1334" y="1160" on="0"/>
        <pt x="1332" y="1175" on="0"/>
        <pt x="1330" y="1186" on="1"/>
        <pt x="1327" y="1210" on="0"/>
        <pt x="1317" y="1221" on="1"/>
        <pt x="1303" y="1242" on="0"/>
        <pt x="1237" y="1274" on="0"/>
        <pt x="1177" y="1270" on="1"/>
        <pt x="1177" y="1623" on="1"/>
        <pt x="1814" y="1622" on="1"/>
        <pt x="1814" y="1270" on="1"/>
        <pt x="1729" y="1270" on="0"/>
        <pt x="1656" y="1193" on="0"/>
        <pt x="1656" y="1118" on="1"/>
        <pt x="1656" y="-172" on="1"/>
        <pt x="1656" y="-402" on="0"/>
        <pt x="1525" y="-539" on="1"/>
        <pt x="1394" y="-677" on="0"/>
        <pt x="1160" y="-677" on="1"/>
        <pt x="960" y="-677" on="0"/>
        <pt x="872" y="-568" on="1"/>
        <pt x="835" y="-660" on="1"/>
        <pt x="565" y="-660" on="1"/>
      </contour>
    </TTGlyph>
    <TTGlyph name="Eogonek" xMin="99" yMin="-485" xMax="1378" yMax="1623">
      <component glyphName="E" x="0" y="0" flags="0x1204"/>
      <component glyphName="ogonek" x="460" y="0" flags="0x1004"/>
    </TTGlyph>
    <TTGlyph name="Eth" xMin="93" yMin="0" xMax="1745" yMax="1623">
      <contour>
        <pt x="132" y="952" on="1"/>
        <pt x="132" y="653" on="1"/>
        <pt x="262" y="653" on="1"/>
        <pt x="262" y="351" on="1"/>
        <pt x="99" y="351" on="1"/>
        <pt x="99" y="0" on="1"/>
        <pt x="901" y="0" on="1"/>
        <pt x="1103" y="0" on="0"/>
        <pt x="1429" y="134" on="0"/>
        <pt x="1635" y="361" on="0"/>
        <pt x="1745" y="653" on="0"/>
        <pt x="1745" y="816" on="1"/>
        <pt x="1745" y="1212" on="0"/>
        <pt x="1335" y="1623" on="0"/>
        <pt x="923" y="1623" on="1"/>
        <pt x="93" y="1623" on="1"/>
        <pt x="93" y="1271" on="1"/>
        <pt x="262" y="1271" on="1"/>
        <pt x="262" y="952" on="1"/>
      </contour>
      <contour>
        <pt x="813" y="351" on="1"/>
        <pt x="810" y="653" on="1"/>
        <pt x="895" y="653" on="1"/>
        <pt x="895" y="952" on="1"/>
        <pt x="809" y="952" on="1"/>
        <pt x="809" y="1000" on="0"/>
        <pt x="809" y="1107" on="0"/>
        <pt x="809" y="1237" on="0"/>
        <pt x="809" y="1271" on="1"/>
        <pt x="856" y="1271" on="1"/>
        <pt x="930" y="1271" on="0"/>
        <pt x="1040" y="1214" on="0"/>
        <pt x="1102" y="1127" on="0"/>
        <pt x="1139" y="1001" on="0"/>
        <pt x="1151" y="886" on="0"/>
        <pt x="1151" y="817" on="1"/>
        <pt x="1151" y="750" on="0"/>
        <pt x="1136" y="629" on="0"/>
        <pt x="1094" y="501" on="0"/>
        <pt x="1028" y="410" on="0"/>
        <pt x="917" y="351" on="0"/>
        <pt x="844" y="351" on="1"/>
      </contour>
    </TTGlyph>
    <TTGlyph name="Euro" xMin="65" yMin="-18" xMax="1512" yMax="1652">
      <contour>
        <pt x="65" y="1091" on="1"/>
        <pt x="65" y="867" on="1"/>
        <pt x="153" y="867" on="1"/>
        <pt x="152" y="846" on="0"/>
        <pt x="152" y="762" on="0"/>
        <pt x="153" y="741" on="1"/>
        <pt x="65" y="741" on="1"/>
        <pt x="65" y="517" on="1"/>
        <pt x="185" y="517" on="1"/>
        <pt x="213" y="402" on="0"/>
        <pt x="314" y="214" on="0"/>
        <pt x="464" y="65" on="0"/>
        <pt x="677" y="-18" on="0"/>
        <pt x="806" y="-18" on="1"/>
        <pt x="880" y="-18" on="0"/>
        <pt x="986" y="-8" on="0"/>
        <pt x="1121" y="39" on="0"/>
        <pt x="1166" y="82" on="1"/>
        <pt x="1200" y="11" on="1"/>
        <pt x="1511" y="11" on="1"/>
        <pt x="1512" y="643" on="1"/>
        <pt x="1214" y="643" on="1"/>
        <pt x="1215" y="590" on="0"/>
        <pt x="1191" y="489" on="0"/>
        <pt x="1139" y="399" on="0"/>
        <pt x="1043" y="344" on="0"/>
        <pt x="980" y="344" on="1"/>
        <pt x="846" y="344" on="0"/>
        <pt x="800" y="517" on="1"/>
        <pt x="980" y="517" on="1"/>
        <pt x="980" y="741" on="1"/>
        <pt x="773" y="741" on="1"/>
        <pt x="773" y="804" on="1"/>
        <pt x="773" y="867" on="1"/>
        <pt x="980" y="867" on="1"/>
        <pt x="980" y="1091" on="1"/>
        <pt x="797" y="1091" on="1"/>
        <pt x="843" y="1290" on="0"/>
        <pt x="980" y="1290" on="1"/>
        <pt x="1043" y="1290" on="0"/>
        <pt x="1139" y="1235" on="0"/>
        <pt x="1191" y="1145" on="0"/>
        <pt x="1215" y="1044" on="0"/>
        <pt x="1214" y="991" on="1"/>
        <pt x="1512" y="991" on="1"/>
        <pt x="1511" y="1623" on="1"/>
        <pt x="1200" y="1623" on="1"/>
        <pt x="1166" y="1552" on="1"/>
        <pt x="1121" y="1595" on="0"/>
        <pt x="986" y="1642" on="0"/>
        <pt x="880" y="1652" on="0"/>
        <pt x="806" y="1652" on="1"/>
        <pt x="702" y="1652" on="0"/>
        <pt x="522" y="1593" on="0"/>
        <pt x="386" y="1491" on="0"/>
        <pt x="278" y="1348" on="0"/>
        <pt x="206" y="1185" on="0"/>
        <pt x="184" y="1091" on="1"/>
      </contour>
    </TTGlyph>
    <TTGlyph name="F" xMin="100" yMin="0" xMax="1375" yMax="1623">
      <contour>
        <pt x="1025" y="643" on="1"/>
        <pt x="823" y="643" on="1"/>
        <pt x="823" y="359" on="1"/>
        <pt x="977" y="359" on="1"/>
        <pt x="977" y="0" on="1"/>
        <pt x="100" y="0" on="1"/>
        <pt x="100" y="359" on="1"/>
        <pt x="258" y="359" on="1"/>
        <pt x="258" y="1270" on="1"/>
        <pt x="100" y="1270" on="1"/>
        <pt x="100" y="1623" on="1"/>
        <pt x="1375" y="1623" on="1"/>
        <pt x="1375" y="959" on="1"/>
        <pt x="1091" y="959" on="1"/>
        <pt x="1027" y="1270" on="1"/>
        <pt x="823" y="1270" on="1"/>
        <pt x="823" y="999" on="1"/>
        <pt x="1025" y="999" on="1"/>
      </contour>
    </TTGlyph>
    <TTGlyph name="G" xMin="53" yMin="-29" xMax="1620" yMax="1652">
      <contour>
        <pt x="1344" y="0" on="1"/>
        <pt x="1620" y="0" on="1"/>
        <pt x="1620" y="862" on="1"/>
        <pt x="995" y="862" on="1"/>
        <pt x="995" y="558" on="1"/>
        <pt x="1155" y="557" on="1"/>
        <pt x="1163" y="528" on="0"/>
        <pt x="1163" y="476" on="1"/>
        <pt x="1163" y="403" on="0"/>
        <pt x="1049" y="318" on="0"/>
        <pt x="973" y="318" on="1"/>
        <pt x="658" y="318" on="0"/>
        <pt x="658" y="759" on="1"/>
        <pt x="658" y="822" on="0"/>
        <pt x="666" y="927" on="0"/>
        <pt x="688" y="1054" on="0"/>
        <pt x="733" y="1151" on="0"/>
        <pt x="801" y="1235" on="0"/>
        <pt x="909" y="1280" on="0"/>
        <pt x="979" y="1280" on="1"/>
        <pt x="1042" y="1280" on="0"/>
        <pt x="1137" y="1243" on="0"/>
        <pt x="1194" y="1186" on="0"/>
        <pt x="1234" y="1092" on="0"/>
        <pt x="1253" y="1006" on="0"/>
        <pt x="1260" y="945" on="1"/>
        <pt x="1548" y="945" on="1"/>
        <pt x="1548" y="1623" on="1"/>
        <pt x="1233" y="1623" on="1"/>
        <pt x="1189" y="1561" on="1"/>
        <pt x="1061" y="1652" on="0"/>
        <pt x="856" y="1652" on="1"/>
        <pt x="665" y="1652" on="0"/>
        <pt x="356" y="1516" on="0"/>
        <pt x="158" y="1280" on="0"/>
        <pt x="53" y="970" on="0"/>
        <pt x="53" y="792" on="1"/>
        <pt x="53" y="638" on="0"/>
        <pt x="138" y="374" on="0"/>
        <pt x="292" y="179" on="0"/>
        <pt x="504" y="41" on="0"/>
        <pt x="762" y="-29" on="0"/>
        <pt x="907" y="-29" on="1"/>
        <pt x="1157" y="-29" on="0"/>
        <pt x="1302" y="101" on="1"/>
      </contour>
    </TTGlyph>
    <TTGlyph name="Gbreve" xMin="53" yMin="-29" xMax="1620" yMax="2173">
      <component glyphName="G" x="0" y="0" flags="0x1204"/>
      <component glyphName="breve" x="90" y="551" flags="0x1004"/>
    </TTGlyph>
    <TTGlyph name="Gcircumflex" xMin="53" yMin="-29" xMax="1620" yMax="2152">
      <component glyphName="G" x="0" y="0" flags="0x1204"/>
      <component glyphName="circumflex" x="348" y="551" flags="0x1004"/>
    </TTGlyph>
    <TTGlyph name="Gcommaaccent" xMin="53" yMin="-924" xMax="1620" yMax="1652">
      <component glyphName="G" x="0" y="0" flags="0x1204"/>
      <component glyphName="comma" x="581" y="-476" flags="0x1004"/>
    </TTGlyph>
    <TTGlyph name="Gdotaccent" xMin="53" yMin="-29" xMax="1620" yMax="2191">
      <component glyphName="G" x="0" y="0" flags="0x1204"/>
      <component glyphName="dotaccent" x="298" y="551" flags="0x1004"/>
    </TTGlyph>
    <TTGlyph name="H" xMin="105" yMin="0" xMax="1804" yMax="1623">
      <contour>
        <pt x="105" y="359" on="1"/>
        <pt x="252" y="359" on="1"/>
        <pt x="252" y="1270" on="1"/>
        <pt x="105" y="1270" on="1"/>
        <pt x="105" y="1623" on="1"/>
        <pt x="914" y="1623" on="1"/>
        <pt x="914" y="1270" on="1"/>
        <pt x="819" y="1270" on="1"/>
        <pt x="819" y="986" on="1"/>
        <pt x="1088" y="986" on="1"/>
        <pt x="1088" y="1270" on="1"/>
        <pt x="1000" y="1270" on="1"/>
        <pt x="1000" y="1623" on="1"/>
        <pt x="1798" y="1623" on="1"/>
        <pt x="1798" y="1270" on="1"/>
        <pt x="1657" y="1270" on="1"/>
        <pt x="1657" y="359" on="1"/>
        <pt x="1804" y="359" on="1"/>
        <pt x="1804" y="0" on="1"/>
        <pt x="1004" y="0" on="1"/>
        <pt x="1004" y="359" on="1"/>
        <pt x="1088" y="359" on="1"/>
        <pt x="1088" y="635" on="1"/>
        <pt x="819" y="635" on="1"/>
        <pt x="819" y="359" on="1"/>
        <pt x="915" y="359" on="1"/>
        <pt x="914" y="0" on="1"/>
        <pt x="105" y="0" on="1"/>
      </contour>
    </TTGlyph>
    <TTGlyph name="Hbar" xMin="105" yMin="0" xMax="1804" yMax="1623">
      <contour>
        <pt x="105" y="359" on="1"/>
        <pt x="252" y="359" on="1"/>
        <pt x="252" y="1072" on="1"/>
        <pt x="105" y="1072" on="1"/>
        <pt x="105" y="1172" on="1"/>
        <pt x="252" y="1172" on="1"/>
        <pt x="252" y="1270" on="1"/>
        <pt x="105" y="1270" on="1"/>
        <pt x="105" y="1623" on="1"/>
        <pt x="914" y="1623" on="1"/>
        <pt x="914" y="1270" on="1"/>
        <pt x="819" y="1270" on="1"/>
        <pt x="819" y="1172" on="1"/>
        <pt x="1088" y="1172" on="1"/>
        <pt x="1088" y="1270" on="1"/>
        <pt x="1000" y="1270" on="1"/>
        <pt x="1000" y="1623" on="1"/>
        <pt x="1798" y="1623" on="1"/>
        <pt x="1798" y="1270" on="1"/>
        <pt x="1657" y="1270" on="1"/>
        <pt x="1657" y="1172" on="1"/>
        <pt x="1797" y="1172" on="1"/>
        <pt x="1797" y="1072" on="1"/>
        <pt x="1657" y="1072" on="1"/>
        <pt x="1657" y="359" on="1"/>
        <pt x="1804" y="359" on="1"/>
        <pt x="1804" y="0" on="1"/>
        <pt x="1004" y="0" on="1"/>
        <pt x="1004" y="359" on="1"/>
        <pt x="1088" y="359" on="1"/>
        <pt x="1088" y="635" on="1"/>
        <pt x="819" y="635" on="1"/>
        <pt x="819" y="359" on="1"/>
        <pt x="915" y="359" on="1"/>
        <pt x="914" y="0" on="1"/>
        <pt x="105" y="0" on="1"/>
      </contour>
      <contour>
        <pt x="1088" y="986" on="1"/>
        <pt x="1088" y="1072" on="1"/>
        <pt x="819" y="1072" on="1"/>
        <pt x="819" y="986" on="1"/>
      </contour>
    </TTGlyph>
    <TTGlyph name="Hcircumflex" xMin="105" yMin="0" xMax="1804" yMax="2152">
      <component glyphName="H" x="0" y="0" flags="0x1204"/>
      <component glyphName="circumflex" x="442" y="551" flags="0x1004"/>
    </TTGlyph>
    <TTGlyph name="I" xMin="104" yMin="0" xMax="972" yMax="1623">
      <contour>
        <pt x="972" y="1270" on="1"/>
        <pt x="825" y="1270" on="1"/>
        <pt x="825" y="359" on="1"/>
        <pt x="966" y="359" on="1"/>
        <pt x="966" y="0" on="1"/>
        <pt x="104" y="0" on="1"/>
        <pt x="104" y="359" on="1"/>
        <pt x="251" y="359" on="1"/>
        <pt x="251" y="1270" on="1"/>
        <pt x="108" y="1270" on="1"/>
        <pt x="108" y="1623" on="1"/>
        <pt x="972" y="1623" on="1"/>
      </contour>
    </TTGlyph>
    <TTGlyph name="Iacute" xMin="104" yMin="0" xMax="972" yMax="2270">
      <contour>
        <pt x="972" y="1270" on="1"/>
        <pt x="825" y="1270" on="1"/>
        <pt x="825" y="359" on="1"/>
        <pt x="966" y="359" on="1"/>
        <pt x="966" y="0" on="1"/>
        <pt x="104" y="0" on="1"/>
        <pt x="104" y="359" on="1"/>
        <pt x="251" y="359" on="1"/>
        <pt x="251" y="1270" on="1"/>
        <pt x="108" y="1270" on="1"/>
        <pt x="108" y="1623" on="1"/>
        <pt x="972" y="1623" on="1"/>
      </contour>
      <contour>
        <pt x="869" y="2005" on="1"/>
        <pt x="315" y="1692" on="1"/>
        <pt x="211" y="1833" on="1"/>
        <pt x="685" y="2270" on="1"/>
      </contour>
    </TTGlyph>
    <TTGlyph name="Ibreve" xMin="104" yMin="0" xMax="972" yMax="2173">
      <component glyphName="I" x="0" y="0" flags="0x1204"/>
      <component glyphName="breve" x="-231" y="551" flags="0x1004"/>
    </TTGlyph>
    <TTGlyph name="Icircumflex" xMin="104" yMin="0" xMax="972" yMax="2163">
      <contour>
        <pt x="972" y="1270" on="1"/>
        <pt x="825" y="1270" on="1"/>
        <pt x="825" y="359" on="1"/>
        <pt x="966" y="359" on="1"/>
        <pt x="966" y="0" on="1"/>
        <pt x="104" y="0" on="1"/>
        <pt x="104" y="359" on="1"/>
        <pt x="251" y="359" on="1"/>
        <pt x="251" y="1270" on="1"/>
        <pt x="108" y="1270" on="1"/>
        <pt x="108" y="1623" on="1"/>
        <pt x="972" y="1623" on="1"/>
      </contour>
      <contour>
        <pt x="675" y="2162" on="1"/>
        <pt x="949" y="1786" on="1"/>
        <pt x="795" y="1685" on="1"/>
        <pt x="540" y="1930" on="1"/>
        <pt x="285" y="1685" on="1"/>
        <pt x="131" y="1786" on="1"/>
        <pt x="404" y="2163" on="1"/>
      </contour>
    </TTGlyph>
    <TTGlyph name="Idieresis" xMin="6" yMin="0" xMax="1075" yMax="2134">
      <contour>
        <pt x="972" y="1623" on="1"/>
        <pt x="108" y="1623" on="1"/>
        <pt x="108" y="1270" on="1"/>
        <pt x="251" y="1270" on="1"/>
        <pt x="251" y="359" on="1"/>
        <pt x="104" y="359" on="1"/>
        <pt x="104" y="0" on="1"/>
        <pt x="966" y="0" on="1"/>
        <pt x="966" y="359" on="1"/>
        <pt x="825" y="359" on="1"/>
        <pt x="825" y="1270" on="1"/>
        <pt x="972" y="1270" on="1"/>
      </contour>
      <contour>
        <pt x="458" y="1904" on="1"/>
        <pt x="458" y="1796" on="0"/>
        <pt x="325" y="1674" on="0"/>
        <pt x="234" y="1674" on="1"/>
        <pt x="141" y="1674" on="0"/>
        <pt x="6" y="1797" on="0"/>
        <pt x="6" y="1907" on="1"/>
        <pt x="6" y="2014" on="0"/>
        <pt x="140" y="2134" on="0"/>
        <pt x="324" y="2134" on="0"/>
        <pt x="458" y="2013" on="0"/>
      </contour>
      <contour>
        <pt x="1075" y="1904" on="1"/>
        <pt x="1075" y="1796" on="0"/>
        <pt x="942" y="1674" on="0"/>
        <pt x="851" y="1674" on="1"/>
        <pt x="758" y="1674" on="0"/>
        <pt x="623" y="1797" on="0"/>
        <pt x="623" y="1907" on="1"/>
        <pt x="623" y="2014" on="0"/>
        <pt x="757" y="2134" on="0"/>
        <pt x="941" y="2134" on="0"/>
        <pt x="1075" y="2013" on="0"/>
      </contour>
    </TTGlyph>
    <TTGlyph name="Idotaccent" xMin="104" yMin="0" xMax="972" yMax="2191">
      <component glyphName="I" x="0" y="0" flags="0x1204"/>
      <component glyphName="dotaccent" x="-23" y="551" flags="0x1004"/>
    </TTGlyph>
    <TTGlyph name="Igrave" xMin="104" yMin="0" xMax="972" yMax="2270">
      <contour>
        <pt x="972" y="1623" on="1"/>
        <pt x="108" y="1623" on="1"/>
        <pt x="108" y="1270" on="1"/>
        <pt x="251" y="1270" on="1"/>
        <pt x="251" y="359" on="1"/>
        <pt x="104" y="359" on="1"/>
        <pt x="104" y="0" on="1"/>
        <pt x="966" y="0" on="1"/>
        <pt x="966" y="359" on="1"/>
        <pt x="825" y="359" on="1"/>
        <pt x="825" y="1270" on="1"/>
        <pt x="972" y="1270" on="1"/>
      </contour>
      <contour>
        <pt x="395" y="2270" on="1"/>
        <pt x="869" y="1833" on="1"/>
        <pt x="765" y="1692" on="1"/>
        <pt x="211" y="2005" on="1"/>
      </contour>
    </TTGlyph>
    <TTGlyph name="Imacron" xMin="104" yMin="0" xMax="972" yMax="2069">
      <component glyphName="I" x="0" y="0" flags="0x1204"/>
      <component glyphName="macron#1" x="-11" y="551" flags="0x1004"/>
    </TTGlyph>
    <TTGlyph name="Iogonek" xMin="104" yMin="-485" xMax="972" yMax="1623">
      <component glyphName="I" x="0" y="0" flags="0x1204"/>
      <component glyphName="ogonek" x="54" y="0" flags="0x1004"/>
    </TTGlyph>
    <TTGlyph name="Itilde" xMin="94" yMin="0" xMax="985" yMax="2074">
      <component glyphName="I" x="0" y="0" flags="0x1204"/>
      <component glyphName="tilde" x="-131" y="551" flags="0x1004"/>
    </TTGlyph>
    <TTGlyph name="J" xMin="30" yMin="-30" xMax="1268" yMax="1623">
      <contour>
        <pt x="30" y="-13" on="1"/>
        <pt x="300" y="-13" on="1"/>
        <pt x="337" y="79" on="1"/>
        <pt x="426" y="-30" on="0"/>
        <pt x="625" y="-30" on="1"/>
        <pt x="859" y="-30" on="0"/>
        <pt x="1121" y="245" on="0"/>
        <pt x="1121" y="475" on="1"/>
        <pt x="1121" y="1270" on="1"/>
        <pt x="1268" y="1270" on="1"/>
        <pt x="1268" y="1623" on="1"/>
        <pt x="414" y="1623" on="1"/>
        <pt x="414" y="1270" on="1"/>
        <pt x="568" y="1270" on="1"/>
        <pt x="568" y="572" on="1"/>
        <pt x="568" y="462" on="0"/>
        <pt x="514" y="365" on="0"/>
        <pt x="457" y="365" on="1"/>
        <pt x="432" y="365" on="0"/>
        <pt x="391" y="387" on="0"/>
        <pt x="366" y="417" on="0"/>
        <pt x="348" y="469" on="0"/>
        <pt x="339" y="509" on="0"/>
        <pt x="335" y="573" on="0"/>
        <pt x="334" y="605" on="0"/>
        <pt x="334" y="633" on="1"/>
        <pt x="30" y="633" on="1"/>
      </contour>
    </TTGlyph>
    <TTGlyph name="Jcircumflex" xMin="30" yMin="-30" xMax="1268" yMax="2152">
      <component glyphName="J" x="0" y="0" flags="0x1204"/>
      <component glyphName="circumflex" x="145" y="551" flags="0x1004"/>
    </TTGlyph>
    <TTGlyph name="K" xMin="105" yMin="0" xMax="1763" yMax="1623">
      <contour>
        <pt x="105" y="1622" on="1"/>
        <pt x="926" y="1622" on="1"/>
        <pt x="926" y="1270" on="1"/>
        <pt x="799" y="1270" on="1"/>
        <pt x="799" y="887" on="1"/>
        <pt x="1086" y="1270" on="1"/>
        <pt x="1086" y="1622" on="1"/>
        <pt x="1710" y="1623" on="1"/>
        <pt x="1710" y="1270" on="1"/>
        <pt x="1573" y="1270" on="1"/>
        <pt x="1254" y="864" on="1"/>
        <pt x="1254" y="850" on="1"/>
        <pt x="1332" y="850" on="0"/>
        <pt x="1452" y="826" on="0"/>
        <pt x="1549" y="772" on="0"/>
        <pt x="1600" y="673" on="0"/>
        <pt x="1600" y="602" on="1"/>
        <pt x="1600" y="461" on="1"/>
        <pt x="1600" y="426" on="0"/>
        <pt x="1636" y="359" on="0"/>
        <pt x="1667" y="359" on="1"/>
        <pt x="1757" y="359" on="1"/>
        <pt x="1763" y="0" on="1"/>
        <pt x="1415" y="0" on="1"/>
        <pt x="1079" y="0" on="0"/>
        <pt x="1079" y="307" on="1"/>
        <pt x="1079" y="492" on="1"/>
        <pt x="1079" y="540" on="0"/>
        <pt x="1015" y="640" on="0"/>
        <pt x="969" y="640" on="1"/>
        <pt x="799" y="640" on="1"/>
        <pt x="799" y="359" on="1"/>
        <pt x="926" y="359" on="1"/>
        <pt x="932" y="35" on="1"/>
        <pt x="932" y="0" on="1"/>
        <pt x="105" y="0" on="1"/>
        <pt x="105" y="359" on="1"/>
        <pt x="252" y="359" on="1"/>
        <pt x="252" y="1270" on="1"/>
        <pt x="105" y="1270" on="1"/>
      </contour>
    </TTGlyph>
    <TTGlyph name="Kcommaaccent" xMin="105" yMin="-924" xMax="1763" yMax="1623">
      <component glyphName="K" x="0" y="0" flags="0x1204"/>
      <component glyphName="comma" x="581" y="-476" flags="0x1004"/>
    </TTGlyph>
    <TTGlyph name="L" xMin="104" yMin="0" xMax="1382" yMax="1622">
      <contour>
        <pt x="818" y="359" on="1"/>
        <pt x="1009" y="359" on="1"/>
        <pt x="1096" y="709" on="1"/>
        <pt x="1382" y="709" on="1"/>
        <pt x="1382" y="0" on="1"/>
        <pt x="109" y="0" on="1"/>
        <pt x="108" y="359" on="1"/>
        <pt x="251" y="359" on="1"/>
        <pt x="251" y="1270" on="1"/>
        <pt x="104" y="1270" on="1"/>
        <pt x="104" y="1622" on="1"/>
        <pt x="972" y="1622" on="1"/>
        <pt x="972" y="1270" on="1"/>
        <pt x="818" y="1270" on="1"/>
      </contour>
    </TTGlyph>
    <TTGlyph name="Lacute" xMin="104" yMin="0" xMax="1382" yMax="2259">
      <component glyphName="L" x="0" y="0" flags="0x1204"/>
      <component glyphName="acute" x="188" y="551" flags="0x1004"/>
    </TTGlyph>
    <TTGlyph name="Lcaron" xMin="104" yMin="0" xMax="1528" yMax="2053">
      <component glyphName="L" x="0" y="0" flags="0x1204"/>
      <component glyphName="quoteright" x="907" y="430" flags="0x1004"/>
    </TTGlyph>
    <TTGlyph name="Lcommaaccent" xMin="104" yMin="-924" xMax="1382" yMax="1622">
      <component glyphName="L" x="0" y="0" flags="0x1204"/>
      <component glyphName="comma" x="366" y="-476" flags="0x1004"/>
    </TTGlyph>
    <TTGlyph name="Ldot" xMin="104" yMin="0" xMax="1423" yMax="1622">
      <component glyphName="L" x="0" y="0" flags="0x1204"/>
      <component glyphName="periodcentered" x="799" y="243" flags="0x1004"/>
    </TTGlyph>
    <TTGlyph name="Lslash" xMin="74" yMin="0" xMax="1383" yMax="1622">
      <contour>
        <pt x="819" y="1270" on="1"/>
        <pt x="973" y="1270" on="1"/>
        <pt x="973" y="1622" on="1"/>
        <pt x="105" y="1622" on="1"/>
        <pt x="105" y="1270" on="1"/>
        <pt x="252" y="1270" on="1"/>
        <pt x="252" y="359" on="1"/>
        <pt x="109" y="359" on="1"/>
        <pt x="110" y="0" on="1"/>
        <pt x="1383" y="0" on="1"/>
        <pt x="1383" y="709" on="1"/>
        <pt x="1097" y="709" on="1"/>
        <pt x="1010" y="359" on="1"/>
        <pt x="819" y="359" on="1"/>
      </contour>
      <contour>
        <pt x="74" y="656" on="1"/>
        <pt x="174" y="478" on="1"/>
        <pt x="1042" y="981" on="1"/>
        <pt x="943" y="1160" on="1"/>
      </contour>
    </TTGlyph>
    <TTGlyph name="M" xMin="96" yMin="0" xMax="2308" yMax="1623">
      <contour>
        <pt x="589" y="999" on="1"/>
        <pt x="1005" y="0" on="1"/>
        <pt x="1286" y="0" on="1"/>
        <pt x="1628" y="977" on="1"/>
        <pt x="1628" y="359" on="1"/>
        <pt x="1505" y="359" on="1"/>
        <pt x="1505" y="0" on="1"/>
        <pt x="2308" y="0" on="1"/>
        <pt x="2308" y="359" on="1"/>
        <pt x="2154" y="359" on="1"/>
        <pt x="2154" y="1270" on="1"/>
        <pt x="2301" y="1270" on="1"/>
        <pt x="2301" y="1623" on="1"/>
        <pt x="1517" y="1623" on="1"/>
        <pt x="1241" y="856" on="1"/>
        <pt x="931" y="1623" on="1"/>
        <pt x="96" y="1623" on="1"/>
        <pt x="97" y="1270" on="1"/>
        <pt x="264" y="1270" on="1"/>
        <pt x="264" y="608" on="1"/>
        <pt x="264" y="574" on="0"/>
        <pt x="264" y="541" on="0"/>
        <pt x="261" y="486" on="0"/>
        <pt x="255" y="460" on="0"/>
        <pt x="244" y="420" on="0"/>
        <pt x="228" y="401" on="0"/>
        <pt x="203" y="377" on="0"/>
        <pt x="171" y="367" on="0"/>
        <pt x="127" y="359" on="0"/>
        <pt x="100" y="359" on="1"/>
        <pt x="100" y="0" on="1"/>
        <pt x="751" y="0" on="1"/>
        <pt x="751" y="359" on="1"/>
        <pt x="724" y="359" on="0"/>
        <pt x="680" y="366" on="0"/>
        <pt x="648" y="375" on="0"/>
        <pt x="624" y="395" on="0"/>
        <pt x="608" y="409" on="0"/>
        <pt x="597" y="440" on="0"/>
        <pt x="592" y="457" on="0"/>
        <pt x="589" y="496" on="0"/>
        <pt x="589" y="514" on="0"/>
        <pt x="589" y="535" on="1"/>
      </contour>
    </TTGlyph>
    <TTGlyph name="N" xMin="98" yMin="0" xMax="1814" yMax="1623">
      <contour>
        <pt x="1814" y="1622" on="1"/>
        <pt x="1177" y="1623" on="1"/>
        <pt x="1177" y="1270" on="1"/>
        <pt x="1216" y="1271" on="0"/>
        <pt x="1274" y="1261" on="0"/>
        <pt x="1307" y="1234" on="0"/>
        <pt x="1327" y="1209" on="0"/>
        <pt x="1334" y="1164" on="0"/>
        <pt x="1335" y="1140" on="0"/>
        <pt x="1335" y="1116" on="1"/>
        <pt x="1335" y="647" on="1"/>
        <pt x="839" y="1623" on="1"/>
        <pt x="104" y="1623" on="1"/>
        <pt x="104" y="1272" on="1"/>
        <pt x="261" y="1272" on="1"/>
        <pt x="261" y="550" on="1"/>
        <pt x="261" y="512" on="0"/>
        <pt x="257" y="468" on="0"/>
        <pt x="240" y="411" on="0"/>
        <pt x="207" y="381" on="0"/>
        <pt x="144" y="359" on="0"/>
        <pt x="98" y="359" on="1"/>
        <pt x="98" y="0" on="1"/>
        <pt x="735" y="0" on="1"/>
        <pt x="735" y="359" on="1"/>
        <pt x="650" y="359" on="0"/>
        <pt x="577" y="425" on="0"/>
        <pt x="577" y="507" on="1"/>
        <pt x="577" y="908" on="1"/>
        <pt x="1050" y="0" on="1"/>
        <pt x="1656" y="0" on="1"/>
        <pt x="1656" y="1118" on="1"/>
        <pt x="1656" y="1192" on="0"/>
        <pt x="1729" y="1270" on="0"/>
        <pt x="1814" y="1270" on="1"/>
      </contour>
    </TTGlyph>
    <TTGlyph name="Nacute" xMin="98" yMin="0" xMax="1814" yMax="2259">
      <component glyphName="N" x="0" y="0" flags="0x1204"/>
      <component glyphName="acute" x="415" y="551" flags="0x1004"/>
    </TTGlyph>
    <TTGlyph name="Ncaron" xMin="98" yMin="0" xMax="1814" yMax="2178">
      <component glyphName="N" x="0" y="0" flags="0x1204"/>
      <component glyphName="caron" x="435" y="551" flags="0x1004"/>
    </TTGlyph>
    <TTGlyph name="Ncommaaccent" xMin="98" yMin="-924" xMax="1814" yMax="1623">
      <component glyphName="N" x="0" y="0" flags="0x1204"/>
      <component glyphName="comma" x="581" y="-476" flags="0x1004"/>
    </TTGlyph>
    <TTGlyph name="Ntilde" xMin="98" yMin="0" xMax="1814" yMax="2085">
      <contour>
        <pt x="1814" y="1622" on="1"/>
        <pt x="1177" y="1623" on="1"/>
        <pt x="1177" y="1270" on="1"/>
        <pt x="1216" y="1271" on="0"/>
        <pt x="1274" y="1261" on="0"/>
        <pt x="1307" y="1234" on="0"/>
        <pt x="1327" y="1209" on="0"/>
        <pt x="1334" y="1164" on="0"/>
        <pt x="1335" y="1140" on="0"/>
        <pt x="1335" y="1116" on="1"/>
        <pt x="1335" y="647" on="1"/>
        <pt x="839" y="1623" on="1"/>
        <pt x="104" y="1623" on="1"/>
        <pt x="104" y="1272" on="1"/>
        <pt x="261" y="1272" on="1"/>
        <pt x="261" y="550" on="1"/>
        <pt x="261" y="512" on="0"/>
        <pt x="257" y="468" on="0"/>
        <pt x="240" y="411" on="0"/>
        <pt x="207" y="381" on="0"/>
        <pt x="144" y="359" on="0"/>
        <pt x="98" y="359" on="1"/>
        <pt x="98" y="0" on="1"/>
        <pt x="735" y="0" on="1"/>
        <pt x="735" y="359" on="1"/>
        <pt x="650" y="359" on="0"/>
        <pt x="577" y="425" on="0"/>
        <pt x="577" y="507" on="1"/>
        <pt x="577" y="908" on="1"/>
        <pt x="1050" y="0" on="1"/>
        <pt x="1656" y="0" on="1"/>
        <pt x="1656" y="1118" on="1"/>
        <pt x="1656" y="1192" on="0"/>
        <pt x="1729" y="1270" on="0"/>
        <pt x="1814" y="1270" on="1"/>
      </contour>
      <contour>
        <pt x="1082" y="2085" on="1"/>
        <pt x="1126" y="2085" on="0"/>
        <pt x="1198" y="2047" on="0"/>
        <pt x="1250" y="1978" on="0"/>
        <pt x="1289" y="1910" on="0"/>
        <pt x="1336" y="1820" on="0"/>
        <pt x="1354" y="1794" on="1"/>
        <pt x="1241" y="1720" on="1"/>
        <pt x="1168" y="1790" on="0"/>
        <pt x="1113" y="1828" on="0"/>
        <pt x="1094" y="1828" on="1"/>
        <pt x="1049" y="1828" on="0"/>
        <pt x="925" y="1768" on="0"/>
        <pt x="792" y="1707" on="0"/>
        <pt x="737" y="1707" on="1"/>
        <pt x="692" y="1707" on="0"/>
        <pt x="620" y="1744" on="0"/>
        <pt x="567" y="1813" on="0"/>
        <pt x="529" y="1880" on="0"/>
        <pt x="481" y="1971" on="0"/>
        <pt x="463" y="1997" on="1"/>
        <pt x="577" y="2072" on="1"/>
        <pt x="653" y="1999" on="0"/>
        <pt x="709" y="1960" on="0"/>
        <pt x="727" y="1960" on="1"/>
        <pt x="763" y="1960" on="0"/>
        <pt x="857" y="1999" on="0"/>
        <pt x="935" y="2046" on="0"/>
        <pt x="1037" y="2085" on="0"/>
      </contour>
    </TTGlyph>
    <TTGlyph name="O" xMin="52" yMin="-29" xMax="1692" yMax="1653">
      <contour>
        <pt x="1692" y="808" on="1"/>
        <pt x="1692" y="573" on="0"/>
        <pt x="1477" y="189" on="0"/>
        <pt x="1101" y="-29" on="0"/>
        <pt x="643" y="-29" on="0"/>
        <pt x="267" y="189" on="0"/>
        <pt x="52" y="573" on="0"/>
        <pt x="52" y="808" on="1"/>
        <pt x="52" y="1066" on="0"/>
        <pt x="267" y="1453" on="0"/>
        <pt x="636" y="1653" on="0"/>
        <pt x="1108" y="1653" on="0"/>
        <pt x="1477" y="1453" on="0"/>
        <pt x="1692" y="1066" on="0"/>
      </contour>
      <contour>
        <pt x="872" y="319" on="1"/>
        <pt x="911" y="319" on="0"/>
        <pt x="973" y="345" on="0"/>
        <pt x="1016" y="391" on="0"/>
        <pt x="1048" y="453" on="0"/>
        <pt x="1066" y="526" on="0"/>
        <pt x="1078" y="604" on="0"/>
        <pt x="1081" y="683" on="0"/>
        <pt x="1083" y="759" on="0"/>
        <pt x="1082" y="793" on="1"/>
        <pt x="1082" y="813" on="0"/>
        <pt x="1082" y="823" on="1"/>
        <pt x="1082" y="834" on="0"/>
        <pt x="1082" y="858" on="1"/>
        <pt x="1081" y="894" on="0"/>
        <pt x="1083" y="974" on="0"/>
        <pt x="1074" y="1059" on="0"/>
        <pt x="1061" y="1139" on="0"/>
        <pt x="1029" y="1211" on="0"/>
        <pt x="986" y="1265" on="0"/>
        <pt x="916" y="1296" on="0"/>
        <pt x="872" y="1296" on="1"/>
        <pt x="833" y="1296" on="0"/>
        <pt x="770" y="1272" on="0"/>
        <pt x="728" y="1229" on="0"/>
        <pt x="695" y="1172" on="0"/>
        <pt x="678" y="1105" on="0"/>
        <pt x="665" y="1032" on="0"/>
        <pt x="663" y="959" on="0"/>
        <pt x="660" y="889" on="0"/>
        <pt x="662" y="858" on="1"/>
        <pt x="662" y="834" on="0"/>
        <pt x="662" y="823" on="1"/>
        <pt x="662" y="813" on="0"/>
        <pt x="662" y="793" on="1"/>
        <pt x="663" y="763" on="0"/>
        <pt x="661" y="697" on="0"/>
        <pt x="666" y="626" on="0"/>
        <pt x="672" y="556" on="0"/>
        <pt x="687" y="488" on="0"/>
        <pt x="707" y="428" on="0"/>
        <pt x="739" y="377" on="0"/>
        <pt x="780" y="340" on="0"/>
        <pt x="838" y="319" on="0"/>
      </contour>
    </TTGlyph>
    <TTGlyph name="OE" xMin="56" yMin="0" xMax="2216" yMax="1610">
      <contour>
        <pt x="2216" y="0" on="1"/>
        <pt x="2216" y="687" on="1"/>
        <pt x="1943" y="687" on="1"/>
        <pt x="1880" y="420" on="1"/>
        <pt x="1867" y="350" on="1"/>
        <pt x="1648" y="350" on="1"/>
        <pt x="1648" y="636" on="1"/>
        <pt x="1853" y="636" on="1"/>
        <pt x="1853" y="988" on="1"/>
        <pt x="1648" y="988" on="1"/>
        <pt x="1648" y="1258" on="1"/>
        <pt x="1861" y="1258" on="1"/>
        <pt x="1937" y="956" on="1"/>
        <pt x="2205" y="957" on="1"/>
        <pt x="2205" y="1610" on="1"/>
        <pt x="890" y="1610" on="1"/>
        <pt x="644" y="1610" on="0"/>
        <pt x="263" y="1403" on="0"/>
        <pt x="56" y="1031" on="0"/>
        <pt x="56" y="793" on="1"/>
        <pt x="57" y="433" on="0"/>
        <pt x="514" y="0" on="0"/>
        <pt x="896" y="0" on="1"/>
      </contour>
      <contour>
        <pt x="673" y="755" on="1"/>
        <pt x="673" y="775" on="0"/>
        <pt x="673" y="817" on="1"/>
        <pt x="670" y="870" on="0"/>
        <pt x="675" y="977" on="0"/>
        <pt x="682" y="1075" on="0"/>
        <pt x="711" y="1159" on="0"/>
        <pt x="755" y="1221" on="0"/>
        <pt x="833" y="1257" on="0"/>
        <pt x="885" y="1257" on="1"/>
        <pt x="1095" y="1257" on="1"/>
        <pt x="1095" y="350" on="1"/>
        <pt x="896" y="350" on="1"/>
        <pt x="852" y="350" on="0"/>
        <pt x="783" y="374" on="0"/>
        <pt x="737" y="412" on="0"/>
        <pt x="704" y="477" on="0"/>
        <pt x="686" y="539" on="0"/>
        <pt x="676" y="630" on="0"/>
        <pt x="673" y="703" on="0"/>
      </contour>
    </TTGlyph>
    <TTGlyph name="Oacute" xMin="52" yMin="-29" xMax="1692" yMax="2270">
      <contour>
        <pt x="1692" y="808" on="1"/>
        <pt x="1692" y="573" on="0"/>
        <pt x="1477" y="189" on="0"/>
        <pt x="1101" y="-29" on="0"/>
        <pt x="643" y="-29" on="0"/>
        <pt x="267" y="189" on="0"/>
        <pt x="52" y="573" on="0"/>
        <pt x="52" y="808" on="1"/>
        <pt x="52" y="1066" on="0"/>
        <pt x="267" y="1453" on="0"/>
        <pt x="636" y="1653" on="0"/>
        <pt x="1108" y="1653" on="0"/>
        <pt x="1477" y="1453" on="0"/>
        <pt x="1692" y="1066" on="0"/>
      </contour>
      <contour>
        <pt x="872" y="319" on="1"/>
        <pt x="911" y="319" on="0"/>
        <pt x="973" y="345" on="0"/>
        <pt x="1016" y="391" on="0"/>
        <pt x="1048" y="453" on="0"/>
        <pt x="1066" y="526" on="0"/>
        <pt x="1078" y="604" on="0"/>
        <pt x="1081" y="683" on="0"/>
        <pt x="1083" y="759" on="0"/>
        <pt x="1082" y="793" on="1"/>
        <pt x="1082" y="813" on="0"/>
        <pt x="1082" y="823" on="1"/>
        <pt x="1082" y="834" on="0"/>
        <pt x="1082" y="858" on="1"/>
        <pt x="1081" y="894" on="0"/>
        <pt x="1083" y="974" on="0"/>
        <pt x="1074" y="1059" on="0"/>
        <pt x="1061" y="1139" on="0"/>
        <pt x="1029" y="1211" on="0"/>
        <pt x="986" y="1265" on="0"/>
        <pt x="916" y="1296" on="0"/>
        <pt x="872" y="1296" on="1"/>
        <pt x="833" y="1296" on="0"/>
        <pt x="770" y="1272" on="0"/>
        <pt x="728" y="1229" on="0"/>
        <pt x="695" y="1172" on="0"/>
        <pt x="678" y="1105" on="0"/>
        <pt x="665" y="1032" on="0"/>
        <pt x="663" y="959" on="0"/>
        <pt x="660" y="889" on="0"/>
        <pt x="662" y="858" on="1"/>
        <pt x="662" y="834" on="0"/>
        <pt x="662" y="823" on="1"/>
        <pt x="662" y="813" on="0"/>
        <pt x="662" y="793" on="1"/>
        <pt x="663" y="763" on="0"/>
        <pt x="661" y="697" on="0"/>
        <pt x="666" y="626" on="0"/>
        <pt x="672" y="556" on="0"/>
        <pt x="687" y="488" on="0"/>
        <pt x="707" y="428" on="0"/>
        <pt x="739" y="377" on="0"/>
        <pt x="780" y="340" on="0"/>
        <pt x="838" y="319" on="0"/>
      </contour>
      <contour>
        <pt x="1015" y="2270" on="1"/>
        <pt x="541" y="1833" on="1"/>
        <pt x="645" y="1692" on="1"/>
        <pt x="1199" y="2005" on="1"/>
      </contour>
    </TTGlyph>
    <TTGlyph name="Obreve" xMin="52" yMin="-29" xMax="1692" yMax="2173">
      <component glyphName="O" x="0" y="0" flags="0x1204"/>
      <component glyphName="breve" x="102" y="551" flags="0x1004"/>
    </TTGlyph>
    <TTGlyph name="Ocircumflex" xMin="52" yMin="-29" xMax="1692" yMax="2163">
      <contour>
        <pt x="1692" y="808" on="1"/>
        <pt x="1692" y="573" on="0"/>
        <pt x="1477" y="189" on="0"/>
        <pt x="1101" y="-29" on="0"/>
        <pt x="643" y="-29" on="0"/>
        <pt x="267" y="189" on="0"/>
        <pt x="52" y="573" on="0"/>
        <pt x="52" y="808" on="1"/>
        <pt x="52" y="1066" on="0"/>
        <pt x="267" y="1453" on="0"/>
        <pt x="636" y="1653" on="0"/>
        <pt x="1108" y="1653" on="0"/>
        <pt x="1477" y="1453" on="0"/>
        <pt x="1692" y="1066" on="0"/>
      </contour>
      <contour>
        <pt x="872" y="319" on="1"/>
        <pt x="911" y="319" on="0"/>
        <pt x="973" y="345" on="0"/>
        <pt x="1016" y="391" on="0"/>
        <pt x="1048" y="453" on="0"/>
        <pt x="1066" y="526" on="0"/>
        <pt x="1078" y="604" on="0"/>
        <pt x="1081" y="683" on="0"/>
        <pt x="1083" y="759" on="0"/>
        <pt x="1082" y="793" on="1"/>
        <pt x="1082" y="813" on="0"/>
        <pt x="1082" y="823" on="1"/>
        <pt x="1082" y="834" on="0"/>
        <pt x="1082" y="858" on="1"/>
        <pt x="1081" y="894" on="0"/>
        <pt x="1083" y="974" on="0"/>
        <pt x="1074" y="1059" on="0"/>
        <pt x="1061" y="1139" on="0"/>
        <pt x="1029" y="1211" on="0"/>
        <pt x="986" y="1265" on="0"/>
        <pt x="916" y="1296" on="0"/>
        <pt x="872" y="1296" on="1"/>
        <pt x="833" y="1296" on="0"/>
        <pt x="770" y="1272" on="0"/>
        <pt x="728" y="1229" on="0"/>
        <pt x="695" y="1172" on="0"/>
        <pt x="678" y="1105" on="0"/>
        <pt x="665" y="1032" on="0"/>
        <pt x="663" y="959" on="0"/>
        <pt x="660" y="889" on="0"/>
        <pt x="662" y="858" on="1"/>
        <pt x="662" y="834" on="0"/>
        <pt x="662" y="823" on="1"/>
        <pt x="662" y="813" on="0"/>
        <pt x="662" y="793" on="1"/>
        <pt x="663" y="763" on="0"/>
        <pt x="661" y="697" on="0"/>
        <pt x="666" y="626" on="0"/>
        <pt x="672" y="556" on="0"/>
        <pt x="687" y="488" on="0"/>
        <pt x="707" y="428" on="0"/>
        <pt x="739" y="377" on="0"/>
        <pt x="780" y="340" on="0"/>
        <pt x="838" y="319" on="0"/>
      </contour>
      <contour>
        <pt x="734" y="2163" on="1"/>
        <pt x="461" y="1786" on="1"/>
        <pt x="615" y="1685" on="1"/>
        <pt x="870" y="1930" on="1"/>
        <pt x="1125" y="1685" on="1"/>
        <pt x="1279" y="1786" on="1"/>
        <pt x="1005" y="2162" on="1"/>
      </contour>
    </TTGlyph>
    <TTGlyph name="Odieresis" xMin="52" yMin="-29" xMax="1692" yMax="2134">
      <contour>
        <pt x="1692" y="808" on="1"/>
        <pt x="1692" y="573" on="0"/>
        <pt x="1477" y="189" on="0"/>
        <pt x="1101" y="-29" on="0"/>
        <pt x="643" y="-29" on="0"/>
        <pt x="267" y="189" on="0"/>
        <pt x="52" y="573" on="0"/>
        <pt x="52" y="808" on="1"/>
        <pt x="52" y="1066" on="0"/>
        <pt x="267" y="1453" on="0"/>
        <pt x="636" y="1653" on="0"/>
        <pt x="1108" y="1653" on="0"/>
        <pt x="1477" y="1453" on="0"/>
        <pt x="1692" y="1066" on="0"/>
      </contour>
      <contour>
        <pt x="872" y="319" on="1"/>
        <pt x="911" y="319" on="0"/>
        <pt x="973" y="345" on="0"/>
        <pt x="1016" y="391" on="0"/>
        <pt x="1048" y="453" on="0"/>
        <pt x="1066" y="526" on="0"/>
        <pt x="1078" y="604" on="0"/>
        <pt x="1081" y="683" on="0"/>
        <pt x="1083" y="759" on="0"/>
        <pt x="1082" y="793" on="1"/>
        <pt x="1082" y="813" on="0"/>
        <pt x="1082" y="823" on="1"/>
        <pt x="1082" y="834" on="0"/>
        <pt x="1082" y="858" on="1"/>
        <pt x="1081" y="894" on="0"/>
        <pt x="1083" y="974" on="0"/>
        <pt x="1074" y="1059" on="0"/>
        <pt x="1061" y="1139" on="0"/>
        <pt x="1029" y="1211" on="0"/>
        <pt x="986" y="1265" on="0"/>
        <pt x="916" y="1296" on="0"/>
        <pt x="872" y="1296" on="1"/>
        <pt x="833" y="1296" on="0"/>
        <pt x="770" y="1272" on="0"/>
        <pt x="728" y="1229" on="0"/>
        <pt x="695" y="1172" on="0"/>
        <pt x="678" y="1105" on="0"/>
        <pt x="665" y="1032" on="0"/>
        <pt x="663" y="959" on="0"/>
        <pt x="660" y="889" on="0"/>
        <pt x="662" y="858" on="1"/>
        <pt x="662" y="834" on="0"/>
        <pt x="662" y="823" on="1"/>
        <pt x="662" y="813" on="0"/>
        <pt x="662" y="793" on="1"/>
        <pt x="663" y="763" on="0"/>
        <pt x="661" y="697" on="0"/>
        <pt x="666" y="626" on="0"/>
        <pt x="672" y="556" on="0"/>
        <pt x="687" y="488" on="0"/>
        <pt x="707" y="428" on="0"/>
        <pt x="739" y="377" on="0"/>
        <pt x="780" y="340" on="0"/>
        <pt x="838" y="319" on="0"/>
      </contour>
      <contour>
        <pt x="788" y="1904" on="1"/>
        <pt x="788" y="1796" on="0"/>
        <pt x="655" y="1674" on="0"/>
        <pt x="564" y="1674" on="1"/>
        <pt x="471" y="1674" on="0"/>
        <pt x="336" y="1797" on="0"/>
        <pt x="336" y="1907" on="1"/>
        <pt x="336" y="2014" on="0"/>
        <pt x="470" y="2134" on="0"/>
        <pt x="654" y="2134" on="0"/>
        <pt x="788" y="2013" on="0"/>
      </contour>
      <contour>
        <pt x="1405" y="1904" on="1"/>
        <pt x="1405" y="1796" on="0"/>
        <pt x="1272" y="1674" on="0"/>
        <pt x="1181" y="1674" on="1"/>
        <pt x="1088" y="1674" on="0"/>
        <pt x="953" y="1797" on="0"/>
        <pt x="953" y="1907" on="1"/>
        <pt x="953" y="2014" on="0"/>
        <pt x="1087" y="2134" on="0"/>
        <pt x="1271" y="2134" on="0"/>
        <pt x="1405" y="2013" on="0"/>
      </contour>
    </TTGlyph>
    <TTGlyph name="Ograve" xMin="52" yMin="-29" xMax="1692" yMax="2270">
      <contour>
        <pt x="1692" y="808" on="1"/>
        <pt x="1692" y="573" on="0"/>
        <pt x="1477" y="189" on="0"/>
        <pt x="1101" y="-29" on="0"/>
        <pt x="643" y="-29" on="0"/>
        <pt x="267" y="189" on="0"/>
        <pt x="52" y="573" on="0"/>
        <pt x="52" y="808" on="1"/>
        <pt x="52" y="1066" on="0"/>
        <pt x="267" y="1453" on="0"/>
        <pt x="636" y="1653" on="0"/>
        <pt x="1108" y="1653" on="0"/>
        <pt x="1477" y="1453" on="0"/>
        <pt x="1692" y="1066" on="0"/>
      </contour>
      <contour>
        <pt x="872" y="319" on="1"/>
        <pt x="911" y="319" on="0"/>
        <pt x="973" y="345" on="0"/>
        <pt x="1016" y="391" on="0"/>
        <pt x="1048" y="453" on="0"/>
        <pt x="1066" y="526" on="0"/>
        <pt x="1078" y="604" on="0"/>
        <pt x="1081" y="683" on="0"/>
        <pt x="1083" y="759" on="0"/>
        <pt x="1082" y="793" on="1"/>
        <pt x="1082" y="813" on="0"/>
        <pt x="1082" y="823" on="1"/>
        <pt x="1082" y="834" on="0"/>
        <pt x="1082" y="858" on="1"/>
        <pt x="1081" y="894" on="0"/>
        <pt x="1083" y="974" on="0"/>
        <pt x="1074" y="1059" on="0"/>
        <pt x="1061" y="1139" on="0"/>
        <pt x="1029" y="1211" on="0"/>
        <pt x="986" y="1265" on="0"/>
        <pt x="916" y="1296" on="0"/>
        <pt x="872" y="1296" on="1"/>
        <pt x="833" y="1296" on="0"/>
        <pt x="770" y="1272" on="0"/>
        <pt x="728" y="1229" on="0"/>
        <pt x="695" y="1172" on="0"/>
        <pt x="678" y="1105" on="0"/>
        <pt x="665" y="1032" on="0"/>
        <pt x="663" y="959" on="0"/>
        <pt x="660" y="889" on="0"/>
        <pt x="662" y="858" on="1"/>
        <pt x="662" y="834" on="0"/>
        <pt x="662" y="823" on="1"/>
        <pt x="662" y="813" on="0"/>
        <pt x="662" y="793" on="1"/>
        <pt x="663" y="763" on="0"/>
        <pt x="661" y="697" on="0"/>
        <pt x="666" y="626" on="0"/>
        <pt x="672" y="556" on="0"/>
        <pt x="687" y="488" on="0"/>
        <pt x="707" y="428" on="0"/>
        <pt x="739" y="377" on="0"/>
        <pt x="780" y="340" on="0"/>
        <pt x="838" y="319" on="0"/>
      </contour>
      <contour>
        <pt x="725" y="2270" on="1"/>
        <pt x="1199" y="1833" on="1"/>
        <pt x="1095" y="1692" on="1"/>
        <pt x="541" y="2005" on="1"/>
      </contour>
    </TTGlyph>
    <TTGlyph name="Ohungarumlaut" xMin="52" yMin="-29" xMax="1692" yMax="2365">
      <component glyphName="O" x="0" y="0" flags="0x1204"/>
      <component glyphName="hungarumlaut" x="35" y="551" flags="0x1004"/>
    </TTGlyph>
    <TTGlyph name="Omacron" xMin="52" yMin="-29" xMax="1692" yMax="2069">
      <component glyphName="O" x="0" y="0" flags="0x1204"/>
      <component glyphName="macron#1" x="322" y="551" flags="0x1004"/>
    </TTGlyph>
    <TTGlyph name="Omega" xMin="131" yMin="0" xMax="1495" yMax="1653">
      <contour>
        <pt x="736" y="1418" on="0"/>
        <pt x="890" y="1418" on="0"/>
        <pt x="1002" y="1347" on="0"/>
        <pt x="1064" y="1220" on="0"/>
        <pt x="1093" y="1067" on="0"/>
        <pt x="1093" y="973" on="1"/>
        <pt x="1093" y="798" on="0"/>
        <pt x="1053" y="540" on="0"/>
        <pt x="995" y="422" on="0"/>
        <pt x="937" y="355" on="0"/>
        <pt x="917" y="351" on="1"/>
        <pt x="897" y="347" on="1"/>
        <pt x="897" y="0" on="1"/>
        <pt x="1449" y="0" on="1"/>
        <pt x="1449" y="312" on="1"/>
        <pt x="1208" y="312" on="1"/>
        <pt x="1345" y="441" on="0"/>
        <pt x="1495" y="782" on="0"/>
        <pt x="1495" y="952" on="1"/>
        <pt x="1495" y="1065" on="0"/>
        <pt x="1444" y="1269" on="0"/>
        <pt x="1335" y="1448" on="0"/>
        <pt x="1177" y="1578" on="0"/>
        <pt x="950" y="1653" on="0"/>
        <pt x="676" y="1653" on="0"/>
        <pt x="449" y="1578" on="0"/>
        <pt x="291" y="1448" on="0"/>
        <pt x="182" y="1269" on="0"/>
        <pt x="131" y="1065" on="0"/>
        <pt x="131" y="952" on="1"/>
        <pt x="131" y="782" on="0"/>
        <pt x="281" y="441" on="0"/>
        <pt x="418" y="312" on="1"/>
        <pt x="177" y="312" on="1"/>
        <pt x="177" y="0" on="1"/>
        <pt x="729" y="0" on="1"/>
        <pt x="729" y="347" on="1"/>
        <pt x="721" y="347" on="0"/>
        <pt x="695" y="354" on="0"/>
        <pt x="627" y="422" on="0"/>
        <pt x="575" y="540" on="0"/>
        <pt x="533" y="798" on="0"/>
        <pt x="533" y="973" on="1"/>
        <pt x="533" y="1067" on="0"/>
        <pt x="562" y="1220" on="0"/>
        <pt x="624" y="1347" on="0"/>
      </contour>
    </TTGlyph>
    <TTGlyph name="Oslash" xMin="51" yMin="-194" xMax="1691" yMax="1804">
      <contour>
        <pt x="567" y="-155" on="1"/>
        <pt x="605" y="12" on="1"/>
        <pt x="356" y="94" on="0"/>
        <pt x="51" y="525" on="0"/>
        <pt x="51" y="808" on="1"/>
        <pt x="51" y="1066" on="0"/>
        <pt x="266" y="1453" on="0"/>
        <pt x="635" y="1653" on="0"/>
        <pt x="871" y="1653" on="1"/>
        <pt x="919" y="1653" on="0"/>
        <pt x="982" y="1646" on="1"/>
        <pt x="1019" y="1804" on="1"/>
        <pt x="1172" y="1774" on="1"/>
        <pt x="1136" y="1616" on="1"/>
        <pt x="1390" y="1541" on="0"/>
        <pt x="1691" y="1118" on="0"/>
        <pt x="1691" y="808" on="1"/>
        <pt x="1691" y="573" on="0"/>
        <pt x="1476" y="189" on="0"/>
        <pt x="1100" y="-29" on="0"/>
        <pt x="871" y="-29" on="1"/>
        <pt x="818" y="-29" on="0"/>
        <pt x="767" y="-23" on="1"/>
        <pt x="729" y="-194" on="1"/>
      </contour>
      <contour>
        <pt x="871" y="1296" on="1"/>
        <pt x="832" y="1296" on="0"/>
        <pt x="769" y="1272" on="0"/>
        <pt x="727" y="1229" on="0"/>
        <pt x="694" y="1172" on="0"/>
        <pt x="677" y="1105" on="0"/>
        <pt x="664" y="1032" on="0"/>
        <pt x="662" y="959" on="0"/>
        <pt x="659" y="889" on="0"/>
        <pt x="661" y="858" on="1"/>
        <pt x="661" y="834" on="0"/>
        <pt x="661" y="823" on="1"/>
        <pt x="661" y="822" on="0"/>
        <pt x="661" y="730" on="0"/>
        <pt x="661" y="706" on="0"/>
        <pt x="663" y="622" on="0"/>
        <pt x="669" y="580" on="0"/>
        <pt x="678" y="513" on="0"/>
        <pt x="693" y="461" on="0"/>
        <pt x="703" y="438" on="1"/>
        <pt x="901" y="1294" on="1"/>
        <pt x="881" y="1296" on="0"/>
      </contour>
      <contour>
        <pt x="871" y="319" on="1"/>
        <pt x="910" y="319" on="0"/>
        <pt x="972" y="345" on="0"/>
        <pt x="1015" y="391" on="0"/>
        <pt x="1047" y="453" on="0"/>
        <pt x="1065" y="526" on="0"/>
        <pt x="1077" y="604" on="0"/>
        <pt x="1080" y="683" on="0"/>
        <pt x="1082" y="759" on="0"/>
        <pt x="1081" y="793" on="1"/>
        <pt x="1081" y="813" on="0"/>
        <pt x="1081" y="823" on="1"/>
        <pt x="1081" y="830" on="0"/>
        <pt x="1082" y="904" on="0"/>
        <pt x="1081" y="936" on="0"/>
        <pt x="1079" y="1007" on="0"/>
        <pt x="1073" y="1052" on="0"/>
        <pt x="1064" y="1112" on="0"/>
        <pt x="1049" y="1163" on="0"/>
        <pt x="1039" y="1185" on="1"/>
        <pt x="845" y="320" on="1"/>
        <pt x="853" y="319" on="0"/>
      </contour>
    </TTGlyph>
    <TTGlyph name="Oslashacute" xMin="51" yMin="-194" xMax="1691" yMax="2259">
      <component glyphName="Oslash" x="0" y="0" flags="0x1004"/>
      <component glyphName="acute" x="350" y="551" flags="0x1004"/>
    </TTGlyph>
    <TTGlyph name="Otilde" xMin="52" yMin="-29" xMax="1692" yMax="2085">
      <contour>
        <pt x="1692" y="808" on="1"/>
        <pt x="1692" y="573" on="0"/>
        <pt x="1477" y="189" on="0"/>
        <pt x="1101" y="-29" on="0"/>
        <pt x="643" y="-29" on="0"/>
        <pt x="267" y="189" on="0"/>
        <pt x="52" y="573" on="0"/>
        <pt x="52" y="808" on="1"/>
        <pt x="52" y="1066" on="0"/>
        <pt x="267" y="1453" on="0"/>
        <pt x="636" y="1653" on="0"/>
        <pt x="1108" y="1653" on="0"/>
        <pt x="1477" y="1453" on="0"/>
        <pt x="1692" y="1066" on="0"/>
      </contour>
      <contour>
        <pt x="872" y="319" on="1"/>
        <pt x="911" y="319" on="0"/>
        <pt x="973" y="345" on="0"/>
        <pt x="1016" y="391" on="0"/>
        <pt x="1048" y="453" on="0"/>
        <pt x="1066" y="526" on="0"/>
        <pt x="1078" y="604" on="0"/>
        <pt x="1081" y="683" on="0"/>
        <pt x="1083" y="759" on="0"/>
        <pt x="1082" y="793" on="1"/>
        <pt x="1082" y="813" on="0"/>
        <pt x="1082" y="823" on="1"/>
        <pt x="1082" y="834" on="0"/>
        <pt x="1082" y="858" on="1"/>
        <pt x="1081" y="894" on="0"/>
        <pt x="1083" y="974" on="0"/>
        <pt x="1074" y="1059" on="0"/>
        <pt x="1061" y="1139" on="0"/>
        <pt x="1029" y="1211" on="0"/>
        <pt x="986" y="1265" on="0"/>
        <pt x="916" y="1296" on="0"/>
        <pt x="872" y="1296" on="1"/>
        <pt x="833" y="1296" on="0"/>
        <pt x="770" y="1272" on="0"/>
        <pt x="728" y="1229" on="0"/>
        <pt x="695" y="1172" on="0"/>
        <pt x="678" y="1105" on="0"/>
        <pt x="665" y="1032" on="0"/>
        <pt x="663" y="959" on="0"/>
        <pt x="660" y="889" on="0"/>
        <pt x="662" y="858" on="1"/>
        <pt x="662" y="834" on="0"/>
        <pt x="662" y="823" on="1"/>
        <pt x="662" y="813" on="0"/>
        <pt x="662" y="793" on="1"/>
        <pt x="663" y="763" on="0"/>
        <pt x="661" y="697" on="0"/>
        <pt x="666" y="626" on="0"/>
        <pt x="672" y="556" on="0"/>
        <pt x="687" y="488" on="0"/>
        <pt x="707" y="428" on="0"/>
        <pt x="739" y="377" on="0"/>
        <pt x="780" y="340" on="0"/>
        <pt x="838" y="319" on="0"/>
      </contour>
      <contour>
        <pt x="1044" y="2085" on="1"/>
        <pt x="1088" y="2085" on="0"/>
        <pt x="1160" y="2047" on="0"/>
        <pt x="1212" y="1978" on="0"/>
        <pt x="1251" y="1910" on="0"/>
        <pt x="1298" y="1820" on="0"/>
        <pt x="1316" y="1794" on="1"/>
        <pt x="1203" y="1720" on="1"/>
        <pt x="1130" y="1790" on="0"/>
        <pt x="1075" y="1828" on="0"/>
        <pt x="1056" y="1828" on="1"/>
        <pt x="1011" y="1828" on="0"/>
        <pt x="887" y="1768" on="0"/>
        <pt x="754" y="1707" on="0"/>
        <pt x="699" y="1707" on="1"/>
        <pt x="654" y="1707" on="0"/>
        <pt x="582" y="1744" on="0"/>
        <pt x="529" y="1813" on="0"/>
        <pt x="491" y="1880" on="0"/>
        <pt x="443" y="1971" on="0"/>
        <pt x="425" y="1997" on="1"/>
        <pt x="539" y="2072" on="1"/>
        <pt x="615" y="1999" on="0"/>
        <pt x="671" y="1960" on="0"/>
        <pt x="689" y="1960" on="1"/>
        <pt x="725" y="1960" on="0"/>
        <pt x="819" y="1999" on="0"/>
        <pt x="897" y="2046" on="0"/>
        <pt x="999" y="2085" on="0"/>
      </contour>
    </TTGlyph>
    <TTGlyph name="P" xMin="99" yMin="0" xMax="1624" yMax="1623">
      <contour>
        <pt x="99" y="0" on="1"/>
        <pt x="960" y="0" on="1"/>
        <pt x="960" y="359" on="1"/>
        <pt x="814" y="359" on="1"/>
        <pt x="814" y="569" on="1"/>
        <pt x="893" y="559" on="0"/>
        <pt x="964" y="559" on="1"/>
        <pt x="1117" y="559" on="0"/>
        <pt x="1354" y="617" on="0"/>
        <pt x="1533" y="743" on="0"/>
        <pt x="1626" y="958" on="0"/>
        <pt x="1624" y="1106" on="1"/>
        <pt x="1623" y="1191" on="0"/>
        <pt x="1592" y="1331" on="0"/>
        <pt x="1538" y="1432" on="0"/>
        <pt x="1462" y="1512" on="0"/>
        <pt x="1370" y="1562" on="0"/>
        <pt x="1263" y="1598" on="0"/>
        <pt x="1145" y="1613" on="0"/>
        <pt x="1020" y="1624" on="0"/>
        <pt x="890" y="1622" on="0"/>
        <pt x="825" y="1623" on="1"/>
        <pt x="809" y="1623" on="0"/>
        <pt x="792" y="1623" on="0"/>
        <pt x="766" y="1623" on="0"/>
        <pt x="755" y="1623" on="1"/>
        <pt x="104" y="1623" on="1"/>
        <pt x="104" y="1270" on="1"/>
        <pt x="255" y="1270" on="1"/>
        <pt x="255" y="359" on="1"/>
        <pt x="99" y="359" on="1"/>
      </contour>
      <contour>
        <pt x="814" y="1270" on="1"/>
        <pt x="898" y="1270" on="1"/>
        <pt x="976" y="1270" on="0"/>
        <pt x="1082" y="1186" on="0"/>
        <pt x="1082" y="1096" on="1"/>
        <pt x="1082" y="895" on="0"/>
        <pt x="855" y="895" on="1"/>
        <pt x="814" y="895" on="1"/>
      </contour>
    </TTGlyph>
    <TTGlyph name="Q" xMin="53" yMin="-30" xMax="1744" yMax="1652">
      <contour>
        <pt x="893" y="-30" on="1"/>
        <pt x="933" y="-30" on="0"/>
        <pt x="1009" y="-22" on="1"/>
        <pt x="1260" y="0" on="1"/>
        <pt x="1744" y="0" on="1"/>
        <pt x="1744" y="359" on="1"/>
        <pt x="1581" y="359" on="1"/>
        <pt x="1702" y="562" on="0"/>
        <pt x="1702" y="807" on="1"/>
        <pt x="1702" y="1001" on="0"/>
        <pt x="1579" y="1321" on="0"/>
        <pt x="1362" y="1535" on="0"/>
        <pt x="1063" y="1652" on="0"/>
        <pt x="887" y="1652" on="1"/>
        <pt x="641" y="1652" on="0"/>
        <pt x="260" y="1440" on="0"/>
        <pt x="53" y="1059" on="0"/>
        <pt x="53" y="815" on="1"/>
        <pt x="53" y="565" on="0"/>
        <pt x="259" y="182" on="0"/>
        <pt x="641" y="-30" on="0"/>
      </contour>
      <contour>
        <pt x="670" y="777" on="1"/>
        <pt x="670" y="839" on="0"/>
        <pt x="670" y="952" on="0"/>
        <pt x="678" y="1053" on="0"/>
        <pt x="693" y="1137" on="0"/>
        <pt x="723" y="1204" on="0"/>
        <pt x="769" y="1250" on="0"/>
        <pt x="837" y="1275" on="0"/>
        <pt x="882" y="1275" on="1"/>
        <pt x="933" y="1275" on="0"/>
        <pt x="1008" y="1238" on="0"/>
        <pt x="1052" y="1158" on="0"/>
        <pt x="1079" y="1085" on="0"/>
        <pt x="1090" y="959" on="0"/>
        <pt x="1092" y="887" on="0"/>
        <pt x="1092" y="822" on="1"/>
        <pt x="1092" y="807" on="0"/>
        <pt x="1092" y="775" on="1"/>
        <pt x="1095" y="732" on="0"/>
        <pt x="1090" y="634" on="0"/>
        <pt x="1084" y="537" on="0"/>
        <pt x="1057" y="447" on="0"/>
        <pt x="1016" y="379" on="0"/>
        <pt x="942" y="338" on="0"/>
        <pt x="893" y="338" on="1"/>
        <pt x="854" y="338" on="0"/>
        <pt x="792" y="356" on="0"/>
        <pt x="747" y="394" on="0"/>
        <pt x="714" y="438" on="0"/>
        <pt x="693" y="507" on="0"/>
        <pt x="679" y="568" on="0"/>
        <pt x="673" y="658" on="0"/>
        <pt x="670" y="726" on="0"/>
      </contour>
    </TTGlyph>
    <TTGlyph name="R" xMin="101" yMin="-1" xMax="1727" yMax="1623">
      <contour>
        <pt x="912" y="359" on="1"/>
        <pt x="791" y="359" on="1"/>
        <pt x="791" y="694" on="1"/>
        <pt x="889" y="694" on="1"/>
        <pt x="949" y="694" on="0"/>
        <pt x="1025" y="660" on="0"/>
        <pt x="1062" y="589" on="0"/>
        <pt x="1075" y="510" on="0"/>
        <pt x="1075" y="451" on="1"/>
        <pt x="1075" y="256" on="1"/>
        <pt x="1075" y="215" on="0"/>
        <pt x="1091" y="146" on="0"/>
        <pt x="1115" y="96" on="0"/>
        <pt x="1158" y="57" on="0"/>
        <pt x="1197" y="32" on="0"/>
        <pt x="1260" y="14" on="0"/>
        <pt x="1306" y="5" on="0"/>
        <pt x="1381" y="1" on="0"/>
        <pt x="1426" y="0" on="0"/>
        <pt x="1465" y="0" on="1"/>
        <pt x="1727" y="0" on="1"/>
        <pt x="1727" y="359" on="1"/>
        <pt x="1671" y="359" on="0"/>
        <pt x="1604" y="372" on="0"/>
        <pt x="1572" y="403" on="0"/>
        <pt x="1563" y="437" on="0"/>
        <pt x="1563" y="466" on="1"/>
        <pt x="1563" y="559" on="1"/>
        <pt x="1563" y="651" on="0"/>
        <pt x="1435" y="773" on="0"/>
        <pt x="1286" y="807" on="1"/>
        <pt x="1458" y="839" on="0"/>
        <pt x="1645" y="1025" on="0"/>
        <pt x="1645" y="1170" on="1"/>
        <pt x="1645" y="1293" on="0"/>
        <pt x="1571" y="1470" on="0"/>
        <pt x="1428" y="1575" on="0"/>
        <pt x="1239" y="1623" on="0"/>
        <pt x="1116" y="1623" on="1"/>
        <pt x="101" y="1623" on="1"/>
        <pt x="101" y="1270" on="1"/>
        <pt x="256" y="1270" on="1"/>
        <pt x="256" y="359" on="1"/>
        <pt x="102" y="359" on="1"/>
        <pt x="102" y="-1" on="1"/>
        <pt x="648" y="0" on="0"/>
        <pt x="912" y="0" on="1"/>
      </contour>
      <contour>
        <pt x="785" y="920" on="1"/>
        <pt x="785" y="1270" on="1"/>
        <pt x="906" y="1270" on="1"/>
        <pt x="995" y="1270" on="0"/>
        <pt x="1096" y="1175" on="0"/>
        <pt x="1096" y="1096" on="1"/>
        <pt x="1096" y="1046" on="0"/>
        <pt x="1054" y="974" on="0"/>
        <pt x="980" y="936" on="0"/>
        <pt x="897" y="920" on="0"/>
        <pt x="846" y="920" on="1"/>
      </contour>
    </TTGlyph>
    <TTGlyph name="Racute" xMin="101" yMin="-1" xMax="1727" yMax="2259">
      <component glyphName="R" x="0" y="0" flags="0x1204"/>
      <component glyphName="acute" x="360" y="551" flags="0x1004"/>
    </TTGlyph>
    <TTGlyph name="Rcaron" xMin="101" yMin="-1" xMax="1727" yMax="2178">
      <component glyphName="R" x="0" y="0" flags="0x1204"/>
      <component glyphName="caron" x="380" y="551" flags="0x1004"/>
    </TTGlyph>
    <TTGlyph name="Rcommaaccent" xMin="101" yMin="-924" xMax="1727" yMax="1623">
      <component glyphName="R" x="0" y="0" flags="0x1204"/>
      <component glyphName="comma" x="581" y="-476" flags="0x1004"/>
    </TTGlyph>
    <TTGlyph name="S" xMin="74" yMin="-29" xMax="1276" yMax="1653">
      <contour>
        <pt x="874" y="1623" on="1"/>
        <pt x="846" y="1575" on="0"/>
        <pt x="842" y="1563" on="1"/>
        <pt x="723" y="1653" on="0"/>
        <pt x="530" y="1653" on="1"/>
        <pt x="307" y="1653" on="0"/>
        <pt x="74" y="1371" on="0"/>
        <pt x="74" y="1133" on="1"/>
        <pt x="74" y="1067" on="0"/>
        <pt x="93" y="953" on="0"/>
        <pt x="125" y="861" on="0"/>
        <pt x="177" y="780" on="0"/>
        <pt x="235" y="718" on="0"/>
        <pt x="315" y="662" on="0"/>
        <pt x="392" y="621" on="0"/>
        <pt x="494" y="581" on="0"/>
        <pt x="584" y="552" on="0"/>
        <pt x="643" y="535" on="1"/>
        <pt x="680" y="525" on="0"/>
        <pt x="730" y="503" on="0"/>
        <pt x="774" y="454" on="0"/>
        <pt x="774" y="420" on="1"/>
        <pt x="774" y="379" on="0"/>
        <pt x="709" y="334" on="0"/>
        <pt x="665" y="334" on="1"/>
        <pt x="592" y="334" on="0"/>
        <pt x="458" y="445" on="0"/>
        <pt x="432" y="518" on="1"/>
        <pt x="110" y="518" on="1"/>
        <pt x="110" y="0" on="1"/>
        <pt x="433" y="0" on="1"/>
        <pt x="469" y="92" on="1"/>
        <pt x="547" y="26" on="0"/>
        <pt x="690" y="-29" on="0"/>
        <pt x="798" y="-29" on="1"/>
        <pt x="903" y="-29" on="0"/>
        <pt x="1086" y="62" on="0"/>
        <pt x="1209" y="212" on="0"/>
        <pt x="1278" y="406" on="0"/>
        <pt x="1276" y="508" on="1"/>
        <pt x="1274" y="612" on="0"/>
        <pt x="1221" y="781" on="0"/>
        <pt x="1135" y="894" on="0"/>
        <pt x="1025" y="981" on="0"/>
        <pt x="904" y="1034" on="0"/>
        <pt x="783" y="1076" on="0"/>
        <pt x="674" y="1107" on="0"/>
        <pt x="590" y="1139" on="0"/>
        <pt x="541" y="1183" on="0"/>
        <pt x="541" y="1213" on="1"/>
        <pt x="541" y="1259" on="0"/>
        <pt x="591" y="1305" on="0"/>
        <pt x="635" y="1305" on="1"/>
        <pt x="710" y="1305" on="0"/>
        <pt x="834" y="1185" on="0"/>
        <pt x="852" y="1107" on="1"/>
        <pt x="1159" y="1107" on="1"/>
        <pt x="1159" y="1623" on="1"/>
      </contour>
    </TTGlyph>
    <TTGlyph name="Sacute" xMin="74" yMin="-29" xMax="1276" yMax="2259">
      <component glyphName="S" x="0" y="0" flags="0x1204"/>
      <component glyphName="acute" x="142" y="551" flags="0x1004"/>
    </TTGlyph>
    <TTGlyph name="Scaron" xMin="74" yMin="-29" xMax="1276" yMax="2189">
      <contour>
        <pt x="874" y="1623" on="1"/>
        <pt x="846" y="1575" on="0"/>
        <pt x="842" y="1563" on="1"/>
        <pt x="723" y="1653" on="0"/>
        <pt x="530" y="1653" on="1"/>
        <pt x="307" y="1653" on="0"/>
        <pt x="74" y="1371" on="0"/>
        <pt x="74" y="1133" on="1"/>
        <pt x="74" y="1067" on="0"/>
        <pt x="93" y="953" on="0"/>
        <pt x="125" y="861" on="0"/>
        <pt x="177" y="780" on="0"/>
        <pt x="235" y="718" on="0"/>
        <pt x="315" y="662" on="0"/>
        <pt x="392" y="621" on="0"/>
        <pt x="494" y="581" on="0"/>
        <pt x="584" y="552" on="0"/>
        <pt x="643" y="535" on="1"/>
        <pt x="680" y="525" on="0"/>
        <pt x="730" y="503" on="0"/>
        <pt x="774" y="454" on="0"/>
        <pt x="774" y="420" on="1"/>
        <pt x="774" y="379" on="0"/>
        <pt x="709" y="334" on="0"/>
        <pt x="665" y="334" on="1"/>
        <pt x="592" y="334" on="0"/>
        <pt x="458" y="445" on="0"/>
        <pt x="432" y="518" on="1"/>
        <pt x="110" y="518" on="1"/>
        <pt x="110" y="0" on="1"/>
        <pt x="433" y="0" on="1"/>
        <pt x="469" y="92" on="1"/>
        <pt x="547" y="26" on="0"/>
        <pt x="690" y="-29" on="0"/>
        <pt x="798" y="-29" on="1"/>
        <pt x="903" y="-29" on="0"/>
        <pt x="1086" y="62" on="0"/>
        <pt x="1209" y="212" on="0"/>
        <pt x="1278" y="406" on="0"/>
        <pt x="1276" y="508" on="1"/>
        <pt x="1274" y="612" on="0"/>
        <pt x="1221" y="781" on="0"/>
        <pt x="1135" y="894" on="0"/>
        <pt x="1025" y="981" on="0"/>
        <pt x="904" y="1034" on="0"/>
        <pt x="783" y="1076" on="0"/>
        <pt x="674" y="1107" on="0"/>
        <pt x="590" y="1139" on="0"/>
        <pt x="541" y="1183" on="0"/>
        <pt x="541" y="1213" on="1"/>
        <pt x="541" y="1259" on="0"/>
        <pt x="591" y="1305" on="0"/>
        <pt x="635" y="1305" on="1"/>
        <pt x="710" y="1305" on="0"/>
        <pt x="834" y="1185" on="0"/>
        <pt x="852" y="1107" on="1"/>
        <pt x="1159" y="1107" on="1"/>
        <pt x="1159" y="1623" on="1"/>
      </contour>
      <contour>
        <pt x="535" y="1711" on="1"/>
        <pt x="262" y="2088" on="1"/>
        <pt x="416" y="2189" on="1"/>
        <pt x="671" y="1944" on="1"/>
        <pt x="926" y="2189" on="1"/>
        <pt x="1080" y="2088" on="1"/>
        <pt x="806" y="1712" on="1"/>
      </contour>
    </TTGlyph>
    <TTGlyph name="Scedilla" xMin="74" yMin="-485" xMax="1276" yMax="1653">
      <component glyphName="S" x="0" y="0" flags="0x1204"/>
      <component glyphName="cedilla" x="399" y="0" flags="0x1004"/>
    </TTGlyph>
    <TTGlyph name="Scircumflex" xMin="74" yMin="-29" xMax="1276" yMax="2152">
      <component glyphName="S" x="0" y="0" flags="0x1204"/>
      <component glyphName="circumflex" x="152" y="551" flags="0x1004"/>
    </TTGlyph>
    <TTGlyph name="Scommaaccent" xMin="74" yMin="-899" xMax="1276" yMax="1653">
      <contour>
        <pt x="874" y="1623" on="1"/>
        <pt x="846" y="1575" on="0"/>
        <pt x="842" y="1563" on="1"/>
        <pt x="723" y="1653" on="0"/>
        <pt x="530" y="1653" on="1"/>
        <pt x="307" y="1653" on="0"/>
        <pt x="74" y="1371" on="0"/>
        <pt x="74" y="1133" on="1"/>
        <pt x="74" y="1067" on="0"/>
        <pt x="93" y="953" on="0"/>
        <pt x="125" y="861" on="0"/>
        <pt x="177" y="780" on="0"/>
        <pt x="235" y="718" on="0"/>
        <pt x="315" y="662" on="0"/>
        <pt x="392" y="621" on="0"/>
        <pt x="494" y="581" on="0"/>
        <pt x="584" y="552" on="0"/>
        <pt x="643" y="535" on="1"/>
        <pt x="680" y="525" on="0"/>
        <pt x="730" y="503" on="0"/>
        <pt x="774" y="454" on="0"/>
        <pt x="774" y="420" on="1"/>
        <pt x="774" y="379" on="0"/>
        <pt x="709" y="334" on="0"/>
        <pt x="665" y="334" on="1"/>
        <pt x="592" y="334" on="0"/>
        <pt x="458" y="445" on="0"/>
        <pt x="432" y="518" on="1"/>
        <pt x="110" y="518" on="1"/>
        <pt x="110" y="0" on="1"/>
        <pt x="433" y="0" on="1"/>
        <pt x="469" y="92" on="1"/>
        <pt x="547" y="26" on="0"/>
        <pt x="690" y="-29" on="0"/>
        <pt x="798" y="-29" on="1"/>
        <pt x="903" y="-29" on="0"/>
        <pt x="1086" y="62" on="0"/>
        <pt x="1209" y="212" on="0"/>
        <pt x="1278" y="406" on="0"/>
        <pt x="1276" y="508" on="1"/>
        <pt x="1274" y="612" on="0"/>
        <pt x="1221" y="781" on="0"/>
        <pt x="1135" y="894" on="0"/>
        <pt x="1025" y="981" on="0"/>
        <pt x="904" y="1034" on="0"/>
        <pt x="783" y="1076" on="0"/>
        <pt x="674" y="1107" on="0"/>
        <pt x="590" y="1139" on="0"/>
        <pt x="541" y="1183" on="0"/>
        <pt x="541" y="1213" on="1"/>
        <pt x="541" y="1259" on="0"/>
        <pt x="591" y="1305" on="0"/>
        <pt x="635" y="1305" on="1"/>
        <pt x="710" y="1305" on="0"/>
        <pt x="834" y="1185" on="0"/>
        <pt x="852" y="1107" on="1"/>
        <pt x="1159" y="1107" on="1"/>
        <pt x="1159" y="1623" on="1"/>
      </contour>
      <contour>
        <pt x="416" y="-899" on="1"/>
        <pt x="690" y="-899" on="0"/>
        <pt x="950" y="-640" on="0"/>
        <pt x="950" y="-362" on="1"/>
        <pt x="950" y="-240" on="0"/>
        <pt x="926" y="-85" on="1"/>
        <pt x="416" y="-85" on="1"/>
        <pt x="416" y="-451" on="1"/>
        <pt x="605" y="-451" on="1"/>
        <pt x="605" y="-493" on="0"/>
        <pt x="603" y="-538" on="0"/>
        <pt x="592" y="-598" on="0"/>
        <pt x="568" y="-630" on="0"/>
        <pt x="527" y="-661" on="0"/>
        <pt x="461" y="-674" on="0"/>
        <pt x="416" y="-674" on="1"/>
      </contour>
    </TTGlyph>
    <TTGlyph name="Sigma" xMin="73" yMin="0" xMax="1352" yMax="1623">
      <contour>
        <pt x="754" y="350" on="1"/>
        <pt x="1003" y="350" on="1"/>
        <pt x="1016" y="420" on="1"/>
        <pt x="1079" y="687" on="1"/>
        <pt x="1352" y="687" on="1"/>
        <pt x="1352" y="0" on="1"/>
        <pt x="73" y="0" on="1"/>
        <pt x="73" y="348" on="1"/>
        <pt x="231" y="348" on="1"/>
        <pt x="419" y="833" on="1"/>
        <pt x="231" y="1270" on="1"/>
        <pt x="73" y="1270" on="1"/>
        <pt x="73" y="1623" on="1"/>
        <pt x="1341" y="1623" on="1"/>
        <pt x="1341" y="969" on="1"/>
        <pt x="1073" y="968" on="1"/>
        <pt x="997" y="1270" on="1"/>
        <pt x="754" y="1270" on="1"/>
        <pt x="935" y="833" on="1"/>
      </contour>
    </TTGlyph>
    <TTGlyph name="T" xMin="39" yMin="0" xMax="1496" yMax="1622">
      <contour>
        <pt x="1215" y="965" on="1"/>
        <pt x="1153" y="1270" on="1"/>
        <pt x="1047" y="1270" on="1"/>
        <pt x="1047" y="360" on="1"/>
        <pt x="1211" y="360" on="1"/>
        <pt x="1211" y="0" on="1"/>
        <pt x="320" y="0" on="1"/>
        <pt x="320" y="360" on="1"/>
        <pt x="484" y="360" on="1"/>
        <pt x="484" y="1270" on="1"/>
        <pt x="384" y="1270" on="1"/>
        <pt x="320" y="965" on="1"/>
        <pt x="39" y="965" on="1"/>
        <pt x="39" y="1622" on="1"/>
        <pt x="1496" y="1622" on="1"/>
        <pt x="1496" y="965" on="1"/>
      </contour>
    </TTGlyph>
    <TTGlyph name="Tbar" xMin="39" yMin="0" xMax="1496" yMax="1622">
      <contour>
        <pt x="1215" y="965" on="1"/>
        <pt x="1153" y="1270" on="1"/>
        <pt x="1047" y="1270" on="1"/>
        <pt x="1047" y="855" on="1"/>
        <pt x="1141" y="855" on="1"/>
        <pt x="1141" y="640" on="1"/>
        <pt x="1047" y="640" on="1"/>
        <pt x="1047" y="360" on="1"/>
        <pt x="1211" y="360" on="1"/>
        <pt x="1211" y="0" on="1"/>
        <pt x="320" y="0" on="1"/>
        <pt x="320" y="360" on="1"/>
        <pt x="484" y="360" on="1"/>
        <pt x="484" y="640" on="1"/>
        <pt x="393" y="640" on="1"/>
        <pt x="393" y="855" on="1"/>
        <pt x="484" y="855" on="1"/>
        <pt x="484" y="1270" on="1"/>
        <pt x="384" y="1270" on="1"/>
        <pt x="320" y="965" on="1"/>
        <pt x="39" y="965" on="1"/>
        <pt x="39" y="1622" on="1"/>
        <pt x="1496" y="1622" on="1"/>
        <pt x="1496" y="965" on="1"/>
      </contour>
    </TTGlyph>
    <TTGlyph name="Tcaron" xMin="39" yMin="0" xMax="1496" yMax="2178">
      <component glyphName="T" x="0" y="0" flags="0x1204"/>
      <component glyphName="caron" x="265" y="551" flags="0x1004"/>
    </TTGlyph>
    <TTGlyph name="Tcommaaccent" xMin="37" yMin="-899" xMax="1494" yMax="1622">
      <contour>
        <pt x="1213" y="965" on="1"/>
        <pt x="1151" y="1270" on="1"/>
        <pt x="1045" y="1270" on="1"/>
        <pt x="1045" y="360" on="1"/>
        <pt x="1209" y="360" on="1"/>
        <pt x="1209" y="0" on="1"/>
        <pt x="318" y="0" on="1"/>
        <pt x="318" y="360" on="1"/>
        <pt x="482" y="360" on="1"/>
        <pt x="482" y="1270" on="1"/>
        <pt x="382" y="1270" on="1"/>
        <pt x="318" y="965" on="1"/>
        <pt x="37" y="965" on="1"/>
        <pt x="37" y="1622" on="1"/>
        <pt x="1494" y="1622" on="1"/>
        <pt x="1494" y="965" on="1"/>
      </contour>
      <contour>
        <pt x="372" y="-674" on="1"/>
        <pt x="417" y="-674" on="0"/>
        <pt x="483" y="-661" on="0"/>
        <pt x="524" y="-630" on="0"/>
        <pt x="548" y="-598" on="0"/>
        <pt x="559" y="-538" on="0"/>
        <pt x="561" y="-493" on="0"/>
        <pt x="561" y="-451" on="1"/>
        <pt x="372" y="-451" on="1"/>
        <pt x="372" y="-85" on="1"/>
        <pt x="882" y="-85" on="1"/>
        <pt x="906" y="-239" on="0"/>
        <pt x="906" y="-362" on="1"/>
        <pt x="906" y="-640" on="0"/>
        <pt x="646" y="-899" on="0"/>
        <pt x="372" y="-899" on="1"/>
      </contour>
    </TTGlyph>
    <TTGlyph name="Thorn" xMin="90" yMin="0" xMax="1615" yMax="1843">
      <contour>
        <pt x="90" y="0" on="1"/>
        <pt x="951" y="0" on="1"/>
        <pt x="951" y="363" on="1"/>
        <pt x="805" y="363" on="1"/>
        <pt x="805" y="569" on="1"/>
        <pt x="884" y="559" on="0"/>
        <pt x="955" y="559" on="1"/>
        <pt x="1107" y="559" on="0"/>
        <pt x="1344" y="616" on="0"/>
        <pt x="1521" y="735" on="0"/>
        <pt x="1615" y="932" on="0"/>
        <pt x="1615" y="1066" on="1"/>
        <pt x="1615" y="1139" on="0"/>
        <pt x="1584" y="1261" on="0"/>
        <pt x="1533" y="1352" on="0"/>
        <pt x="1451" y="1425" on="0"/>
        <pt x="1364" y="1474" on="0"/>
        <pt x="1245" y="1510" on="0"/>
        <pt x="1136" y="1530" on="0"/>
        <pt x="994" y="1541" on="0"/>
        <pt x="878" y="1543" on="0"/>
        <pt x="804" y="1543" on="1"/>
        <pt x="805" y="1843" on="1"/>
        <pt x="95" y="1843" on="1"/>
        <pt x="95" y="1488" on="1"/>
        <pt x="246" y="1488" on="1"/>
        <pt x="246" y="363" on="1"/>
        <pt x="90" y="363" on="1"/>
      </contour>
      <contour>
        <pt x="805" y="1208" on="1"/>
        <pt x="909" y="1208" on="1"/>
        <pt x="986" y="1208" on="0"/>
        <pt x="1093" y="1132" on="0"/>
        <pt x="1093" y="1056" on="1"/>
        <pt x="1093" y="970" on="0"/>
        <pt x="976" y="895" on="0"/>
        <pt x="866" y="895" on="1"/>
        <pt x="805" y="895" on="1"/>
      </contour>
    </TTGlyph>
    <TTGlyph name="U" xMin="43" yMin="-29" xMax="1639" yMax="1622">
      <contour>
        <pt x="1485" y="1270" on="1"/>
        <pt x="1639" y="1270" on="1"/>
        <pt x="1639" y="1622" on="1"/>
        <pt x="985" y="1622" on="1"/>
        <pt x="985" y="1270" on="1"/>
        <pt x="1149" y="1270" on="1"/>
        <pt x="1149" y="536" on="1"/>
        <pt x="1149" y="448" on="0"/>
        <pt x="1045" y="346" on="0"/>
        <pt x="953" y="346" on="1"/>
        <pt x="901" y="346" on="0"/>
        <pt x="824" y="390" on="0"/>
        <pt x="783" y="465" on="0"/>
        <pt x="764" y="551" on="0"/>
        <pt x="764" y="600" on="1"/>
        <pt x="764" y="1270" on="1"/>
        <pt x="912" y="1270" on="1"/>
        <pt x="912" y="1622" on="1"/>
        <pt x="43" y="1622" on="1"/>
        <pt x="43" y="1270" on="1"/>
        <pt x="204" y="1270" on="1"/>
        <pt x="204" y="704" on="1"/>
        <pt x="204" y="616" on="0"/>
        <pt x="219" y="466" on="0"/>
        <pt x="258" y="314" on="0"/>
        <pt x="320" y="192" on="0"/>
        <pt x="418" y="84" on="0"/>
        <pt x="547" y="12" on="0"/>
        <pt x="725" y="-29" on="0"/>
        <pt x="834" y="-29" on="1"/>
        <pt x="1005" y="-29" on="0"/>
        <pt x="1301" y="107" on="0"/>
        <pt x="1485" y="362" on="0"/>
        <pt x="1485" y="520" on="1"/>
      </contour>
    </TTGlyph>
    <TTGlyph name="Uacute" xMin="43" yMin="-29" xMax="1639" yMax="2270">
      <contour>
        <pt x="1485" y="1270" on="1"/>
        <pt x="1639" y="1270" on="1"/>
        <pt x="1639" y="1622" on="1"/>
        <pt x="985" y="1622" on="1"/>
        <pt x="985" y="1270" on="1"/>
        <pt x="1149" y="1270" on="1"/>
        <pt x="1149" y="536" on="1"/>
        <pt x="1149" y="448" on="0"/>
        <pt x="1045" y="346" on="0"/>
        <pt x="953" y="346" on="1"/>
        <pt x="901" y="346" on="0"/>
        <pt x="824" y="390" on="0"/>
        <pt x="783" y="465" on="0"/>
        <pt x="764" y="551" on="0"/>
        <pt x="764" y="600" on="1"/>
        <pt x="764" y="1270" on="1"/>
        <pt x="912" y="1270" on="1"/>
        <pt x="912" y="1622" on="1"/>
        <pt x="43" y="1622" on="1"/>
        <pt x="43" y="1270" on="1"/>
        <pt x="204" y="1270" on="1"/>
        <pt x="204" y="704" on="1"/>
        <pt x="204" y="616" on="0"/>
        <pt x="219" y="466" on="0"/>
        <pt x="258" y="314" on="0"/>
        <pt x="320" y="192" on="0"/>
        <pt x="418" y="84" on="0"/>
        <pt x="547" y="12" on="0"/>
        <pt x="725" y="-29" on="0"/>
        <pt x="834" y="-29" on="1"/>
        <pt x="1005" y="-29" on="0"/>
        <pt x="1301" y="107" on="0"/>
        <pt x="1485" y="362" on="0"/>
        <pt x="1485" y="520" on="1"/>
      </contour>
      <contour>
        <pt x="986" y="2270" on="1"/>
        <pt x="512" y="1833" on="1"/>
        <pt x="616" y="1692" on="1"/>
        <pt x="1170" y="2005" on="1"/>
      </contour>
    </TTGlyph>
    <TTGlyph name="Ubreve" xMin="43" yMin="-29" xMax="1639" yMax="2173">
      <component glyphName="U" x="0" y="0" flags="0x1204"/>
      <component glyphName="breve" x="71" y="551" flags="0x1004"/>
    </TTGlyph>
    <TTGlyph name="Ucircumflex" xMin="43" yMin="-29" xMax="1639" yMax="2163">
      <contour>
        <pt x="1485" y="1270" on="1"/>
        <pt x="1639" y="1270" on="1"/>
        <pt x="1639" y="1622" on="1"/>
        <pt x="985" y="1622" on="1"/>
        <pt x="985" y="1270" on="1"/>
        <pt x="1149" y="1270" on="1"/>
        <pt x="1149" y="536" on="1"/>
        <pt x="1149" y="448" on="0"/>
        <pt x="1045" y="346" on="0"/>
        <pt x="953" y="346" on="1"/>
        <pt x="901" y="346" on="0"/>
        <pt x="824" y="390" on="0"/>
        <pt x="783" y="465" on="0"/>
        <pt x="764" y="551" on="0"/>
        <pt x="764" y="600" on="1"/>
        <pt x="764" y="1270" on="1"/>
        <pt x="912" y="1270" on="1"/>
        <pt x="912" y="1622" on="1"/>
        <pt x="43" y="1622" on="1"/>
        <pt x="43" y="1270" on="1"/>
        <pt x="204" y="1270" on="1"/>
        <pt x="204" y="704" on="1"/>
        <pt x="204" y="616" on="0"/>
        <pt x="219" y="466" on="0"/>
        <pt x="258" y="314" on="0"/>
        <pt x="320" y="192" on="0"/>
        <pt x="418" y="84" on="0"/>
        <pt x="547" y="12" on="0"/>
        <pt x="725" y="-29" on="0"/>
        <pt x="834" y="-29" on="1"/>
        <pt x="1005" y="-29" on="0"/>
        <pt x="1301" y="107" on="0"/>
        <pt x="1485" y="362" on="0"/>
        <pt x="1485" y="520" on="1"/>
      </contour>
      <contour>
        <pt x="705" y="2163" on="1"/>
        <pt x="432" y="1786" on="1"/>
        <pt x="586" y="1685" on="1"/>
        <pt x="841" y="1930" on="1"/>
        <pt x="1096" y="1685" on="1"/>
        <pt x="1250" y="1786" on="1"/>
        <pt x="976" y="2162" on="1"/>
      </contour>
    </TTGlyph>
    <TTGlyph name="Udieresis" xMin="43" yMin="-29" xMax="1639" yMax="2134">
      <contour>
        <pt x="1485" y="1270" on="1"/>
        <pt x="1639" y="1270" on="1"/>
        <pt x="1639" y="1622" on="1"/>
        <pt x="985" y="1622" on="1"/>
        <pt x="985" y="1270" on="1"/>
        <pt x="1149" y="1270" on="1"/>
        <pt x="1149" y="536" on="1"/>
        <pt x="1149" y="448" on="0"/>
        <pt x="1045" y="346" on="0"/>
        <pt x="953" y="346" on="1"/>
        <pt x="901" y="346" on="0"/>
        <pt x="824" y="390" on="0"/>
        <pt x="783" y="465" on="0"/>
        <pt x="764" y="551" on="0"/>
        <pt x="764" y="600" on="1"/>
        <pt x="764" y="1270" on="1"/>
        <pt x="912" y="1270" on="1"/>
        <pt x="912" y="1622" on="1"/>
        <pt x="43" y="1622" on="1"/>
        <pt x="43" y="1270" on="1"/>
        <pt x="204" y="1270" on="1"/>
        <pt x="204" y="704" on="1"/>
        <pt x="204" y="616" on="0"/>
        <pt x="219" y="466" on="0"/>
        <pt x="258" y="314" on="0"/>
        <pt x="320" y="192" on="0"/>
        <pt x="418" y="84" on="0"/>
        <pt x="547" y="12" on="0"/>
        <pt x="725" y="-29" on="0"/>
        <pt x="834" y="-29" on="1"/>
        <pt x="1005" y="-29" on="0"/>
        <pt x="1301" y="107" on="0"/>
        <pt x="1485" y="362" on="0"/>
        <pt x="1485" y="520" on="1"/>
      </contour>
      <contour>
        <pt x="758" y="1904" on="1"/>
        <pt x="758" y="1796" on="0"/>
        <pt x="625" y="1674" on="0"/>
        <pt x="534" y="1674" on="1"/>
        <pt x="441" y="1674" on="0"/>
        <pt x="306" y="1797" on="0"/>
        <pt x="306" y="1907" on="1"/>
        <pt x="306" y="2014" on="0"/>
        <pt x="440" y="2134" on="0"/>
        <pt x="624" y="2134" on="0"/>
        <pt x="758" y="2013" on="0"/>
      </contour>
      <contour>
        <pt x="1375" y="1904" on="1"/>
        <pt x="1375" y="1796" on="0"/>
        <pt x="1242" y="1674" on="0"/>
        <pt x="1151" y="1674" on="1"/>
        <pt x="1058" y="1674" on="0"/>
        <pt x="923" y="1797" on="0"/>
        <pt x="923" y="1907" on="1"/>
        <pt x="923" y="2014" on="0"/>
        <pt x="1057" y="2134" on="0"/>
        <pt x="1241" y="2134" on="0"/>
        <pt x="1375" y="2013" on="0"/>
      </contour>
    </TTGlyph>
    <TTGlyph name="Ugrave" xMin="43" yMin="-29" xMax="1639" yMax="2270">
      <contour>
        <pt x="1485" y="1270" on="1"/>
        <pt x="1639" y="1270" on="1"/>
        <pt x="1639" y="1622" on="1"/>
        <pt x="985" y="1622" on="1"/>
        <pt x="985" y="1270" on="1"/>
        <pt x="1149" y="1270" on="1"/>
        <pt x="1149" y="536" on="1"/>
        <pt x="1149" y="448" on="0"/>
        <pt x="1045" y="346" on="0"/>
        <pt x="953" y="346" on="1"/>
        <pt x="901" y="346" on="0"/>
        <pt x="824" y="390" on="0"/>
        <pt x="783" y="465" on="0"/>
        <pt x="764" y="551" on="0"/>
        <pt x="764" y="600" on="1"/>
        <pt x="764" y="1270" on="1"/>
        <pt x="912" y="1270" on="1"/>
        <pt x="912" y="1622" on="1"/>
        <pt x="43" y="1622" on="1"/>
        <pt x="43" y="1270" on="1"/>
        <pt x="204" y="1270" on="1"/>
        <pt x="204" y="704" on="1"/>
        <pt x="204" y="616" on="0"/>
        <pt x="219" y="466" on="0"/>
        <pt x="258" y="314" on="0"/>
        <pt x="320" y="192" on="0"/>
        <pt x="418" y="84" on="0"/>
        <pt x="547" y="12" on="0"/>
        <pt x="725" y="-29" on="0"/>
        <pt x="834" y="-29" on="1"/>
        <pt x="1005" y="-29" on="0"/>
        <pt x="1301" y="107" on="0"/>
        <pt x="1485" y="362" on="0"/>
        <pt x="1485" y="520" on="1"/>
      </contour>
      <contour>
        <pt x="696" y="2270" on="1"/>
        <pt x="1170" y="1833" on="1"/>
        <pt x="1066" y="1692" on="1"/>
        <pt x="512" y="2005" on="1"/>
      </contour>
    </TTGlyph>
    <TTGlyph name="Uhungarumlaut" xMin="43" yMin="-29" xMax="1639" yMax="2365">
      <component glyphName="U" x="0" y="0" flags="0x1204"/>
      <component glyphName="hungarumlaut" x="5" y="551" flags="0x1004"/>
    </TTGlyph>
    <TTGlyph name="Umacron" xMin="43" yMin="-29" xMax="1639" yMax="2069">
      <component glyphName="U" x="0" y="0" flags="0x1204"/>
      <component glyphName="macron#1" x="291" y="551" flags="0x1004"/>
    </TTGlyph>
    <TTGlyph name="Uogonek" xMin="43" yMin="-485" xMax="1639" yMax="1622">
      <component glyphName="U" x="0" y="0" flags="0x1204"/>
      <component glyphName="ogonek" x="179" y="0" flags="0x1004"/>
    </TTGlyph>
    <TTGlyph name="Uring" xMin="43" yMin="-29" xMax="1639" yMax="2184">
      <component glyphName="U" x="0" y="0" flags="0x1204"/>
      <component glyphName="ring" x="140" y="551" flags="0x1004"/>
    </TTGlyph>
    <TTGlyph name="Utilde" xMin="43" yMin="-29" xMax="1639" yMax="2074">
      <component glyphName="U" x="0" y="0" flags="0x1204"/>
      <component glyphName="tilde" x="171" y="551" flags="0x1004"/>
    </TTGlyph>
    <TTGlyph name="V" xMin="-6" yMin="0" xMax="1684" yMax="1622">
      <contour>
        <pt x="743" y="1270" on="1"/>
        <pt x="859" y="1270" on="1"/>
        <pt x="859" y="1622" on="1"/>
        <pt x="-6" y="1622" on="1"/>
        <pt x="-6" y="1270" on="1"/>
        <pt x="160" y="1270" on="1"/>
        <pt x="521" y="0" on="1"/>
        <pt x="1105" y="0" on="1"/>
        <pt x="1459" y="1032" on="1"/>
        <pt x="1465" y="1049" on="0"/>
        <pt x="1486" y="1113" on="0"/>
        <pt x="1495" y="1139" on="0"/>
        <pt x="1514" y="1187" on="0"/>
        <pt x="1528" y="1206" on="0"/>
        <pt x="1552" y="1238" on="0"/>
        <pt x="1577" y="1250" on="0"/>
        <pt x="1613" y="1265" on="0"/>
        <pt x="1657" y="1270" on="0"/>
        <pt x="1684" y="1270" on="1"/>
        <pt x="1684" y="1622" on="1"/>
        <pt x="990" y="1622" on="1"/>
        <pt x="990" y="1270" on="1"/>
        <pt x="1064" y="1270" on="0"/>
        <pt x="1137" y="1223" on="0"/>
        <pt x="1139" y="1139" on="0"/>
        <pt x="1121" y="1081" on="1"/>
        <pt x="945" y="517" on="1"/>
      </contour>
    </TTGlyph>
    <TTGlyph name="W" xMin="-5" yMin="0" xMax="2473" yMax="1623">
      <contour>
        <pt x="-4" y="1623" on="1"/>
        <pt x="-5" y="1270" on="1"/>
        <pt x="139" y="1270" on="1"/>
        <pt x="488" y="0" on="1"/>
        <pt x="1025" y="0" on="1"/>
        <pt x="1227" y="706" on="1"/>
        <pt x="1420" y="0" on="1"/>
        <pt x="1963" y="0" on="1"/>
        <pt x="2284" y="1148" on="1"/>
        <pt x="2304" y="1219" on="0"/>
        <pt x="2389" y="1270" on="0"/>
        <pt x="2473" y="1270" on="1"/>
        <pt x="2473" y="1623" on="1"/>
        <pt x="1822" y="1623" on="1"/>
        <pt x="1822" y="1270" on="1"/>
        <pt x="1896" y="1270" on="0"/>
        <pt x="1944" y="1245" on="0"/>
        <pt x="1932" y="1201" on="1"/>
        <pt x="1797" y="703" on="1"/>
        <pt x="1544" y="1623" on="1"/>
        <pt x="1135" y="1623" on="1"/>
        <pt x="875" y="672" on="1"/>
        <pt x="716" y="1270" on="1"/>
        <pt x="857" y="1270" on="1"/>
        <pt x="857" y="1623" on="1"/>
      </contour>
    </TTGlyph>
    <TTGlyph name="Wacute" xMin="-5" yMin="0" xMax="2473" yMax="2259">
      <component glyphName="W" x="0" y="0" flags="0x1204"/>
      <component glyphName="acute" x="708" y="551" flags="0x1004"/>
    </TTGlyph>
    <TTGlyph name="Wcircumflex" xMin="-5" yMin="0" xMax="2473" yMax="2152">
      <component glyphName="W" x="0" y="0" flags="0x1204"/>
      <component glyphName="circumflex" x="718" y="551" flags="0x1004"/>
    </TTGlyph>
    <TTGlyph name="Wdieresis" xMin="-5" yMin="0" xMax="2473" yMax="2123">
      <component glyphName="W" x="0" y="0" flags="0x1204"/>
      <component glyphName="dieresis" x="427" y="551" flags="0x1004"/>
    </TTGlyph>
    <TTGlyph name="Wgrave" xMin="-5" yMin="0" xMax="2473" yMax="2259">
      <component glyphName="W" x="0" y="0" flags="0x1204"/>
      <component glyphName="grave" x="804" y="551" flags="0x1004"/>
    </TTGlyph>
    <TTGlyph name="X" xMin="8" yMin="0" xMax="1829" yMax="1623">
      <contour>
        <pt x="1798" y="1623" on="1"/>
        <pt x="1061" y="1623" on="1"/>
        <pt x="1061" y="1270" on="1"/>
        <pt x="1084" y="1270" on="0"/>
        <pt x="1147" y="1245" on="0"/>
        <pt x="1147" y="1226" on="1"/>
        <pt x="1147" y="1210" on="0"/>
        <pt x="1102" y="1129" on="0"/>
        <pt x="1079" y="1096" on="1"/>
        <pt x="1057" y="1064" on="1"/>
        <pt x="895" y="1270" on="1"/>
        <pt x="977" y="1270" on="1"/>
        <pt x="977" y="1623" on="1"/>
        <pt x="99" y="1623" on="1"/>
        <pt x="99" y="1270" on="1"/>
        <pt x="230" y="1270" on="1"/>
        <pt x="601" y="862" on="1"/>
        <pt x="314" y="493" on="1"/>
        <pt x="253" y="408" on="0"/>
        <pt x="138" y="359" on="0"/>
        <pt x="8" y="359" on="1"/>
        <pt x="8" y="0" on="1"/>
        <pt x="836" y="0" on="1"/>
        <pt x="830" y="359" on="1"/>
        <pt x="746" y="359" on="1"/>
        <pt x="720" y="359" on="0"/>
        <pt x="682" y="393" on="0"/>
        <pt x="682" y="420" on="1"/>
        <pt x="682" y="434" on="0"/>
        <pt x="695" y="473" on="0"/>
        <pt x="703" y="483" on="1"/>
        <pt x="813" y="634" on="1"/>
        <pt x="1056" y="359" on="1"/>
        <pt x="930" y="359" on="1"/>
        <pt x="930" y="0" on="1"/>
        <pt x="1829" y="0" on="1"/>
        <pt x="1829" y="359" on="1"/>
        <pt x="1707" y="359" on="1"/>
        <pt x="1278" y="829" on="1"/>
        <pt x="1536" y="1180" on="1"/>
        <pt x="1574" y="1233" on="0"/>
        <pt x="1706" y="1270" on="0"/>
        <pt x="1798" y="1270" on="1"/>
      </contour>
    </TTGlyph>
    <TTGlyph name="Y" xMin="-15" yMin="0" xMax="1564" yMax="1622">
      <contour>
        <pt x="1564" y="1622" on="1"/>
        <pt x="927" y="1622" on="1"/>
        <pt x="927" y="1270" on="1"/>
        <pt x="935" y="1270" on="0"/>
        <pt x="964" y="1270" on="0"/>
        <pt x="978" y="1270" on="0"/>
        <pt x="1000" y="1270" on="0"/>
        <pt x="1011" y="1267" on="0"/>
        <pt x="1026" y="1263" on="0"/>
        <pt x="1033" y="1255" on="0"/>
        <pt x="1041" y="1245" on="0"/>
        <pt x="1044" y="1230" on="0"/>
        <pt x="1044" y="1221" on="1"/>
        <pt x="1044" y="1166" on="0"/>
        <pt x="930" y="993" on="1"/>
        <pt x="909" y="1023" on="0"/>
        <pt x="768" y="1240" on="0"/>
        <pt x="746" y="1270" on="1"/>
        <pt x="837" y="1270" on="1"/>
        <pt x="837" y="1622" on="1"/>
        <pt x="-15" y="1622" on="1"/>
        <pt x="-15" y="1270" on="1"/>
        <pt x="97" y="1270" on="1"/>
        <pt x="518" y="672" on="1"/>
        <pt x="518" y="359" on="1"/>
        <pt x="363" y="359" on="1"/>
        <pt x="363" y="0" on="1"/>
        <pt x="1232" y="0" on="1"/>
        <pt x="1232" y="359" on="1"/>
        <pt x="1075" y="359" on="1"/>
        <pt x="1075" y="724" on="1"/>
        <pt x="1279" y="1095" on="1"/>
        <pt x="1303" y="1140" on="0"/>
        <pt x="1326" y="1179" on="0"/>
        <pt x="1366" y="1233" on="0"/>
        <pt x="1402" y="1254" on="0"/>
        <pt x="1455" y="1270" on="0"/>
        <pt x="1490" y="1270" on="1"/>
        <pt x="1564" y="1270" on="1"/>
      </contour>
    </TTGlyph>
    <TTGlyph name="Yacute" xMin="-15" yMin="0" xMax="1564" yMax="2270">
      <contour>
        <pt x="1564" y="1622" on="1"/>
        <pt x="927" y="1622" on="1"/>
        <pt x="927" y="1270" on="1"/>
        <pt x="935" y="1270" on="0"/>
        <pt x="964" y="1270" on="0"/>
        <pt x="978" y="1270" on="0"/>
        <pt x="1000" y="1270" on="0"/>
        <pt x="1011" y="1267" on="0"/>
        <pt x="1026" y="1263" on="0"/>
        <pt x="1033" y="1255" on="0"/>
        <pt x="1041" y="1245" on="0"/>
        <pt x="1044" y="1230" on="0"/>
        <pt x="1044" y="1221" on="1"/>
        <pt x="1044" y="1166" on="0"/>
        <pt x="930" y="993" on="1"/>
        <pt x="909" y="1023" on="0"/>
        <pt x="768" y="1240" on="0"/>
        <pt x="746" y="1270" on="1"/>
        <pt x="837" y="1270" on="1"/>
        <pt x="837" y="1622" on="1"/>
        <pt x="-15" y="1622" on="1"/>
        <pt x="-15" y="1270" on="1"/>
        <pt x="97" y="1270" on="1"/>
        <pt x="518" y="672" on="1"/>
        <pt x="518" y="359" on="1"/>
        <pt x="363" y="359" on="1"/>
        <pt x="363" y="0" on="1"/>
        <pt x="1232" y="0" on="1"/>
        <pt x="1232" y="359" on="1"/>
        <pt x="1075" y="359" on="1"/>
        <pt x="1075" y="724" on="1"/>
        <pt x="1279" y="1095" on="1"/>
        <pt x="1303" y="1140" on="0"/>
        <pt x="1326" y="1179" on="0"/>
        <pt x="1366" y="1233" on="0"/>
        <pt x="1402" y="1254" on="0"/>
        <pt x="1455" y="1270" on="0"/>
        <pt x="1490" y="1270" on="1"/>
        <pt x="1564" y="1270" on="1"/>
      </contour>
      <contour>
        <pt x="922" y="2270" on="1"/>
        <pt x="448" y="1833" on="1"/>
        <pt x="552" y="1692" on="1"/>
        <pt x="1106" y="2005" on="1"/>
      </contour>
    </TTGlyph>
    <TTGlyph name="Ycircumflex" xMin="-15" yMin="0" xMax="1564" yMax="2152">
      <component glyphName="Y" x="0" y="0" flags="0x1204"/>
      <component glyphName="circumflex" x="267" y="551" flags="0x1004"/>
    </TTGlyph>
    <TTGlyph name="Ydieresis" xMin="-15" yMin="0" xMax="1564" yMax="2134">
      <contour>
        <pt x="1564" y="1622" on="1"/>
        <pt x="927" y="1622" on="1"/>
        <pt x="927" y="1270" on="1"/>
        <pt x="935" y="1270" on="0"/>
        <pt x="964" y="1270" on="0"/>
        <pt x="978" y="1270" on="0"/>
        <pt x="1000" y="1270" on="0"/>
        <pt x="1011" y="1267" on="0"/>
        <pt x="1026" y="1263" on="0"/>
        <pt x="1033" y="1255" on="0"/>
        <pt x="1041" y="1245" on="0"/>
        <pt x="1044" y="1230" on="0"/>
        <pt x="1044" y="1221" on="1"/>
        <pt x="1044" y="1166" on="0"/>
        <pt x="930" y="993" on="1"/>
        <pt x="909" y="1023" on="0"/>
        <pt x="768" y="1240" on="0"/>
        <pt x="746" y="1270" on="1"/>
        <pt x="837" y="1270" on="1"/>
        <pt x="837" y="1622" on="1"/>
        <pt x="-15" y="1622" on="1"/>
        <pt x="-15" y="1270" on="1"/>
        <pt x="97" y="1270" on="1"/>
        <pt x="518" y="672" on="1"/>
        <pt x="518" y="359" on="1"/>
        <pt x="363" y="359" on="1"/>
        <pt x="363" y="0" on="1"/>
        <pt x="1232" y="0" on="1"/>
        <pt x="1232" y="359" on="1"/>
        <pt x="1075" y="359" on="1"/>
        <pt x="1075" y="724" on="1"/>
        <pt x="1279" y="1095" on="1"/>
        <pt x="1303" y="1140" on="0"/>
        <pt x="1326" y="1179" on="0"/>
        <pt x="1366" y="1233" on="0"/>
        <pt x="1402" y="1254" on="0"/>
        <pt x="1455" y="1270" on="0"/>
        <pt x="1490" y="1270" on="1"/>
        <pt x="1564" y="1270" on="1"/>
      </contour>
      <contour>
        <pt x="694" y="1904" on="1"/>
        <pt x="694" y="1796" on="0"/>
        <pt x="561" y="1674" on="0"/>
        <pt x="470" y="1674" on="1"/>
        <pt x="377" y="1674" on="0"/>
        <pt x="242" y="1797" on="0"/>
        <pt x="242" y="1907" on="1"/>
        <pt x="242" y="2014" on="0"/>
        <pt x="376" y="2134" on="0"/>
        <pt x="560" y="2134" on="0"/>
        <pt x="694" y="2013" on="0"/>
      </contour>
      <contour>
        <pt x="1311" y="1904" on="1"/>
        <pt x="1311" y="1796" on="0"/>
        <pt x="1178" y="1674" on="0"/>
        <pt x="1087" y="1674" on="1"/>
        <pt x="994" y="1674" on="0"/>
        <pt x="859" y="1797" on="0"/>
        <pt x="859" y="1907" on="1"/>
        <pt x="859" y="2014" on="0"/>
        <pt x="993" y="2134" on="0"/>
        <pt x="1177" y="2134" on="0"/>
        <pt x="1311" y="2013" on="0"/>
      </contour>
    </TTGlyph>
    <TTGlyph name="Ygrave" xMin="-15" yMin="0" xMax="1564" yMax="2259">
      <component glyphName="Y" x="0" y="0" flags="0x1204"/>
      <component glyphName="grave" x="353" y="551" flags="0x1004"/>
    </TTGlyph>
    <TTGlyph name="Ymacron" xMin="-15" yMin="0" xMax="1564" yMax="2031">
      <contour>
        <pt x="1564" y="1622" on="1"/>
        <pt x="927" y="1622" on="1"/>
        <pt x="927" y="1270" on="1"/>
        <pt x="935" y="1270" on="0"/>
        <pt x="964" y="1270" on="0"/>
        <pt x="978" y="1270" on="0"/>
        <pt x="1000" y="1270" on="0"/>
        <pt x="1011" y="1267" on="0"/>
        <pt x="1026" y="1263" on="0"/>
        <pt x="1033" y="1255" on="0"/>
        <pt x="1041" y="1245" on="0"/>
        <pt x="1044" y="1230" on="0"/>
        <pt x="1044" y="1221" on="1"/>
        <pt x="1044" y="1166" on="0"/>
        <pt x="930" y="993" on="1"/>
        <pt x="909" y="1023" on="0"/>
        <pt x="768" y="1240" on="0"/>
        <pt x="746" y="1270" on="1"/>
        <pt x="837" y="1270" on="1"/>
        <pt x="837" y="1622" on="1"/>
        <pt x="-15" y="1622" on="1"/>
        <pt x="-15" y="1270" on="1"/>
        <pt x="97" y="1270" on="1"/>
        <pt x="518" y="672" on="1"/>
        <pt x="518" y="359" on="1"/>
        <pt x="363" y="359" on="1"/>
        <pt x="363" y="0" on="1"/>
        <pt x="1232" y="0" on="1"/>
        <pt x="1232" y="359" on="1"/>
        <pt x="1075" y="359" on="1"/>
        <pt x="1075" y="724" on="1"/>
        <pt x="1279" y="1095" on="1"/>
        <pt x="1303" y="1140" on="0"/>
        <pt x="1326" y="1179" on="0"/>
        <pt x="1366" y="1233" on="0"/>
        <pt x="1402" y="1254" on="0"/>
        <pt x="1455" y="1270" on="0"/>
        <pt x="1490" y="1270" on="1"/>
        <pt x="1564" y="1270" on="1"/>
      </contour>
      <contour>
        <pt x="1208" y="1696" on="1"/>
        <pt x="460" y="1696" on="1"/>
        <pt x="460" y="2031" on="1"/>
        <pt x="1208" y="2031" on="1"/>
      </contour>
    </TTGlyph>
    <TTGlyph name="Z" xMin="101" yMin="0" xMax="1516" yMax="1622">
      <contour>
        <pt x="1495" y="1293" on="1"/>
        <pt x="818" y="359" on="1"/>
        <pt x="1127" y="359" on="1"/>
        <pt x="1234" y="705" on="1"/>
        <pt x="1516" y="705" on="1"/>
        <pt x="1515" y="0" on="1"/>
        <pt x="106" y="0" on="1"/>
        <pt x="105" y="350" on="1"/>
        <pt x="784" y="1270" on="1"/>
        <pt x="469" y="1270" on="1"/>
        <pt x="389" y="938" on="1"/>
        <pt x="101" y="938" on="1"/>
        <pt x="101" y="1622" on="1"/>
        <pt x="1495" y="1622" on="1"/>
      </contour>
    </TTGlyph>
    <TTGlyph name="Zacute" xMin="101" yMin="0" xMax="1516" yMax="2259">
      <component glyphName="Z" x="0" y="0" flags="0x1204"/>
      <component glyphName="acute" x="281" y="551" flags="0x1004"/>
    </TTGlyph>
    <TTGlyph name="Zcaron" xMin="101" yMin="0" xMax="1516" yMax="2178">
      <contour>
        <pt x="1495" y="1622" on="1"/>
        <pt x="101" y="1622" on="1"/>
        <pt x="101" y="938" on="1"/>
        <pt x="389" y="938" on="1"/>
        <pt x="469" y="1270" on="1"/>
        <pt x="784" y="1270" on="1"/>
        <pt x="105" y="350" on="1"/>
        <pt x="106" y="0" on="1"/>
        <pt x="1515" y="0" on="1"/>
        <pt x="1516" y="705" on="1"/>
        <pt x="1234" y="705" on="1"/>
        <pt x="1127" y="359" on="1"/>
        <pt x="818" y="359" on="1"/>
        <pt x="1495" y="1293" on="1"/>
      </contour>
      <contour>
        <pt x="669" y="1700" on="1"/>
        <pt x="396" y="2077" on="1"/>
        <pt x="550" y="2178" on="1"/>
        <pt x="805" y="1933" on="1"/>
        <pt x="1060" y="2178" on="1"/>
        <pt x="1214" y="2077" on="1"/>
        <pt x="940" y="1701" on="1"/>
      </contour>
    </TTGlyph>
    <TTGlyph name="Zdotaccent" xMin="101" yMin="0" xMax="1516" yMax="2191">
      <component glyphName="Z" x="0" y="0" flags="0x1204"/>
      <component glyphName="dotaccent" x="241" y="551" flags="0x1004"/>
    </TTGlyph>
    <TTGlyph name="a" xMin="30" yMin="-18" xMax="1247" yMax="1092">
      <contour>
        <pt x="30" y="308" on="1"/>
        <pt x="30" y="159" on="0"/>
        <pt x="257" y="-18" on="0"/>
        <pt x="419" y="-18" on="1"/>
        <pt x="501" y="-18" on="0"/>
        <pt x="675" y="54" on="0"/>
        <pt x="725" y="119" on="1"/>
        <pt x="775" y="0" on="1"/>
        <pt x="1247" y="0" on="1"/>
        <pt x="1247" y="305" on="1"/>
        <pt x="1171" y="305" on="1"/>
        <pt x="1171" y="750" on="1"/>
        <pt x="1171" y="819" on="0"/>
        <pt x="1120" y="930" on="0"/>
        <pt x="1045" y="1000" on="0"/>
        <pt x="932" y="1051" on="0"/>
        <pt x="835" y="1076" on="0"/>
        <pt x="710" y="1090" on="0"/>
        <pt x="644" y="1092" on="0"/>
        <pt x="603" y="1092" on="1"/>
        <pt x="496" y="1092" on="0"/>
        <pt x="254" y="1057" on="0"/>
        <pt x="187" y="1040" on="1"/>
        <pt x="120" y="1022" on="1"/>
        <pt x="120" y="708" on="1"/>
        <pt x="295" y="708" on="1"/>
        <pt x="367" y="803" on="0"/>
        <pt x="510" y="803" on="1"/>
        <pt x="721" y="803" on="0"/>
        <pt x="721" y="637" on="1"/>
        <pt x="721" y="592" on="1"/>
        <pt x="611" y="630" on="0"/>
        <pt x="465" y="630" on="1"/>
        <pt x="382" y="630" on="0"/>
        <pt x="229" y="589" on="0"/>
        <pt x="105" y="511" on="0"/>
        <pt x="30" y="385" on="0"/>
      </contour>
      <contour>
        <pt x="520" y="326" on="1"/>
        <pt x="520" y="369" on="0"/>
        <pt x="582" y="438" on="0"/>
        <pt x="625" y="438" on="1"/>
        <pt x="647" y="438" on="0"/>
        <pt x="696" y="428" on="0"/>
        <pt x="710" y="422" on="1"/>
        <pt x="724" y="417" on="1"/>
        <pt x="724" y="270" on="1"/>
        <pt x="720" y="265" on="0"/>
        <pt x="704" y="250" on="0"/>
        <pt x="648" y="224" on="0"/>
        <pt x="616" y="224" on="1"/>
        <pt x="572" y="224" on="0"/>
        <pt x="520" y="281" on="0"/>
      </contour>
    </TTGlyph>
    <TTGlyph name="aacute" xMin="30" yMin="-18" xMax="1247" yMax="1708">
      <contour>
        <pt x="30" y="308" on="1"/>
        <pt x="30" y="159" on="0"/>
        <pt x="257" y="-18" on="0"/>
        <pt x="419" y="-18" on="1"/>
        <pt x="501" y="-18" on="0"/>
        <pt x="675" y="54" on="0"/>
        <pt x="725" y="119" on="1"/>
        <pt x="775" y="0" on="1"/>
        <pt x="1247" y="0" on="1"/>
        <pt x="1247" y="305" on="1"/>
        <pt x="1171" y="305" on="1"/>
        <pt x="1171" y="750" on="1"/>
        <pt x="1171" y="819" on="0"/>
        <pt x="1120" y="930" on="0"/>
        <pt x="1045" y="1000" on="0"/>
        <pt x="932" y="1051" on="0"/>
        <pt x="835" y="1076" on="0"/>
        <pt x="710" y="1090" on="0"/>
        <pt x="644" y="1092" on="0"/>
        <pt x="603" y="1092" on="1"/>
        <pt x="496" y="1092" on="0"/>
        <pt x="254" y="1057" on="0"/>
        <pt x="187" y="1040" on="1"/>
        <pt x="120" y="1022" on="1"/>
        <pt x="120" y="708" on="1"/>
        <pt x="295" y="708" on="1"/>
        <pt x="367" y="803" on="0"/>
        <pt x="510" y="803" on="1"/>
        <pt x="721" y="803" on="0"/>
        <pt x="721" y="637" on="1"/>
        <pt x="721" y="592" on="1"/>
        <pt x="611" y="630" on="0"/>
        <pt x="465" y="630" on="1"/>
        <pt x="382" y="630" on="0"/>
        <pt x="229" y="589" on="0"/>
        <pt x="105" y="511" on="0"/>
        <pt x="30" y="385" on="0"/>
      </contour>
      <contour>
        <pt x="520" y="326" on="1"/>
        <pt x="520" y="369" on="0"/>
        <pt x="582" y="438" on="0"/>
        <pt x="625" y="438" on="1"/>
        <pt x="647" y="438" on="0"/>
        <pt x="696" y="428" on="0"/>
        <pt x="710" y="422" on="1"/>
        <pt x="724" y="417" on="1"/>
        <pt x="724" y="270" on="1"/>
        <pt x="720" y="265" on="0"/>
        <pt x="704" y="250" on="0"/>
        <pt x="648" y="224" on="0"/>
        <pt x="616" y="224" on="1"/>
        <pt x="572" y="224" on="0"/>
        <pt x="520" y="281" on="0"/>
      </contour>
      <contour>
        <pt x="908" y="1708" on="1"/>
        <pt x="434" y="1271" on="1"/>
        <pt x="538" y="1130" on="1"/>
        <pt x="1092" y="1443" on="1"/>
      </contour>
    </TTGlyph>
    <TTGlyph name="abreve" xMin="30" yMin="-18" xMax="1247" yMax="1622">
      <component glyphName="a" x="0" y="0" flags="0x1204"/>
      <component glyphName="breve" x="-122" y="0" flags="0x1004"/>
    </TTGlyph>
    <TTGlyph name="acircumflex" xMin="30" yMin="-18" xMax="1247" yMax="1601">
      <contour>
        <pt x="30" y="308" on="1"/>
        <pt x="30" y="159" on="0"/>
        <pt x="257" y="-18" on="0"/>
        <pt x="419" y="-18" on="1"/>
        <pt x="501" y="-18" on="0"/>
        <pt x="675" y="54" on="0"/>
        <pt x="725" y="119" on="1"/>
        <pt x="775" y="0" on="1"/>
        <pt x="1247" y="0" on="1"/>
        <pt x="1247" y="305" on="1"/>
        <pt x="1171" y="305" on="1"/>
        <pt x="1171" y="750" on="1"/>
        <pt x="1171" y="819" on="0"/>
        <pt x="1120" y="930" on="0"/>
        <pt x="1045" y="1000" on="0"/>
        <pt x="932" y="1051" on="0"/>
        <pt x="835" y="1076" on="0"/>
        <pt x="710" y="1090" on="0"/>
        <pt x="644" y="1092" on="0"/>
        <pt x="603" y="1092" on="1"/>
        <pt x="496" y="1092" on="0"/>
        <pt x="254" y="1057" on="0"/>
        <pt x="187" y="1040" on="1"/>
        <pt x="120" y="1022" on="1"/>
        <pt x="120" y="708" on="1"/>
        <pt x="295" y="708" on="1"/>
        <pt x="367" y="803" on="0"/>
        <pt x="510" y="803" on="1"/>
        <pt x="721" y="803" on="0"/>
        <pt x="721" y="637" on="1"/>
        <pt x="721" y="592" on="1"/>
        <pt x="611" y="630" on="0"/>
        <pt x="465" y="630" on="1"/>
        <pt x="382" y="630" on="0"/>
        <pt x="229" y="589" on="0"/>
        <pt x="105" y="511" on="0"/>
        <pt x="30" y="385" on="0"/>
      </contour>
      <contour>
        <pt x="520" y="326" on="1"/>
        <pt x="520" y="369" on="0"/>
        <pt x="582" y="438" on="0"/>
        <pt x="625" y="438" on="1"/>
        <pt x="647" y="438" on="0"/>
        <pt x="696" y="428" on="0"/>
        <pt x="710" y="422" on="1"/>
        <pt x="724" y="417" on="1"/>
        <pt x="724" y="270" on="1"/>
        <pt x="720" y="265" on="0"/>
        <pt x="704" y="250" on="0"/>
        <pt x="648" y="224" on="0"/>
        <pt x="616" y="224" on="1"/>
        <pt x="572" y="224" on="0"/>
        <pt x="520" y="281" on="0"/>
      </contour>
      <contour>
        <pt x="505" y="1601" on="1"/>
        <pt x="232" y="1224" on="1"/>
        <pt x="386" y="1123" on="1"/>
        <pt x="641" y="1368" on="1"/>
        <pt x="896" y="1123" on="1"/>
        <pt x="1050" y="1224" on="1"/>
        <pt x="776" y="1600" on="1"/>
      </contour>
    </TTGlyph>
    <TTGlyph name="acute" xMin="193" yMin="1130" xMax="851" yMax="1708">
      <contour>
        <pt x="851" y="1443" on="1"/>
        <pt x="297" y="1130" on="1"/>
        <pt x="193" y="1271" on="1"/>
        <pt x="667" y="1708" on="1"/>
      </contour>
    </TTGlyph>
    <TTGlyph name="adieresis" xMin="30" yMin="-18" xMax="1247" yMax="1572">
      <contour>
        <pt x="30" y="308" on="1"/>
        <pt x="30" y="159" on="0"/>
        <pt x="257" y="-18" on="0"/>
        <pt x="419" y="-18" on="1"/>
        <pt x="501" y="-18" on="0"/>
        <pt x="675" y="54" on="0"/>
        <pt x="725" y="119" on="1"/>
        <pt x="775" y="0" on="1"/>
        <pt x="1247" y="0" on="1"/>
        <pt x="1247" y="305" on="1"/>
        <pt x="1171" y="305" on="1"/>
        <pt x="1171" y="750" on="1"/>
        <pt x="1171" y="819" on="0"/>
        <pt x="1120" y="930" on="0"/>
        <pt x="1045" y="1000" on="0"/>
        <pt x="932" y="1051" on="0"/>
        <pt x="835" y="1076" on="0"/>
        <pt x="710" y="1090" on="0"/>
        <pt x="644" y="1092" on="0"/>
        <pt x="603" y="1092" on="1"/>
        <pt x="496" y="1092" on="0"/>
        <pt x="254" y="1057" on="0"/>
        <pt x="187" y="1040" on="1"/>
        <pt x="120" y="1022" on="1"/>
        <pt x="120" y="708" on="1"/>
        <pt x="295" y="708" on="1"/>
        <pt x="367" y="803" on="0"/>
        <pt x="510" y="803" on="1"/>
        <pt x="721" y="803" on="0"/>
        <pt x="721" y="637" on="1"/>
        <pt x="721" y="592" on="1"/>
        <pt x="611" y="630" on="0"/>
        <pt x="465" y="630" on="1"/>
        <pt x="382" y="630" on="0"/>
        <pt x="229" y="589" on="0"/>
        <pt x="105" y="511" on="0"/>
        <pt x="30" y="385" on="0"/>
      </contour>
      <contour>
        <pt x="520" y="326" on="1"/>
        <pt x="520" y="369" on="0"/>
        <pt x="582" y="438" on="0"/>
        <pt x="625" y="438" on="1"/>
        <pt x="647" y="438" on="0"/>
        <pt x="696" y="428" on="0"/>
        <pt x="710" y="422" on="1"/>
        <pt x="724" y="417" on="1"/>
        <pt x="724" y="270" on="1"/>
        <pt x="720" y="265" on="0"/>
        <pt x="704" y="250" on="0"/>
        <pt x="648" y="224" on="0"/>
        <pt x="616" y="224" on="1"/>
        <pt x="572" y="224" on="0"/>
        <pt x="520" y="281" on="0"/>
      </contour>
      <contour>
        <pt x="559" y="1342" on="1"/>
        <pt x="559" y="1234" on="0"/>
        <pt x="426" y="1112" on="0"/>
        <pt x="335" y="1112" on="1"/>
        <pt x="242" y="1112" on="0"/>
        <pt x="107" y="1235" on="0"/>
        <pt x="107" y="1345" on="1"/>
        <pt x="107" y="1452" on="0"/>
        <pt x="241" y="1572" on="0"/>
        <pt x="425" y="1572" on="0"/>
        <pt x="559" y="1451" on="0"/>
      </contour>
      <contour>
        <pt x="1176" y="1342" on="1"/>
        <pt x="1176" y="1234" on="0"/>
        <pt x="1043" y="1112" on="0"/>
        <pt x="952" y="1112" on="1"/>
        <pt x="859" y="1112" on="0"/>
        <pt x="724" y="1235" on="0"/>
        <pt x="724" y="1345" on="1"/>
        <pt x="724" y="1452" on="0"/>
        <pt x="858" y="1572" on="0"/>
        <pt x="1042" y="1572" on="0"/>
        <pt x="1176" y="1451" on="0"/>
      </contour>
    </TTGlyph>
    <TTGlyph name="ae" xMin="30" yMin="-27" xMax="1866" yMax="1085">
      <contour>
        <pt x="30" y="299" on="1"/>
        <pt x="30" y="199" on="0"/>
        <pt x="140" y="49" on="0"/>
        <pt x="314" y="-26" on="0"/>
        <pt x="419" y="-27" on="1"/>
        <pt x="615" y="-29" on="0"/>
        <pt x="864" y="29" on="0"/>
        <pt x="967" y="105" on="1"/>
        <pt x="1110" y="-25" on="0"/>
        <pt x="1299" y="-25" on="1"/>
        <pt x="1459" y="-25" on="0"/>
        <pt x="1714" y="41" on="0"/>
        <pt x="1846" y="120" on="1"/>
        <pt x="1846" y="358" on="1"/>
        <pt x="1539" y="358" on="1"/>
        <pt x="1537" y="285" on="0"/>
        <pt x="1471" y="215" on="0"/>
        <pt x="1399" y="215" on="1"/>
        <pt x="1317" y="215" on="0"/>
        <pt x="1222" y="348" on="0"/>
        <pt x="1222" y="441" on="1"/>
        <pt x="1824" y="441" on="1"/>
        <pt x="1843" y="441" on="0"/>
        <pt x="1852" y="448" on="0"/>
        <pt x="1861" y="469" on="1"/>
        <pt x="1866" y="514" on="0"/>
        <pt x="1866" y="548" on="1"/>
        <pt x="1866" y="698" on="0"/>
        <pt x="1741" y="938" on="0"/>
        <pt x="1487" y="1085" on="0"/>
        <pt x="1315" y="1085" on="1"/>
        <pt x="1252" y="1085" on="0"/>
        <pt x="1135" y="1059" on="0"/>
        <pt x="1058" y="1023" on="0"/>
        <pt x="998" y="987" on="0"/>
        <pt x="985" y="974" on="1"/>
        <pt x="971" y="961" on="1"/>
        <pt x="966" y="966" on="0"/>
        <pt x="946" y="982" on="0"/>
        <pt x="877" y="1024" on="0"/>
        <pt x="799" y="1057" on="0"/>
        <pt x="671" y="1083" on="0"/>
        <pt x="603" y="1083" on="1"/>
        <pt x="496" y="1083" on="0"/>
        <pt x="254" y="1048" on="0"/>
        <pt x="187" y="1030" on="1"/>
        <pt x="120" y="1013" on="1"/>
        <pt x="120" y="699" on="1"/>
        <pt x="295" y="699" on="1"/>
        <pt x="367" y="794" on="0"/>
        <pt x="510" y="794" on="1"/>
        <pt x="721" y="794" on="0"/>
        <pt x="721" y="628" on="1"/>
        <pt x="721" y="583" on="1"/>
        <pt x="611" y="621" on="0"/>
        <pt x="465" y="621" on="1"/>
        <pt x="382" y="621" on="0"/>
        <pt x="229" y="580" on="0"/>
        <pt x="105" y="502" on="0"/>
        <pt x="30" y="376" on="0"/>
      </contour>
      <contour>
        <pt x="520" y="317" on="1"/>
        <pt x="520" y="360" on="0"/>
        <pt x="582" y="429" on="0"/>
        <pt x="625" y="429" on="1"/>
        <pt x="647" y="429" on="0"/>
        <pt x="696" y="418" on="0"/>
        <pt x="710" y="413" on="1"/>
        <pt x="724" y="408" on="1"/>
        <pt x="724" y="261" on="1"/>
        <pt x="720" y="256" on="0"/>
        <pt x="704" y="241" on="0"/>
        <pt x="648" y="215" on="0"/>
        <pt x="616" y="215" on="1"/>
        <pt x="572" y="215" on="0"/>
        <pt x="520" y="272" on="0"/>
      </contour>
      <contour>
        <pt x="1224" y="649" on="1"/>
        <pt x="1224" y="710" on="0"/>
        <pt x="1278" y="807" on="0"/>
        <pt x="1332" y="807" on="1"/>
        <pt x="1369" y="807" on="0"/>
        <pt x="1417" y="772" on="0"/>
        <pt x="1435" y="707" on="0"/>
        <pt x="1440" y="655" on="0"/>
        <pt x="1439" y="620" on="1"/>
        <pt x="1224" y="620" on="1"/>
      </contour>
    </TTGlyph>
    <TTGlyph name="aeacute" xMin="30" yMin="-27" xMax="1866" yMax="1708">
      <component glyphName="ae" x="0" y="0" flags="0x1204"/>
      <component glyphName="acute" x="433" y="0" flags="0x1004"/>
    </TTGlyph>
    <TTGlyph name="agrave" xMin="30" yMin="-18" xMax="1247" yMax="1708">
      <contour>
        <pt x="30" y="308" on="1"/>
        <pt x="30" y="159" on="0"/>
        <pt x="257" y="-18" on="0"/>
        <pt x="419" y="-18" on="1"/>
        <pt x="501" y="-18" on="0"/>
        <pt x="675" y="54" on="0"/>
        <pt x="725" y="119" on="1"/>
        <pt x="775" y="0" on="1"/>
        <pt x="1247" y="0" on="1"/>
        <pt x="1247" y="305" on="1"/>
        <pt x="1171" y="305" on="1"/>
        <pt x="1171" y="750" on="1"/>
        <pt x="1171" y="819" on="0"/>
        <pt x="1120" y="930" on="0"/>
        <pt x="1045" y="1000" on="0"/>
        <pt x="932" y="1051" on="0"/>
        <pt x="835" y="1076" on="0"/>
        <pt x="710" y="1090" on="0"/>
        <pt x="644" y="1092" on="0"/>
        <pt x="603" y="1092" on="1"/>
        <pt x="496" y="1092" on="0"/>
        <pt x="254" y="1057" on="0"/>
        <pt x="187" y="1040" on="1"/>
        <pt x="120" y="1022" on="1"/>
        <pt x="120" y="708" on="1"/>
        <pt x="295" y="708" on="1"/>
        <pt x="367" y="803" on="0"/>
        <pt x="510" y="803" on="1"/>
        <pt x="721" y="803" on="0"/>
        <pt x="721" y="637" on="1"/>
        <pt x="721" y="592" on="1"/>
        <pt x="611" y="630" on="0"/>
        <pt x="465" y="630" on="1"/>
        <pt x="382" y="630" on="0"/>
        <pt x="229" y="589" on="0"/>
        <pt x="105" y="511" on="0"/>
        <pt x="30" y="385" on="0"/>
      </contour>
      <contour>
        <pt x="520" y="326" on="1"/>
        <pt x="520" y="369" on="0"/>
        <pt x="582" y="438" on="0"/>
        <pt x="625" y="438" on="1"/>
        <pt x="647" y="438" on="0"/>
        <pt x="696" y="428" on="0"/>
        <pt x="710" y="422" on="1"/>
        <pt x="724" y="417" on="1"/>
        <pt x="724" y="270" on="1"/>
        <pt x="720" y="265" on="0"/>
        <pt x="704" y="250" on="0"/>
        <pt x="648" y="224" on="0"/>
        <pt x="616" y="224" on="1"/>
        <pt x="572" y="224" on="0"/>
        <pt x="520" y="281" on="0"/>
      </contour>
      <contour>
        <pt x="496" y="1708" on="1"/>
        <pt x="970" y="1271" on="1"/>
        <pt x="866" y="1130" on="1"/>
        <pt x="312" y="1443" on="1"/>
      </contour>
    </TTGlyph>
    <TTGlyph name="amacron" xMin="30" yMin="-18" xMax="1247" yMax="1518">
      <component glyphName="a" x="0" y="0" flags="0x1204"/>
      <component glyphName="macron#1" x="97" y="0" flags="0x1004"/>
    </TTGlyph>
    <TTGlyph name="ampersand" xMin="30" yMin="-27" xMax="1656" yMax="1515">
      <contour>
        <pt x="1656" y="0" on="1"/>
        <pt x="1656" y="368" on="1"/>
        <pt x="1426" y="368" on="1"/>
        <pt x="1283" y="516" on="0"/>
        <pt x="1278" y="518" on="1"/>
        <pt x="1448" y="694" on="1"/>
        <pt x="1512" y="760" on="0"/>
        <pt x="1586" y="813" on="0"/>
        <pt x="1656" y="837" on="1"/>
        <pt x="1656" y="1126" on="1"/>
        <pt x="1173" y="1126" on="1"/>
        <pt x="1173" y="831" on="1"/>
        <pt x="1220" y="831" on="1"/>
        <pt x="1247" y="831" on="0"/>
        <pt x="1247" y="796" on="1"/>
        <pt x="1247" y="780" on="0"/>
        <pt x="1193" y="717" on="0"/>
        <pt x="1167" y="693" on="1"/>
        <pt x="1140" y="669" on="1"/>
        <pt x="961" y="844" on="1"/>
        <pt x="1014" y="891" on="0"/>
        <pt x="1068" y="947" on="0"/>
        <pt x="1114" y="1023" on="0"/>
        <pt x="1130" y="1108" on="0"/>
        <pt x="1130" y="1169" on="1"/>
        <pt x="1130" y="1249" on="0"/>
        <pt x="1055" y="1384" on="0"/>
        <pt x="933" y="1469" on="0"/>
        <pt x="783" y="1515" on="0"/>
        <pt x="706" y="1515" on="1"/>
        <pt x="608" y="1515" on="0"/>
        <pt x="434" y="1462" on="0"/>
        <pt x="302" y="1362" on="0"/>
        <pt x="225" y="1207" on="0"/>
        <pt x="225" y="1111" on="1"/>
        <pt x="228" y="936" on="0"/>
        <pt x="344" y="809" on="1"/>
        <pt x="188" y="742" on="0"/>
        <pt x="33" y="534" on="0"/>
        <pt x="30" y="380" on="1"/>
        <pt x="34" y="189" on="0"/>
        <pt x="289" y="-25" on="0"/>
        <pt x="483" y="-27" on="1"/>
        <pt x="759" y="-21" on="0"/>
        <pt x="944" y="183" on="1"/>
        <pt x="1068" y="49" on="0"/>
        <pt x="1117" y="0" on="1"/>
      </contour>
      <contour>
        <pt x="487" y="487" on="1"/>
        <pt x="487" y="504" on="0"/>
        <pt x="500" y="537" on="0"/>
        <pt x="517" y="561" on="0"/>
        <pt x="535" y="580" on="0"/>
        <pt x="541" y="584" on="1"/>
        <pt x="548" y="589" on="1"/>
        <pt x="755" y="375" on="1"/>
        <pt x="703" y="335" on="0"/>
        <pt x="641" y="335" on="1"/>
        <pt x="575" y="335" on="0"/>
        <pt x="487" y="421" on="0"/>
      </contour>
      <contour>
        <pt x="678" y="1175" on="1"/>
        <pt x="678" y="1214" on="0"/>
        <pt x="733" y="1273" on="0"/>
        <pt x="772" y="1273" on="1"/>
        <pt x="823" y="1273" on="0"/>
        <pt x="876" y="1203" on="0"/>
        <pt x="876" y="1152" on="1"/>
        <pt x="876" y="1111" on="0"/>
        <pt x="832" y="1058" on="0"/>
        <pt x="784" y="1025" on="1"/>
        <pt x="752" y="1050" on="0"/>
        <pt x="714" y="1086" on="0"/>
        <pt x="678" y="1145" on="0"/>
      </contour>
    </TTGlyph>
    <TTGlyph name="aogonek" xMin="30" yMin="-485" xMax="1247" yMax="1092">
      <component glyphName="a" x="0" y="0" flags="0x1204"/>
      <component glyphName="ogonek" x="329" y="0" flags="0x1004"/>
    </TTGlyph>
    <TTGlyph name="approxequal" xMin="221" yMin="74" xMax="1464" yMax="1122">
      <contour>
        <pt x="1090" y="74" on="1"/>
        <pt x="1148" y="74" on="0"/>
        <pt x="1240" y="126" on="0"/>
        <pt x="1308" y="221" on="0"/>
        <pt x="1357" y="316" on="0"/>
        <pt x="1418" y="441" on="0"/>
        <pt x="1442" y="477" on="1"/>
        <pt x="1313" y="562" on="1"/>
        <pt x="1210" y="438" on="0"/>
        <pt x="1129" y="368" on="0"/>
        <pt x="1104" y="368" on="1"/>
        <pt x="1060" y="368" on="0"/>
        <pt x="954" y="409" on="0"/>
        <pt x="853" y="467" on="0"/>
        <pt x="749" y="526" on="0"/>
        <pt x="630" y="567" on="0"/>
        <pt x="575" y="567" on="1"/>
        <pt x="517" y="567" on="0"/>
        <pt x="424" y="516" on="0"/>
        <pt x="356" y="421" on="0"/>
        <pt x="306" y="328" on="0"/>
        <pt x="245" y="202" on="0"/>
        <pt x="221" y="165" on="1"/>
        <pt x="352" y="79" on="1"/>
        <pt x="461" y="209" on="0"/>
        <pt x="537" y="277" on="0"/>
        <pt x="564" y="277" on="1"/>
        <pt x="608" y="277" on="0"/>
        <pt x="713" y="235" on="0"/>
        <pt x="812" y="175" on="0"/>
        <pt x="916" y="116" on="0"/>
        <pt x="1035" y="74" on="0"/>
      </contour>
      <contour>
        <pt x="1112" y="629" on="1"/>
        <pt x="1170" y="629" on="0"/>
        <pt x="1262" y="681" on="0"/>
        <pt x="1330" y="776" on="0"/>
        <pt x="1379" y="871" on="0"/>
        <pt x="1440" y="996" on="0"/>
        <pt x="1464" y="1032" on="1"/>
        <pt x="1335" y="1117" on="1"/>
        <pt x="1232" y="993" on="0"/>
        <pt x="1151" y="923" on="0"/>
        <pt x="1126" y="923" on="1"/>
        <pt x="1082" y="923" on="0"/>
        <pt x="976" y="964" on="0"/>
        <pt x="875" y="1022" on="0"/>
        <pt x="771" y="1081" on="0"/>
        <pt x="652" y="1122" on="0"/>
        <pt x="597" y="1122" on="1"/>
        <pt x="539" y="1122" on="0"/>
        <pt x="446" y="1071" on="0"/>
        <pt x="378" y="976" on="0"/>
        <pt x="328" y="883" on="0"/>
        <pt x="267" y="757" on="0"/>
        <pt x="243" y="720" on="1"/>
        <pt x="374" y="634" on="1"/>
        <pt x="483" y="764" on="0"/>
        <pt x="559" y="832" on="0"/>
        <pt x="586" y="832" on="1"/>
        <pt x="630" y="832" on="0"/>
        <pt x="735" y="790" on="0"/>
        <pt x="834" y="730" on="0"/>
        <pt x="938" y="671" on="0"/>
        <pt x="1057" y="629" on="0"/>
      </contour>
    </TTGlyph>
    <TTGlyph name="aring" xMin="30" yMin="-18" xMax="1247" yMax="1633">
      <contour>
        <pt x="30" y="308" on="1"/>
        <pt x="30" y="159" on="0"/>
        <pt x="257" y="-18" on="0"/>
        <pt x="419" y="-18" on="1"/>
        <pt x="501" y="-18" on="0"/>
        <pt x="675" y="54" on="0"/>
        <pt x="725" y="119" on="1"/>
        <pt x="775" y="0" on="1"/>
        <pt x="1247" y="0" on="1"/>
        <pt x="1247" y="305" on="1"/>
        <pt x="1171" y="305" on="1"/>
        <pt x="1171" y="750" on="1"/>
        <pt x="1171" y="819" on="0"/>
        <pt x="1120" y="930" on="0"/>
        <pt x="1045" y="1000" on="0"/>
        <pt x="932" y="1051" on="0"/>
        <pt x="835" y="1076" on="0"/>
        <pt x="710" y="1090" on="0"/>
        <pt x="644" y="1092" on="0"/>
        <pt x="603" y="1092" on="1"/>
        <pt x="496" y="1092" on="0"/>
        <pt x="254" y="1057" on="0"/>
        <pt x="187" y="1040" on="1"/>
        <pt x="120" y="1022" on="1"/>
        <pt x="120" y="708" on="1"/>
        <pt x="295" y="708" on="1"/>
        <pt x="367" y="803" on="0"/>
        <pt x="510" y="803" on="1"/>
        <pt x="721" y="803" on="0"/>
        <pt x="721" y="637" on="1"/>
        <pt x="721" y="592" on="1"/>
        <pt x="611" y="630" on="0"/>
        <pt x="465" y="630" on="1"/>
        <pt x="382" y="630" on="0"/>
        <pt x="229" y="589" on="0"/>
        <pt x="105" y="511" on="0"/>
        <pt x="30" y="385" on="0"/>
      </contour>
      <contour>
        <pt x="520" y="326" on="1"/>
        <pt x="520" y="369" on="0"/>
        <pt x="582" y="438" on="0"/>
        <pt x="625" y="438" on="1"/>
        <pt x="647" y="438" on="0"/>
        <pt x="696" y="428" on="0"/>
        <pt x="710" y="422" on="1"/>
        <pt x="724" y="417" on="1"/>
        <pt x="724" y="270" on="1"/>
        <pt x="720" y="265" on="0"/>
        <pt x="704" y="250" on="0"/>
        <pt x="648" y="224" on="0"/>
        <pt x="616" y="224" on="1"/>
        <pt x="572" y="224" on="0"/>
        <pt x="520" y="281" on="0"/>
      </contour>
      <contour>
        <pt x="637" y="1240" on="1"/>
        <pt x="562" y="1240" on="0"/>
        <pt x="476" y="1328" on="0"/>
        <pt x="476" y="1388" on="1"/>
        <pt x="476" y="1447" on="0"/>
        <pt x="561" y="1533" on="0"/>
        <pt x="637" y="1533" on="1"/>
        <pt x="715" y="1533" on="0"/>
        <pt x="802" y="1447" on="0"/>
        <pt x="802" y="1388" on="1"/>
        <pt x="802" y="1328" on="0"/>
        <pt x="714" y="1240" on="0"/>
      </contour>
      <contour>
        <pt x="637" y="1138" on="1"/>
        <pt x="768" y="1138" on="0"/>
        <pt x="917" y="1288" on="0"/>
        <pt x="917" y="1389" on="1"/>
        <pt x="917" y="1489" on="0"/>
        <pt x="770" y="1633" on="0"/>
        <pt x="637" y="1633" on="1"/>
        <pt x="508" y="1633" on="0"/>
        <pt x="366" y="1488" on="0"/>
        <pt x="366" y="1389" on="1"/>
        <pt x="366" y="1288" on="0"/>
        <pt x="510" y="1138" on="0"/>
      </contour>
    </TTGlyph>
    <TTGlyph name="asciicircum" xMin="222" yMin="909" xMax="1584" yMax="1624">
      <contour>
        <pt x="1088" y="1624" on="1"/>
        <pt x="1584" y="909" on="1"/>
        <pt x="1119" y="909" on="1"/>
        <pt x="903" y="1242" on="1"/>
        <pt x="687" y="909" on="1"/>
        <pt x="222" y="909" on="1"/>
        <pt x="718" y="1624" on="1"/>
      </contour>
    </TTGlyph>
    <TTGlyph name="asciitilde" xMin="45" yMin="629" xMax="1266" yMax="1122">
      <contour>
        <pt x="914" y="629" on="1"/>
        <pt x="972" y="629" on="0"/>
        <pt x="1064" y="681" on="0"/>
        <pt x="1132" y="776" on="0"/>
        <pt x="1181" y="871" on="0"/>
        <pt x="1242" y="996" on="0"/>
        <pt x="1266" y="1032" on="1"/>
        <pt x="1137" y="1117" on="1"/>
        <pt x="1034" y="993" on="0"/>
        <pt x="953" y="923" on="0"/>
        <pt x="928" y="923" on="1"/>
        <pt x="884" y="923" on="0"/>
        <pt x="778" y="964" on="0"/>
        <pt x="677" y="1022" on="0"/>
        <pt x="573" y="1081" on="0"/>
        <pt x="454" y="1122" on="0"/>
        <pt x="399" y="1122" on="1"/>
        <pt x="341" y="1122" on="0"/>
        <pt x="248" y="1071" on="0"/>
        <pt x="180" y="976" on="0"/>
        <pt x="130" y="883" on="0"/>
        <pt x="69" y="757" on="0"/>
        <pt x="45" y="720" on="1"/>
        <pt x="176" y="634" on="1"/>
        <pt x="285" y="764" on="0"/>
        <pt x="361" y="832" on="0"/>
        <pt x="388" y="832" on="1"/>
        <pt x="432" y="832" on="0"/>
        <pt x="537" y="790" on="0"/>
        <pt x="636" y="730" on="0"/>
        <pt x="740" y="671" on="0"/>
        <pt x="859" y="629" on="0"/>
      </contour>
    </TTGlyph>
    <TTGlyph name="asterisk" xMin="65" yMin="249" xMax="1281" yMax="1641">
      <contour>
        <pt x="92" y="1328" on="1"/>
        <pt x="69" y="1294" on="0"/>
        <pt x="62" y="1212" on="0"/>
        <pt x="106" y="1126" on="0"/>
        <pt x="153" y="1095" on="1"/>
        <pt x="201" y="1063" on="0"/>
        <pt x="337" y="1011" on="0"/>
        <pt x="527" y="955" on="0"/>
        <pt x="556" y="945" on="1"/>
        <pt x="524" y="934" on="0"/>
        <pt x="339" y="879" on="0"/>
        <pt x="201" y="826" on="0"/>
        <pt x="153" y="795" on="1"/>
        <pt x="106" y="764" on="0"/>
        <pt x="62" y="678" on="0"/>
        <pt x="69" y="596" on="0"/>
        <pt x="92" y="562" on="1"/>
        <pt x="127" y="507" on="0"/>
        <pt x="254" y="481" on="0"/>
        <pt x="331" y="526" on="1"/>
        <pt x="364" y="548" on="0"/>
        <pt x="446" y="626" on="0"/>
        <pt x="486" y="671" on="0"/>
        <pt x="592" y="798" on="0"/>
        <pt x="597" y="804" on="1"/>
        <pt x="591" y="784" on="0"/>
        <pt x="550" y="647" on="0"/>
        <pt x="532" y="576" on="0"/>
        <pt x="512" y="469" on="0"/>
        <pt x="512" y="429" on="1"/>
        <pt x="512" y="345" on="0"/>
        <pt x="608" y="249" on="0"/>
        <pt x="738" y="249" on="0"/>
        <pt x="834" y="345" on="0"/>
        <pt x="834" y="429" on="1"/>
        <pt x="834" y="469" on="0"/>
        <pt x="814" y="578" on="0"/>
        <pt x="797" y="642" on="0"/>
        <pt x="752" y="791" on="0"/>
        <pt x="748" y="804" on="1"/>
        <pt x="760" y="790" on="0"/>
        <pt x="855" y="677" on="0"/>
        <pt x="902" y="624" on="0"/>
        <pt x="982" y="548" on="0"/>
        <pt x="1015" y="526" on="1"/>
        <pt x="1092" y="481" on="0"/>
        <pt x="1219" y="507" on="0"/>
        <pt x="1254" y="562" on="1"/>
        <pt x="1277" y="596" on="0"/>
        <pt x="1284" y="678" on="0"/>
        <pt x="1240" y="764" on="0"/>
        <pt x="1193" y="795" on="1"/>
        <pt x="1145" y="826" on="0"/>
        <pt x="1007" y="879" on="0"/>
        <pt x="822" y="933" on="0"/>
        <pt x="789" y="945" on="1"/>
        <pt x="818" y="955" on="0"/>
        <pt x="1008" y="1011" on="0"/>
        <pt x="1145" y="1063" on="0"/>
        <pt x="1193" y="1095" on="1"/>
        <pt x="1240" y="1126" on="0"/>
        <pt x="1284" y="1212" on="0"/>
        <pt x="1277" y="1294" on="0"/>
        <pt x="1254" y="1328" on="1"/>
        <pt x="1219" y="1383" on="0"/>
        <pt x="1092" y="1409" on="0"/>
        <pt x="1015" y="1364" on="1"/>
        <pt x="982" y="1342" on="0"/>
        <pt x="903" y="1267" on="0"/>
        <pt x="853" y="1210" on="0"/>
        <pt x="763" y="1103" on="0"/>
        <pt x="748" y="1086" on="1"/>
        <pt x="754" y="1105" on="0"/>
        <pt x="785" y="1208" on="0"/>
        <pt x="802" y="1268" on="0"/>
        <pt x="824" y="1355" on="0"/>
        <pt x="834" y="1429" on="0"/>
        <pt x="834" y="1461" on="1"/>
        <pt x="834" y="1545" on="0"/>
        <pt x="738" y="1641" on="0"/>
        <pt x="608" y="1641" on="0"/>
        <pt x="512" y="1545" on="0"/>
        <pt x="512" y="1461" on="1"/>
        <pt x="512" y="1421" on="0"/>
        <pt x="532" y="1313" on="0"/>
        <pt x="550" y="1245" on="0"/>
        <pt x="592" y="1102" on="0"/>
        <pt x="597" y="1086" on="1"/>
        <pt x="587" y="1098" on="0"/>
        <pt x="490" y="1214" on="0"/>
        <pt x="444" y="1265" on="0"/>
        <pt x="364" y="1342" on="0"/>
        <pt x="331" y="1364" on="1"/>
        <pt x="254" y="1409" on="0"/>
        <pt x="127" y="1383" on="0"/>
      </contour>
    </TTGlyph>
    <TTGlyph name="at" xMin="82" yMin="-198" xMax="1842" yMax="1372">
      <contour>
        <pt x="1398" y="603" on="1"/>
        <pt x="1398" y="676" on="0"/>
        <pt x="1363" y="794" on="0"/>
        <pt x="1312" y="867" on="0"/>
        <pt x="1233" y="921" on="0"/>
        <pt x="1167" y="947" on="0"/>
        <pt x="1080" y="962" on="0"/>
        <pt x="1034" y="964" on="0"/>
        <pt x="1005" y="964" on="1"/>
        <pt x="894" y="964" on="0"/>
        <pt x="725" y="903" on="0"/>
        <pt x="628" y="796" on="0"/>
        <pt x="580" y="665" on="0"/>
        <pt x="580" y="588" on="1"/>
        <pt x="580" y="409" on="0"/>
        <pt x="747" y="190" on="0"/>
        <pt x="866" y="190" on="1"/>
        <pt x="923" y="190" on="0"/>
        <pt x="1044" y="245" on="0"/>
        <pt x="1079" y="294" on="1"/>
        <pt x="1117" y="204" on="1"/>
        <pt x="1267" y="204" on="1"/>
        <pt x="1418" y="204" on="0"/>
        <pt x="1642" y="274" on="0"/>
        <pt x="1777" y="403" on="0"/>
        <pt x="1842" y="572" on="0"/>
        <pt x="1842" y="677" on="1"/>
        <pt x="1842" y="821" on="0"/>
        <pt x="1725" y="1074" on="0"/>
        <pt x="1510" y="1263" on="0"/>
        <pt x="1184" y="1372" on="0"/>
        <pt x="987" y="1372" on="1"/>
        <pt x="776" y="1372" on="0"/>
        <pt x="430" y="1244" on="0"/>
        <pt x="204" y="1024" on="0"/>
        <pt x="82" y="733" on="0"/>
        <pt x="82" y="567" on="1"/>
        <pt x="82" y="409" on="0"/>
        <pt x="210" y="132" on="0"/>
        <pt x="447" y="-77" on="0"/>
        <pt x="813" y="-198" on="0"/>
        <pt x="1037" y="-198" on="1"/>
        <pt x="1142" y="-198" on="0"/>
        <pt x="1252" y="-169" on="1"/>
        <pt x="1200" y="59" on="1"/>
        <pt x="1124" y="37" on="0"/>
        <pt x="1037" y="37" on="1"/>
        <pt x="881" y="37" on="0"/>
        <pt x="634" y="120" on="0"/>
        <pt x="478" y="265" on="0"/>
        <pt x="397" y="456" on="0"/>
        <pt x="397" y="567" on="1"/>
        <pt x="397" y="819" on="0"/>
        <pt x="703" y="1117" on="0"/>
        <pt x="987" y="1117" on="1"/>
        <pt x="1267" y="1117" on="0"/>
        <pt x="1557" y="877" on="0"/>
        <pt x="1557" y="677" on="1"/>
        <pt x="1557" y="604" on="0"/>
        <pt x="1537" y="497" on="0"/>
        <pt x="1507" y="440" on="0"/>
        <pt x="1461" y="407" on="0"/>
        <pt x="1423" y="398" on="0"/>
        <pt x="1399" y="398" on="1"/>
      </contour>
      <contour>
        <pt x="923" y="582" on="1"/>
        <pt x="923" y="632" on="0"/>
        <pt x="929" y="706" on="0"/>
        <pt x="945" y="778" on="0"/>
        <pt x="978" y="817" on="0"/>
        <pt x="1003" y="817" on="1"/>
        <pt x="1045" y="817" on="0"/>
        <pt x="1079" y="754" on="0"/>
        <pt x="1079" y="671" on="1"/>
        <pt x="1079" y="409" on="1"/>
        <pt x="1051" y="374" on="0"/>
        <pt x="996" y="374" on="1"/>
        <pt x="963" y="374" on="0"/>
        <pt x="923" y="489" on="0"/>
      </contour>
    </TTGlyph>
    <TTGlyph name="atilde" xMin="30" yMin="-18" xMax="1247" yMax="1523">
      <contour>
        <pt x="30" y="308" on="1"/>
        <pt x="30" y="159" on="0"/>
        <pt x="257" y="-18" on="0"/>
        <pt x="419" y="-18" on="1"/>
        <pt x="501" y="-18" on="0"/>
        <pt x="675" y="54" on="0"/>
        <pt x="725" y="119" on="1"/>
        <pt x="775" y="0" on="1"/>
        <pt x="1247" y="0" on="1"/>
        <pt x="1247" y="305" on="1"/>
        <pt x="1171" y="305" on="1"/>
        <pt x="1171" y="750" on="1"/>
        <pt x="1171" y="819" on="0"/>
        <pt x="1120" y="930" on="0"/>
        <pt x="1045" y="1000" on="0"/>
        <pt x="932" y="1051" on="0"/>
        <pt x="835" y="1076" on="0"/>
        <pt x="710" y="1090" on="0"/>
        <pt x="644" y="1092" on="0"/>
        <pt x="603" y="1092" on="1"/>
        <pt x="496" y="1092" on="0"/>
        <pt x="254" y="1057" on="0"/>
        <pt x="187" y="1040" on="1"/>
        <pt x="120" y="1022" on="1"/>
        <pt x="120" y="708" on="1"/>
        <pt x="295" y="708" on="1"/>
        <pt x="367" y="803" on="0"/>
        <pt x="510" y="803" on="1"/>
        <pt x="721" y="803" on="0"/>
        <pt x="721" y="637" on="1"/>
        <pt x="721" y="592" on="1"/>
        <pt x="611" y="630" on="0"/>
        <pt x="465" y="630" on="1"/>
        <pt x="382" y="630" on="0"/>
        <pt x="229" y="589" on="0"/>
        <pt x="105" y="511" on="0"/>
        <pt x="30" y="385" on="0"/>
      </contour>
      <contour>
        <pt x="520" y="326" on="1"/>
        <pt x="520" y="369" on="0"/>
        <pt x="582" y="438" on="0"/>
        <pt x="625" y="438" on="1"/>
        <pt x="647" y="438" on="0"/>
        <pt x="696" y="428" on="0"/>
        <pt x="710" y="422" on="1"/>
        <pt x="724" y="417" on="1"/>
        <pt x="724" y="270" on="1"/>
        <pt x="720" y="265" on="0"/>
        <pt x="704" y="250" on="0"/>
        <pt x="648" y="224" on="0"/>
        <pt x="616" y="224" on="1"/>
        <pt x="572" y="224" on="0"/>
        <pt x="520" y="281" on="0"/>
      </contour>
      <contour>
        <pt x="789" y="1523" on="1"/>
        <pt x="833" y="1523" on="0"/>
        <pt x="905" y="1485" on="0"/>
        <pt x="957" y="1416" on="0"/>
        <pt x="996" y="1348" on="0"/>
        <pt x="1043" y="1258" on="0"/>
        <pt x="1061" y="1232" on="1"/>
        <pt x="948" y="1158" on="1"/>
        <pt x="875" y="1228" on="0"/>
        <pt x="820" y="1266" on="0"/>
        <pt x="801" y="1266" on="1"/>
        <pt x="756" y="1266" on="0"/>
        <pt x="632" y="1206" on="0"/>
        <pt x="499" y="1145" on="0"/>
        <pt x="444" y="1145" on="1"/>
        <pt x="399" y="1145" on="0"/>
        <pt x="327" y="1182" on="0"/>
        <pt x="274" y="1251" on="0"/>
        <pt x="236" y="1318" on="0"/>
        <pt x="188" y="1409" on="0"/>
        <pt x="170" y="1435" on="1"/>
        <pt x="284" y="1510" on="1"/>
        <pt x="360" y="1437" on="0"/>
        <pt x="416" y="1398" on="0"/>
        <pt x="434" y="1398" on="1"/>
        <pt x="470" y="1398" on="0"/>
        <pt x="564" y="1437" on="0"/>
        <pt x="642" y="1484" on="0"/>
        <pt x="744" y="1523" on="0"/>
      </contour>
    </TTGlyph>
    <TTGlyph name="b" xMin="33" yMin="-18" xMax="1356" yMax="1631">
      <contour>
        <pt x="599" y="1631" on="1"/>
        <pt x="33" y="1631" on="1"/>
        <pt x="33" y="1325" on="1"/>
        <pt x="117" y="1325" on="1"/>
        <pt x="117" y="0" on="1"/>
        <pt x="567" y="0" on="1"/>
        <pt x="607" y="102" on="1"/>
        <pt x="705" y="32" on="0"/>
        <pt x="742" y="14" on="1"/>
        <pt x="808" y="-18" on="0"/>
        <pt x="883" y="-18" on="1"/>
        <pt x="976" y="-18" on="0"/>
        <pt x="1133" y="44" on="0"/>
        <pt x="1243" y="150" on="0"/>
        <pt x="1320" y="292" on="0"/>
        <pt x="1356" y="452" on="0"/>
        <pt x="1356" y="538" on="1"/>
        <pt x="1356" y="619" on="0"/>
        <pt x="1321" y="776" on="0"/>
        <pt x="1248" y="919" on="0"/>
        <pt x="1143" y="1028" on="0"/>
        <pt x="993" y="1092" on="0"/>
        <pt x="904" y="1092" on="1"/>
        <pt x="756" y="1092" on="0"/>
        <pt x="599" y="965" on="1"/>
      </contour>
      <contour>
        <pt x="603" y="662" on="1"/>
        <pt x="605" y="666" on="0"/>
        <pt x="612" y="679" on="0"/>
        <pt x="638" y="712" on="0"/>
        <pt x="666" y="737" on="0"/>
        <pt x="713" y="758" on="0"/>
        <pt x="738" y="758" on="1"/>
        <pt x="777" y="758" on="0"/>
        <pt x="834" y="724" on="0"/>
        <pt x="866" y="676" on="0"/>
        <pt x="885" y="607" on="0"/>
        <pt x="890" y="550" on="0"/>
        <pt x="890" y="519" on="1"/>
        <pt x="890" y="427" on="0"/>
        <pt x="804" y="328" on="0"/>
        <pt x="738" y="328" on="1"/>
        <pt x="702" y="328" on="0"/>
        <pt x="634" y="362" on="0"/>
        <pt x="618" y="379" on="1"/>
        <pt x="603" y="396" on="1"/>
      </contour>
    </TTGlyph>
    <TTGlyph name="backslash" xMin="58" yMin="0" xMax="973" yMax="1623">
      <contour>
        <pt x="400" y="0" on="1"/>
        <pt x="58" y="1623" on="1"/>
        <pt x="632" y="1623" on="1"/>
        <pt x="973" y="0" on="1"/>
      </contour>
    </TTGlyph>
    <TTGlyph name="bar" xMin="145" yMin="0" xMax="540" yMax="1623">
      <contour>
        <pt x="145" y="1623" on="1"/>
        <pt x="145" y="0" on="1"/>
        <pt x="540" y="0" on="1"/>
        <pt x="540" y="1623" on="1"/>
      </contour>
    </TTGlyph>
    <TTGlyph name="braceleft" xMin="4" yMin="-17" xMax="815" yMax="1704">
      <contour>
        <pt x="169" y="1128" on="1"/>
        <pt x="169" y="1096" on="0"/>
        <pt x="158" y="1048" on="0"/>
        <pt x="127" y="997" on="0"/>
        <pt x="57" y="967" on="0"/>
        <pt x="4" y="965" on="1"/>
        <pt x="4" y="722" on="1"/>
        <pt x="57" y="720" on="0"/>
        <pt x="127" y="690" on="0"/>
        <pt x="158" y="639" on="0"/>
        <pt x="169" y="591" on="0"/>
        <pt x="169" y="559" on="1"/>
        <pt x="169" y="441" on="0"/>
        <pt x="248" y="236" on="0"/>
        <pt x="402" y="75" on="0"/>
        <pt x="654" y="-17" on="0"/>
        <pt x="815" y="-17" on="1"/>
        <pt x="815" y="314" on="1"/>
        <pt x="653" y="314" on="0"/>
        <pt x="653" y="560" on="1"/>
        <pt x="653" y="751" on="0"/>
        <pt x="402" y="843" on="1"/>
        <pt x="653" y="936" on="0"/>
        <pt x="653" y="1127" on="1"/>
        <pt x="653" y="1373" on="0"/>
        <pt x="815" y="1373" on="1"/>
        <pt x="815" y="1704" on="1"/>
        <pt x="654" y="1704" on="0"/>
        <pt x="402" y="1612" on="0"/>
        <pt x="248" y="1451" on="0"/>
        <pt x="169" y="1246" on="0"/>
      </contour>
    </TTGlyph>
    <TTGlyph name="braceright" xMin="58" yMin="-17" xMax="869" yMax="1704">
      <contour>
        <pt x="704" y="1128" on="1"/>
        <pt x="704" y="1096" on="0"/>
        <pt x="715" y="1048" on="0"/>
        <pt x="746" y="997" on="0"/>
        <pt x="816" y="967" on="0"/>
        <pt x="869" y="965" on="1"/>
        <pt x="869" y="722" on="1"/>
        <pt x="816" y="720" on="0"/>
        <pt x="746" y="690" on="0"/>
        <pt x="715" y="639" on="0"/>
        <pt x="704" y="591" on="0"/>
        <pt x="704" y="559" on="1"/>
        <pt x="704" y="441" on="0"/>
        <pt x="625" y="236" on="0"/>
        <pt x="471" y="75" on="0"/>
        <pt x="219" y="-17" on="0"/>
        <pt x="58" y="-17" on="1"/>
        <pt x="58" y="314" on="1"/>
        <pt x="220" y="314" on="0"/>
        <pt x="220" y="560" on="1"/>
        <pt x="220" y="751" on="0"/>
        <pt x="471" y="843" on="1"/>
        <pt x="220" y="936" on="0"/>
        <pt x="220" y="1127" on="1"/>
        <pt x="220" y="1373" on="0"/>
        <pt x="58" y="1373" on="1"/>
        <pt x="58" y="1704" on="1"/>
        <pt x="219" y="1704" on="0"/>
        <pt x="471" y="1612" on="0"/>
        <pt x="625" y="1451" on="0"/>
        <pt x="704" y="1246" on="0"/>
      </contour>
    </TTGlyph>
    <TTGlyph name="bracketleft" xMin="145" yMin="0" xMax="859" yMax="1623">
      <contour>
        <pt x="145" y="0" on="1"/>
        <pt x="145" y="1623" on="1"/>
        <pt x="859" y="1623" on="1"/>
        <pt x="859" y="1322" on="1"/>
        <pt x="662" y="1322" on="1"/>
        <pt x="662" y="311" on="1"/>
        <pt x="855" y="311" on="1"/>
        <pt x="854" y="0" on="1"/>
      </contour>
    </TTGlyph>
    <TTGlyph name="bracketright" xMin="50" yMin="0" xMax="764" yMax="1623">
      <contour>
        <pt x="55" y="0" on="1"/>
        <pt x="54" y="311" on="1"/>
        <pt x="247" y="311" on="1"/>
        <pt x="247" y="1322" on="1"/>
        <pt x="50" y="1322" on="1"/>
        <pt x="50" y="1623" on="1"/>
        <pt x="764" y="1623" on="1"/>
        <pt x="764" y="0" on="1"/>
      </contour>
    </TTGlyph>
    <TTGlyph name="breve" xMin="366" yMin="1245" xMax="1174" yMax="1622">
      <contour>
        <pt x="770" y="1245" on="1"/>
        <pt x="571" y="1245" on="0"/>
        <pt x="366" y="1445" on="0"/>
        <pt x="366" y="1622" on="1"/>
        <pt x="618" y="1622" on="1"/>
        <pt x="618" y="1546" on="0"/>
        <pt x="708" y="1461" on="0"/>
        <pt x="832" y="1461" on="0"/>
        <pt x="922" y="1546" on="0"/>
        <pt x="922" y="1622" on="1"/>
        <pt x="1174" y="1622" on="1"/>
        <pt x="1174" y="1446" on="0"/>
        <pt x="967" y="1245" on="0"/>
      </contour>
    </TTGlyph>
    <TTGlyph name="brokenbar" xMin="146" yMin="0" xMax="541" yMax="1623">
      <contour>
        <pt x="146" y="721" on="1"/>
        <pt x="146" y="0" on="1"/>
        <pt x="541" y="0" on="1"/>
        <pt x="541" y="721" on="1"/>
      </contour>
      <contour>
        <pt x="146" y="1623" on="1"/>
        <pt x="146" y="902" on="1"/>
        <pt x="541" y="902" on="1"/>
        <pt x="541" y="1623" on="1"/>
      </contour>
    </TTGlyph>
    <TTGlyph name="bullet" xMin="74" yMin="141" xMax="863" yMax="919">
      <contour>
        <pt x="74" y="537" on="1"/>
        <pt x="74" y="550" on="1"/>
        <pt x="74" y="639" on="0"/>
        <pt x="140" y="783" on="0"/>
        <pt x="251" y="872" on="0"/>
        <pt x="388" y="919" on="0"/>
        <pt x="463" y="919" on="1"/>
        <pt x="539" y="919" on="0"/>
        <pt x="680" y="870" on="0"/>
        <pt x="794" y="778" on="0"/>
        <pt x="863" y="629" on="0"/>
        <pt x="863" y="537" on="1"/>
        <pt x="863" y="442" on="0"/>
        <pt x="795" y="287" on="0"/>
        <pt x="681" y="192" on="0"/>
        <pt x="540" y="141" on="0"/>
        <pt x="464" y="141" on="1"/>
        <pt x="387" y="141" on="0"/>
        <pt x="248" y="192" on="0"/>
        <pt x="138" y="287" on="0"/>
        <pt x="74" y="441" on="0"/>
      </contour>
    </TTGlyph>
    <TTGlyph name="c" xMin="43" yMin="-18" xMax="1038" yMax="1092">
      <contour>
        <pt x="43" y="546" on="1"/>
        <pt x="43" y="368" on="0"/>
        <pt x="190" y="109" on="0"/>
        <pt x="437" y="-18" on="0"/>
        <pt x="595" y="-18" on="1"/>
        <pt x="721" y="-18" on="0"/>
        <pt x="969" y="55" on="0"/>
        <pt x="1038" y="124" on="1"/>
        <pt x="1038" y="425" on="1"/>
        <pt x="798" y="425" on="1"/>
        <pt x="797" y="420" on="0"/>
        <pt x="794" y="402" on="0"/>
        <pt x="777" y="357" on="0"/>
        <pt x="752" y="323" on="0"/>
        <pt x="703" y="295" on="0"/>
        <pt x="671" y="295" on="1"/>
        <pt x="628" y="295" on="0"/>
        <pt x="565" y="335" on="0"/>
        <pt x="531" y="401" on="0"/>
        <pt x="516" y="473" on="0"/>
        <pt x="516" y="513" on="1"/>
        <pt x="516" y="648" on="0"/>
        <pt x="608" y="778" on="0"/>
        <pt x="671" y="778" on="1"/>
        <pt x="722" y="778" on="0"/>
        <pt x="794" y="694" on="0"/>
        <pt x="794" y="628" on="1"/>
        <pt x="1036" y="628" on="1"/>
        <pt x="1036" y="1072" on="1"/>
        <pt x="861" y="1072" on="1"/>
        <pt x="820" y="995" on="1"/>
        <pt x="699" y="1092" on="0"/>
        <pt x="562" y="1092" on="1"/>
        <pt x="445" y="1092" on="0"/>
        <pt x="247" y="1003" on="0"/>
        <pt x="116" y="853" on="0"/>
        <pt x="43" y="655" on="0"/>
      </contour>
    </TTGlyph>
    <TTGlyph name="cacute" xMin="43" yMin="-18" xMax="1038" yMax="1708">
      <component glyphName="c" x="0" y="0" flags="0x1204"/>
      <component glyphName="acute" x="33" y="0" flags="0x1004"/>
    </TTGlyph>
    <TTGlyph name="caron" xMin="93" yMin="1149" xMax="911" yMax="1627">
      <contour>
        <pt x="366" y="1149" on="1"/>
        <pt x="93" y="1526" on="1"/>
        <pt x="247" y="1627" on="1"/>
        <pt x="502" y="1382" on="1"/>
        <pt x="757" y="1627" on="1"/>
        <pt x="911" y="1526" on="1"/>
        <pt x="637" y="1150" on="1"/>
      </contour>
    </TTGlyph>
    <TTGlyph name="ccaron" xMin="43" yMin="-18" xMax="1038" yMax="1627">
      <component glyphName="c" x="0" y="0" flags="0x1204"/>
      <component glyphName="caron" x="53" y="0" flags="0x1004"/>
    </TTGlyph>
    <TTGlyph name="ccedilla" xMin="44" yMin="-485" xMax="1039" yMax="1092">
      <contour>
        <pt x="44" y="546" on="1"/>
        <pt x="44" y="368" on="0"/>
        <pt x="191" y="109" on="0"/>
        <pt x="438" y="-18" on="0"/>
        <pt x="596" y="-18" on="1"/>
        <pt x="722" y="-18" on="0"/>
        <pt x="970" y="55" on="0"/>
        <pt x="1039" y="124" on="1"/>
        <pt x="1039" y="425" on="1"/>
        <pt x="799" y="425" on="1"/>
        <pt x="798" y="420" on="0"/>
        <pt x="795" y="402" on="0"/>
        <pt x="778" y="357" on="0"/>
        <pt x="753" y="323" on="0"/>
        <pt x="704" y="295" on="0"/>
        <pt x="672" y="295" on="1"/>
        <pt x="629" y="295" on="0"/>
        <pt x="566" y="335" on="0"/>
        <pt x="532" y="401" on="0"/>
        <pt x="517" y="473" on="0"/>
        <pt x="517" y="513" on="1"/>
        <pt x="517" y="648" on="0"/>
        <pt x="609" y="778" on="0"/>
        <pt x="672" y="778" on="1"/>
        <pt x="723" y="778" on="0"/>
        <pt x="795" y="694" on="0"/>
        <pt x="795" y="628" on="1"/>
        <pt x="1037" y="628" on="1"/>
        <pt x="1037" y="1072" on="1"/>
        <pt x="862" y="1072" on="1"/>
        <pt x="821" y="995" on="1"/>
        <pt x="700" y="1092" on="0"/>
        <pt x="563" y="1092" on="1"/>
        <pt x="446" y="1092" on="0"/>
        <pt x="248" y="1003" on="0"/>
        <pt x="117" y="853" on="0"/>
        <pt x="44" y="655" on="0"/>
      </contour>
      <contour>
        <pt x="475" y="-119" on="1"/>
        <pt x="521" y="-145" on="0"/>
        <pt x="585" y="-231" on="0"/>
        <pt x="585" y="-271" on="1"/>
        <pt x="585" y="-315" on="0"/>
        <pt x="495" y="-371" on="0"/>
        <pt x="398" y="-372" on="1"/>
        <pt x="398" y="-485" on="1"/>
        <pt x="419" y="-485" on="1"/>
        <pt x="571" y="-485" on="0"/>
        <pt x="788" y="-367" on="0"/>
        <pt x="788" y="-285" on="1"/>
        <pt x="788" y="-196" on="0"/>
        <pt x="655" y="-119" on="1"/>
        <pt x="655" y="0" on="1"/>
        <pt x="475" y="0" on="1"/>
      </contour>
    </TTGlyph>
    <TTGlyph name="ccircumflex" xMin="43" yMin="-18" xMax="1038" yMax="1601">
      <component glyphName="c" x="0" y="0" flags="0x1204"/>
      <component glyphName="circumflex" x="43" y="0" flags="0x1004"/>
    </TTGlyph>
    <TTGlyph name="cdotaccent" xMin="43" yMin="-18" xMax="1038" yMax="1640">
      <component glyphName="c" x="0" y="0" flags="0x1204"/>
      <component glyphName="dotaccent" x="-6" y="0" flags="0x1004"/>
    </TTGlyph>
    <TTGlyph name="cedilla" xMin="70" yMin="-485" xMax="460" yMax="0">
      <contour>
        <pt x="147" y="-119" on="1"/>
        <pt x="193" y="-145" on="0"/>
        <pt x="257" y="-231" on="0"/>
        <pt x="257" y="-271" on="1"/>
        <pt x="257" y="-315" on="0"/>
        <pt x="167" y="-371" on="0"/>
        <pt x="70" y="-372" on="1"/>
        <pt x="70" y="-485" on="1"/>
        <pt x="91" y="-485" on="1"/>
        <pt x="243" y="-485" on="0"/>
        <pt x="460" y="-367" on="0"/>
        <pt x="460" y="-285" on="1"/>
        <pt x="460" y="-196" on="0"/>
        <pt x="327" y="-119" on="1"/>
        <pt x="327" y="0" on="1"/>
        <pt x="147" y="0" on="1"/>
      </contour>
    </TTGlyph>
    <TTGlyph name="cent" xMin="56" yMin="-261" xMax="1051" yMax="1362">
      <contour>
        <pt x="621" y="1362" on="1"/>
        <pt x="621" y="1089" on="1"/>
        <pt x="598" y="1092" on="0"/>
        <pt x="575" y="1092" on="1"/>
        <pt x="458" y="1092" on="0"/>
        <pt x="260" y="1003" on="0"/>
        <pt x="129" y="853" on="0"/>
        <pt x="56" y="655" on="0"/>
        <pt x="56" y="546" on="1"/>
        <pt x="56" y="368" on="0"/>
        <pt x="203" y="109" on="0"/>
        <pt x="450" y="-18" on="0"/>
        <pt x="608" y="-18" on="1"/>
        <pt x="621" y="-18" on="1"/>
        <pt x="621" y="-261" on="1"/>
        <pt x="733" y="-261" on="1"/>
        <pt x="733" y="-9" on="1"/>
        <pt x="948" y="21" on="0"/>
        <pt x="1051" y="124" on="1"/>
        <pt x="1051" y="425" on="1"/>
        <pt x="811" y="425" on="1"/>
        <pt x="811" y="421" on="0"/>
        <pt x="808" y="409" on="0"/>
        <pt x="798" y="375" on="0"/>
        <pt x="782" y="345" on="0"/>
        <pt x="752" y="313" on="0"/>
        <pt x="733" y="305" on="1"/>
        <pt x="733" y="766" on="1"/>
        <pt x="766" y="750" on="0"/>
        <pt x="807" y="677" on="0"/>
        <pt x="807" y="628" on="1"/>
        <pt x="1049" y="628" on="1"/>
        <pt x="1049" y="1072" on="1"/>
        <pt x="874" y="1072" on="1"/>
        <pt x="833" y="995" on="1"/>
        <pt x="783" y="1034" on="0"/>
        <pt x="733" y="1057" on="1"/>
        <pt x="733" y="1362" on="1"/>
      </contour>
      <contour>
        <pt x="529" y="513" on="1"/>
        <pt x="529" y="701" on="0"/>
        <pt x="621" y="759" on="1"/>
        <pt x="621" y="309" on="1"/>
        <pt x="573" y="332" on="0"/>
        <pt x="529" y="446" on="0"/>
      </contour>
    </TTGlyph>
    <TTGlyph name="circumflex" xMin="103" yMin="1123" xMax="921" yMax="1601">
      <contour>
        <pt x="376" y="1601" on="1"/>
        <pt x="103" y="1224" on="1"/>
        <pt x="257" y="1123" on="1"/>
        <pt x="512" y="1368" on="1"/>
        <pt x="767" y="1123" on="1"/>
        <pt x="921" y="1224" on="1"/>
        <pt x="647" y="1600" on="1"/>
      </contour>
    </TTGlyph>
    <TTGlyph name="colon" xMin="80" yMin="-18" xMax="644" yMax="1091">
      <contour>
        <pt x="357" y="596" on="1"/>
        <pt x="238" y="596" on="0"/>
        <pt x="80" y="731" on="0"/>
        <pt x="80" y="846" on="1"/>
        <pt x="80" y="959" on="0"/>
        <pt x="235" y="1091" on="0"/>
        <pt x="357" y="1091" on="1"/>
        <pt x="484" y="1091" on="0"/>
        <pt x="644" y="959" on="0"/>
        <pt x="644" y="846" on="1"/>
        <pt x="644" y="731" on="0"/>
        <pt x="479" y="596" on="0"/>
      </contour>
      <contour>
        <pt x="357" y="-18" on="1"/>
        <pt x="238" y="-18" on="0"/>
        <pt x="80" y="117" on="0"/>
        <pt x="80" y="232" on="1"/>
        <pt x="80" y="345" on="0"/>
        <pt x="235" y="477" on="0"/>
        <pt x="357" y="477" on="1"/>
        <pt x="484" y="477" on="0"/>
        <pt x="644" y="345" on="0"/>
        <pt x="644" y="232" on="1"/>
        <pt x="644" y="117" on="0"/>
        <pt x="479" y="-18" on="0"/>
      </contour>
    </TTGlyph>
    <TTGlyph name="comma" xMin="95" yMin="-448" xMax="629" yMax="366">
      <contour>
        <pt x="95" y="-448" on="1"/>
        <pt x="369" y="-448" on="0"/>
        <pt x="629" y="-189" on="0"/>
        <pt x="629" y="89" on="1"/>
        <pt x="629" y="212" on="0"/>
        <pt x="605" y="366" on="1"/>
        <pt x="95" y="366" on="1"/>
        <pt x="95" y="0" on="1"/>
        <pt x="284" y="0" on="1"/>
        <pt x="284" y="-42" on="0"/>
        <pt x="282" y="-87" on="0"/>
        <pt x="271" y="-147" on="0"/>
        <pt x="247" y="-179" on="0"/>
        <pt x="206" y="-210" on="0"/>
        <pt x="140" y="-223" on="0"/>
        <pt x="95" y="-223" on="1"/>
      </contour>
    </TTGlyph>
    <TTGlyph name="copyright" xMin="63" yMin="-18" xMax="1743" yMax="1602">
      <contour>
        <pt x="129" y="1106" on="1"/>
        <pt x="63" y="956" on="0"/>
        <pt x="63" y="628" on="0"/>
        <pt x="196" y="328" on="0"/>
        <pt x="421" y="111" on="0"/>
        <pt x="732" y="-18" on="0"/>
        <pt x="1074" y="-18" on="0"/>
        <pt x="1385" y="111" on="0"/>
        <pt x="1610" y="328" on="0"/>
        <pt x="1743" y="628" on="0"/>
        <pt x="1743" y="956" on="0"/>
        <pt x="1610" y="1256" on="0"/>
        <pt x="1385" y="1473" on="0"/>
        <pt x="1074" y="1602" on="0"/>
        <pt x="732" y="1602" on="0"/>
        <pt x="421" y="1473" on="0"/>
        <pt x="196" y="1256" on="0"/>
      </contour>
      <contour>
        <pt x="903" y="1448" on="1"/>
        <pt x="1083" y="1448" on="0"/>
        <pt x="1390" y="1272" on="0"/>
        <pt x="1569" y="970" on="0"/>
        <pt x="1569" y="614" on="0"/>
        <pt x="1390" y="312" on="0"/>
        <pt x="1083" y="136" on="0"/>
        <pt x="903" y="136" on="1"/>
        <pt x="768" y="136" on="0"/>
        <pt x="522" y="240" on="0"/>
        <pt x="343" y="416" on="0"/>
        <pt x="237" y="659" on="0"/>
        <pt x="237" y="925" on="0"/>
        <pt x="343" y="1168" on="0"/>
        <pt x="522" y="1344" on="0"/>
        <pt x="768" y="1448" on="0"/>
      </contour>
      <contour>
        <pt x="1275" y="658" on="1"/>
        <pt x="1084" y="658" on="1"/>
        <pt x="1082" y="611" on="0"/>
        <pt x="1079" y="598" on="1"/>
        <pt x="1069" y="547" on="0"/>
        <pt x="992" y="488" on="0"/>
        <pt x="940" y="488" on="1"/>
        <pt x="914" y="488" on="0"/>
        <pt x="872" y="501" on="0"/>
        <pt x="841" y="520" on="0"/>
        <pt x="817" y="555" on="0"/>
        <pt x="801" y="584" on="0"/>
        <pt x="790" y="634" on="0"/>
        <pt x="784" y="665" on="0"/>
        <pt x="782" y="723" on="0"/>
        <pt x="781" y="748" on="0"/>
        <pt x="782" y="805" on="0"/>
        <pt x="782" y="812" on="1"/>
        <pt x="782" y="847" on="0"/>
        <pt x="784" y="897" on="0"/>
        <pt x="793" y="968" on="0"/>
        <pt x="813" y="1017" on="0"/>
        <pt x="845" y="1064" on="0"/>
        <pt x="897" y="1088" on="0"/>
        <pt x="932" y="1088" on="1"/>
        <pt x="985" y="1088" on="0"/>
        <pt x="1055" y="1026" on="0"/>
        <pt x="1081" y="944" on="0"/>
        <pt x="1080" y="898" on="1"/>
        <pt x="1269" y="898" on="1"/>
        <pt x="1269" y="1299" on="1"/>
        <pt x="1072" y="1299" on="1"/>
        <pt x="1050" y="1254" on="1"/>
        <pt x="984" y="1318" on="0"/>
        <pt x="822" y="1318" on="1"/>
        <pt x="733" y="1318" on="0"/>
        <pt x="585" y="1256" on="0"/>
        <pt x="486" y="1152" on="0"/>
        <pt x="418" y="1012" on="0"/>
        <pt x="388" y="860" on="0"/>
        <pt x="388" y="780" on="1"/>
        <pt x="388" y="536" on="0"/>
        <pt x="639" y="252" on="0"/>
        <pt x="875" y="252" on="1"/>
        <pt x="941" y="252" on="0"/>
        <pt x="1073" y="282" on="0"/>
        <pt x="1165" y="325" on="0"/>
        <pt x="1239" y="368" on="0"/>
        <pt x="1257" y="383" on="1"/>
        <pt x="1275" y="398" on="1"/>
      </contour>
    </TTGlyph>
    <TTGlyph name="currency" xMin="70" yMin="540" xMax="1218" yMax="1654">
      <contour>
        <pt x="70" y="1097" on="1"/>
        <pt x="70" y="879" on="0"/>
        <pt x="192" y="734" on="1"/>
        <pt x="118" y="660" on="1"/>
        <pt x="221" y="557" on="1"/>
        <pt x="302" y="638" on="1"/>
        <pt x="450" y="540" on="0"/>
        <pt x="644" y="540" on="1"/>
        <pt x="842" y="540" on="0"/>
        <pt x="993" y="643" on="1"/>
        <pt x="1079" y="557" on="1"/>
        <pt x="1182" y="660" on="1"/>
        <pt x="1101" y="741" on="1"/>
        <pt x="1218" y="884" on="0"/>
        <pt x="1218" y="1097" on="1"/>
        <pt x="1218" y="1302" on="0"/>
        <pt x="1108" y="1444" on="1"/>
        <pt x="1182" y="1518" on="1"/>
        <pt x="1079" y="1621" on="1"/>
        <pt x="1002" y="1544" on="1"/>
        <pt x="849" y="1654" on="0"/>
        <pt x="644" y="1654" on="1"/>
        <pt x="445" y="1654" on="0"/>
        <pt x="292" y="1549" on="1"/>
        <pt x="221" y="1621" on="1"/>
        <pt x="118" y="1518" on="1"/>
        <pt x="185" y="1450" on="1"/>
        <pt x="70" y="1307" on="0"/>
      </contour>
      <contour>
        <pt x="991" y="1269" on="1"/>
        <pt x="1024" y="1192" on="0"/>
        <pt x="1024" y="1002" on="0"/>
        <pt x="959" y="847" on="0"/>
        <pt x="850" y="752" on="0"/>
        <pt x="716" y="701" on="0"/>
        <pt x="572" y="701" on="0"/>
        <pt x="438" y="752" on="0"/>
        <pt x="329" y="847" on="0"/>
        <pt x="264" y="1002" on="0"/>
        <pt x="264" y="1192" on="0"/>
        <pt x="329" y="1347" on="0"/>
        <pt x="438" y="1442" on="0"/>
        <pt x="572" y="1493" on="0"/>
        <pt x="716" y="1493" on="0"/>
        <pt x="850" y="1442" on="0"/>
        <pt x="959" y="1347" on="0"/>
      </contour>
    </TTGlyph>
    <TTGlyph name="d" xMin="43" yMin="-19" xMax="1370" yMax="1640">
      <contour>
        <pt x="1370" y="305" on="1"/>
        <pt x="1293" y="305" on="1"/>
        <pt x="1292" y="1640" on="1"/>
        <pt x="707" y="1640" on="1"/>
        <pt x="707" y="1335" on="1"/>
        <pt x="797" y="1335" on="1"/>
        <pt x="797" y="960" on="1"/>
        <pt x="729" y="1029" on="0"/>
        <pt x="590" y="1090" on="0"/>
        <pt x="498" y="1090" on="1"/>
        <pt x="395" y="1090" on="0"/>
        <pt x="220" y="996" on="0"/>
        <pt x="106" y="842" on="0"/>
        <pt x="43" y="650" on="0"/>
        <pt x="43" y="550" on="1"/>
        <pt x="43" y="445" on="0"/>
        <pt x="101" y="247" on="0"/>
        <pt x="211" y="82" on="0"/>
        <pt x="393" y="-19" on="0"/>
        <pt x="506" y="-19" on="1"/>
        <pt x="596" y="-18" on="0"/>
        <pt x="750" y="60" on="0"/>
        <pt x="801" y="128" on="1"/>
        <pt x="801" y="0" on="1"/>
        <pt x="1370" y="0" on="1"/>
      </contour>
      <contour>
        <pt x="801" y="415" on="1"/>
        <pt x="799" y="411" on="0"/>
        <pt x="792" y="398" on="0"/>
        <pt x="766" y="365" on="0"/>
        <pt x="738" y="340" on="0"/>
        <pt x="691" y="319" on="0"/>
        <pt x="666" y="319" on="1"/>
        <pt x="627" y="319" on="0"/>
        <pt x="570" y="353" on="0"/>
        <pt x="538" y="401" on="0"/>
        <pt x="519" y="470" on="0"/>
        <pt x="514" y="527" on="0"/>
        <pt x="514" y="558" on="1"/>
        <pt x="514" y="650" on="0"/>
        <pt x="600" y="749" on="0"/>
        <pt x="666" y="749" on="1"/>
        <pt x="702" y="749" on="0"/>
        <pt x="770" y="715" on="0"/>
        <pt x="786" y="698" on="1"/>
        <pt x="801" y="681" on="1"/>
      </contour>
    </TTGlyph>
    <TTGlyph name="dagger" xMin="61" yMin="0" xMax="853" yMax="1623">
      <contour>
        <pt x="61" y="1286" on="1"/>
        <pt x="303" y="1286" on="1"/>
        <pt x="303" y="1623" on="1"/>
        <pt x="618" y="1623" on="1"/>
        <pt x="618" y="1286" on="1"/>
        <pt x="853" y="1286" on="1"/>
        <pt x="853" y="991" on="1"/>
        <pt x="618" y="991" on="1"/>
        <pt x="618" y="0" on="1"/>
        <pt x="303" y="0" on="1"/>
        <pt x="303" y="991" on="1"/>
        <pt x="61" y="991" on="1"/>
      </contour>
    </TTGlyph>
    <TTGlyph name="daggerdbl" xMin="71" yMin="0" xMax="863" yMax="1623">
      <contour>
        <pt x="71" y="1286" on="1"/>
        <pt x="313" y="1286" on="1"/>
        <pt x="313" y="1623" on="1"/>
        <pt x="628" y="1623" on="1"/>
        <pt x="628" y="1286" on="1"/>
        <pt x="863" y="1286" on="1"/>
        <pt x="863" y="991" on="1"/>
        <pt x="628" y="991" on="1"/>
        <pt x="628" y="681" on="1"/>
        <pt x="863" y="681" on="1"/>
        <pt x="863" y="386" on="1"/>
        <pt x="628" y="386" on="1"/>
        <pt x="628" y="0" on="1"/>
        <pt x="313" y="0" on="1"/>
        <pt x="313" y="386" on="1"/>
        <pt x="71" y="386" on="1"/>
        <pt x="71" y="681" on="1"/>
        <pt x="313" y="681" on="1"/>
        <pt x="313" y="991" on="1"/>
        <pt x="71" y="991" on="1"/>
      </contour>
    </TTGlyph>
    <TTGlyph name="dcaron" xMin="43" yMin="-19" xMax="2063" yMax="1640">
      <component glyphName="d" x="0" y="0" flags="0x1004"/>
      <component glyphName="quoteright" x="1442" y="0" flags="0x1004"/>
    </TTGlyph>
    <TTGlyph name="dcroat" xMin="43" yMin="-19" xMax="1370" yMax="1640">
      <contour>
        <pt x="1370" y="0" on="1"/>
        <pt x="801" y="0" on="1"/>
        <pt x="801" y="128" on="1"/>
        <pt x="750" y="60" on="0"/>
        <pt x="596" y="-18" on="0"/>
        <pt x="506" y="-19" on="1"/>
        <pt x="393" y="-19" on="0"/>
        <pt x="211" y="82" on="0"/>
        <pt x="101" y="247" on="0"/>
        <pt x="43" y="445" on="0"/>
        <pt x="43" y="550" on="1"/>
        <pt x="43" y="650" on="0"/>
        <pt x="106" y="842" on="0"/>
        <pt x="220" y="996" on="0"/>
        <pt x="395" y="1090" on="0"/>
        <pt x="498" y="1090" on="1"/>
        <pt x="590" y="1090" on="0"/>
        <pt x="729" y="1029" on="0"/>
        <pt x="797" y="960" on="1"/>
        <pt x="797" y="1137" on="1"/>
        <pt x="692" y="1137" on="1"/>
        <pt x="692" y="1275" on="1"/>
        <pt x="797" y="1275" on="1"/>
        <pt x="797" y="1335" on="1"/>
        <pt x="707" y="1335" on="1"/>
        <pt x="707" y="1640" on="1"/>
        <pt x="1292" y="1640" on="1"/>
        <pt x="1292" y="1275" on="1"/>
        <pt x="1369" y="1275" on="1"/>
        <pt x="1369" y="1137" on="1"/>
        <pt x="1292" y="1137" on="1"/>
        <pt x="1293" y="305" on="1"/>
        <pt x="1370" y="305" on="1"/>
      </contour>
      <contour>
        <pt x="801" y="681" on="1"/>
        <pt x="786" y="698" on="1"/>
        <pt x="770" y="715" on="0"/>
        <pt x="702" y="749" on="0"/>
        <pt x="666" y="749" on="1"/>
        <pt x="600" y="749" on="0"/>
        <pt x="514" y="650" on="0"/>
        <pt x="514" y="558" on="1"/>
        <pt x="514" y="527" on="0"/>
        <pt x="519" y="470" on="0"/>
        <pt x="538" y="401" on="0"/>
        <pt x="570" y="353" on="0"/>
        <pt x="627" y="319" on="0"/>
        <pt x="666" y="319" on="1"/>
        <pt x="691" y="319" on="0"/>
        <pt x="738" y="340" on="0"/>
        <pt x="766" y="365" on="0"/>
        <pt x="792" y="398" on="0"/>
        <pt x="799" y="411" on="0"/>
        <pt x="801" y="415" on="1"/>
      </contour>
    </TTGlyph>
</ttFont>
